font.ufo
<glyph name="exclam" format="2">
	<unicode hex="0021"/>
	<advance width="600"/>
	<outline>
		<contour>
			<point x="252" y="255" type="line"/>
			<point x="348" y="255" type="line"/>
			<point x="368" y="537" type="line"/>
			<point x="373" y="670" type="line"/>
			<point x="227" y="670" type="line"/>
			<point x="232" y="537" type="line"/>
		</contour>
		<contour>
			<point x="300" y="-12" type="curve" smooth="yes"/>
			<point x="357" y="-12"/>
			<point x="400" y="30"/>
			<point x="400" y="90" type="curve" smooth="yes"/>
			<point x="400" y="149"/>
			<point x="357" y="190"/>
			<point x="300" y="190" type="curve" smooth="yes"/>
			<point x="243" y="190"/>
			<point x="200" y="149"/>
			<point x="200" y="90" type="curve" smooth="yes"/>
			<point x="200" y="30"/>
			<point x="243" y="-12"/>
		</contour>
	</outline>
</glyph>
<glyph name="dollar" format="2">
	<unicode hex="0024"/>
	<advance width="600"/>
	<outline>
		<contour>
			<point x="64" y="115" type="line"/>
			<point x="123" y="64"/>
			<point x="216" y="34"/>
			<point x="287" y="34" type="curve" smooth="yes"/>
			<point x="440" y="34"/>
			<point x="523" y="110"/>
			<point x="523" y="209" type="curve" smooth="yes"/>
			<point x="523" y="391"/>
			<point x="232" y="382"/>
			<point x="232" y="453" type="curve" smooth="yes"/>
			<point x="232" y="483"/>
			<point x="256" y="499"/>
			<point x="301" y="499" type="curve" smooth="yes"/>
			<point x="356" y="499"/>
			<point x="393" y="482"/>
			<point x="440" y="449" type="curve"/>
			<point x="513" y="533" type="line"/>
			<point x="464" y="583"/>
			<point x="402" y="618"/>
			<point x="311" y="618" type="curve" smooth="yes"/>
			<point x="177" y="618"/>
			<point x="91" y="552"/>
			<point x="91" y="451" type="curve" smooth="yes"/>
			<point x="91" y="267"/>
			<point x="383" y="282"/>
			<point x="383" y="198" type="curve" smooth="yes"/>
			<point x="383" y="170"/>
			<point x="357" y="153"/>
			<point x="309" y="153" type="curve" smooth="yes"/>
			<point x="246" y="153"/>
			<point x="191" y="176"/>
			<point x="128" y="215" type="curve"/>
		</contour>
		<contour>
			<point x="255" y="572" type="line"/>
			<point x="353" y="572" type="line"/>
			<point x="353" y="745" type="line"/>
			<point x="255" y="745" type="line"/>
		</contour>
		<contour>
			<point x="255" y="94" type="line"/>
			<point x="255" y="-110" type="line"/>
			<point x="353" y="-110" type="line"/>
			<point x="353" y="94" type="line"/>
		</contour>
	</outline>
</glyph>
<glyph name="ampersand" format="1">
	<unicode hex="0026"/>
	<advance width="600"/>
	<outline>
		<contour>
			<point x="232" y="-12" type="curve" smooth="yes"/>
			<point x="332" y="-12"/>
			<point x="406" y="33"/>
			<point x="463" y="100" type="curve" smooth="yes"/>
			<point x="522" y="181"/>
			<point x="561" y="270"/>
			<point x="586" y="368" type="curve"/>
			<point x="452" y="368" type="line"/>
			<point x="434" y="284"/>
			<point x="403" y="217"/>
			<point x="362" y="166" type="curve" smooth="yes"/>
			<point x="327" y="126"/>
			<point x="289" y="100"/>
			<point x="251" y="100" type="curve" smooth="yes"/>
			<point x="198" y="100"/>
			<point x="162" y="134"/>
			<point x="162" y="183" type="curve" smooth="yes"/>
			<point x="162" y="311"/>
			<point x="404" y="354"/>
			<point x="404" y="516" type="curve" smooth="yes"/>
			<point x="404" y="606"/>
			<point x="345" y="664"/>
			<point x="247" y="664" type="curve" smooth="yes"/>
			<point x="148" y="664"/>
			<point x="86" y="586"/>
			<point x="86" y="493" type="curve" smooth="yes"/>
			<point x="86" y="372"/>
			<point x="221" y="184"/>
			<point x="376" y="76" type="curve" smooth="yes"/>
			<point x="436" y="32"/>
			<point x="494" y="2"/>
			<point x="551" y="-12" type="curve"/>
			<point x="586" y="107" type="line"/>
			<point x="550" y="115"/>
			<point x="509" y="137"/>
			<point x="464" y="169" type="curve" smooth="yes"/>
			<point x="339" y="250"/>
			<point x="207" y="390"/>
			<point x="207" y="494" type="curve" smooth="yes"/>
			<point x="207" y="539"/>
			<point x="225" y="567"/>
			<point x="250" y="567" type="curve" smooth="yes"/>
			<point x="280" y="567"/>
			<point x="291" y="547"/>
			<point x="291" y="516" type="curve" smooth="yes"/>
			<point x="291" y="389"/>
			<point x="23" y="376"/>
			<point x="23" y="174" type="curve" smooth="yes"/>
			<point x="23" y="74"/>
			<point x="96" y="-12"/>
		</contour>
	</outline>
</glyph>
<glyph name="parenleft" format="1">
	<unicode hex="0028"/>
	<advance width="600"/>
	<outline>
		<contour>
			<point x="392" y="-179" type="curve"/>
			<point x="474" y="-114" type="line"/>
			<point x="355" y="2"/>
			<point x="304" y="120"/>
			<point x="304" y="278" type="curve" smooth="yes"/>
			<point x="304" y="436"/>
			<point x="355" y="554"/>
			<point x="474" y="670" type="curve"/>
			<point x="392" y="735" type="line"/>
			<point x="262" y="620"/>
			<point x="181" y="466"/>
			<point x="181" y="278" type="curve" smooth="yes"/>
			<point x="181" y="90"/>
			<point x="262" y="-64"/>
		</contour>
	</outline>
</glyph>
<glyph name="asterisk" format="1">
	<unicode hex="002A"/>
	<advance width="600"/>
	<outline>
		<contour>
			<point x="184" y="91" type="line"/>
			<point x="300" y="233" type="line"/>
			<point x="416" y="91" type="line"/>
			<point x="480" y="135" type="line"/>
			<point x="383" y="292" type="line"/>
			<point x="536" y="360" type="line"/>
			<point x="513" y="431" type="line"/>
			<point x="351" y="388" type="line"/>
			<point x="339" y="566" type="line"/>
			<point x="261" y="566" type="line"/>
			<point x="249" y="388" type="line"/>
			<point x="87" y="431" type="line"/>
			<point x="64" y="360" type="line"/>
			<point x="217" y="292" type="line"/>
			<point x="120" y="135" type="line"/>
		</contour>
	</outline>
</glyph>
<glyph name="two" format="1">
	<unicode hex="0032"/>
	<advance width="600"/>
	<outline>
		<contour>
			<point x="58" y="0" type="line"/>
			<point x="535" y="0" type="line"/>
			<point x="535" y="124" type="line"/>
			<point x="384" y="124" type="line" smooth="yes"/>
			<point x="351" y="124"/>
			<point x="305" y="120"/>
			<point x="269" y="116" type="curve"/>
			<point x="392" y="224"/>
			<point x="502" y="338"/>
			<point x="502" y="445" type="curve" smooth="yes"/>
			<point x="502" y="567"/>
			<point x="411" y="647"/>
			<point x="278" y="647" type="curve" smooth="yes"/>
			<point x="180" y="647"/>
			<point x="117" y="613"/>
			<point x="51" y="546" type="curve"/>
			<point x="130" y="467" type="line"/>
			<point x="166" y="501"/>
			<point x="207" y="532"/>
			<point x="258" y="532" type="curve" smooth="yes"/>
			<point x="324" y="532"/>
			<point x="362" y="498"/>
			<point x="362" y="436" type="curve" smooth="yes"/>
			<point x="362" y="345"/>
			<point x="240" y="237"/>
			<point x="58" y="84" type="curve"/>
		</contour>
	</outline>
</glyph>
<glyph name="three" format="1">
	<unicode hex="0033"/>
	<advance width="600"/>
	<outline>
		<contour>
			<point x="279" y="-12" type="curve" smooth="yes"/>
			<point x="413" y="-12"/>
			<point x="531" y="55"/>
			<point x="531" y="173" type="curve" smooth="yes"/>
			<point x="531" y="255"/>
			<point x="469" y="307"/>
			<point x="389" y="328" type="curve"/>
			<point x="389" y="332" type="line"/>
			<point x="465" y="361"/>
			<point x="510" y="407"/>
			<point x="510" y="473" type="curve" smooth="yes"/>
			<point x="510" y="584"/>
			<point x="414" y="647"/>
			<point x="276" y="647" type="curve" smooth="yes"/>
			<point x="194" y="647"/>
			<point x="122" y="616"/>
			<point x="60" y="566" type="curve"/>
			<point x="134" y="476" type="line"/>
			<point x="178" y="511"/>
			<point x="219" y="532"/>
			<point x="269" y="532" type="curve" smooth="yes"/>
			<point x="327" y="532"/>
			<point x="363" y="506"/>
			<point x="363" y="462" type="curve" smooth="yes"/>
			<point x="363" y="411"/>
			<point x="317" y="377"/>
			<point x="192" y="377" type="curve"/>
			<point x="192" y="273" type="line"/>
			<point x="341" y="273"/>
			<point x="384" y="238"/>
			<point x="384" y="182" type="curve" smooth="yes"/>
			<point x="384" y="134"/>
			<point x="334" y="107"/>
			<point x="265" y="107" type="curve" smooth="yes"/>
			<point x="207" y="107"/>
			<point x="152" y="134"/>
			<point x="110" y="171" type="curve"/>
			<point x="42" y="78" type="line"/>
			<point x="91" y="24"/>
			<point x="170" y="-12"/>
		</contour>
	</outline>
</glyph>
<glyph name="nine" format="1">
	<unicode hex="0039"/>
	<advance width="600"/>
	<outline>
		<contour>
			<point x="265" y="-12" type="curve" smooth="yes"/>
			<point x="405" y="-12"/>
			<point x="538" y="95"/>
			<point x="538" y="332" type="curve" smooth="yes"/>
			<point x="538" y="555"/>
			<point x="412" y="647"/>
			<point x="281" y="647" type="curve" smooth="yes"/>
			<point x="159" y="647"/>
			<point x="53" y="566"/>
			<point x="53" y="434" type="curve" smooth="yes"/>
			<point x="53" y="300"/>
			<point x="139" y="238"/>
			<point x="250" y="238" type="curve" smooth="yes"/>
			<point x="299" y="238"/>
			<point x="363" y="266"/>
			<point x="410" y="314" type="curve"/>
			<point x="403" y="410" type="line"/>
			<point x="363" y="360"/>
			<point x="320" y="342"/>
			<point x="282" y="342" type="curve" smooth="yes"/>
			<point x="225" y="342"/>
			<point x="187" y="369"/>
			<point x="187" y="434" type="curve" smooth="yes"/>
			<point x="187" y="506"/>
			<point x="234" y="537"/>
			<point x="284" y="537" type="curve" smooth="yes"/>
			<point x="345" y="537"/>
			<point x="404" y="490"/>
			<point x="404" y="332" type="curve" smooth="yes"/>
			<point x="404" y="163"/>
			<point x="333" y="107"/>
			<point x="252" y="107" type="curve" smooth="yes"/>
			<point x="210" y="107"/>
			<point x="166" y="128"/>
			<point x="140" y="152" type="curve"/>
			<point x="62" y="64" type="line"/>
			<point x="106" y="24"/>
			<point x="175" y="-12"/>
		</contour>
	</outline>
</glyph>
<glyph name="question" format="1">
	<unicode hex="003F"/>
	<advance width="600"/>
	<outline>
		<contour>
			<point x="218" y="255" type="curve"/>
			<point x="346" y="255" type="line"/>
			<point x="334" y="371"/>
			<point x="497" y="387"/>
			<point x="497" y="519" type="curve" smooth="yes"/>
			<point x="497" y="629"/>
			<point x="407" y="682"/>
			<point x="292" y="682" type="curve" smooth="yes"/>
			<point x="213" y="682"/>
			<point x="146" y="645"/>
			<point x="98" y="592" type="curve"/>
			<point x="180" y="517" type="line"/>
			<point x="210" y="544"/>
			<point x="241" y="563"/>
			<point x="282" y="563" type="curve" smooth="yes"/>
			<point x="324" y="563"/>
			<point x="356" y="542"/>
			<point x="356" y="500" type="curve" smooth="yes"/>
			<point x="356" y="426"/>
			<point x="196" y="389"/>
		</contour>
		<contour>
			<point x="286" y="-12" type="curve" smooth="yes"/>
			<point x="343" y="-12"/>
			<point x="386" y="30"/>
			<point x="386" y="90" type="curve" smooth="yes"/>
			<point x="386" y="149"/>
			<point x="343" y="190"/>
			<point x="286" y="190" type="curve" smooth="yes"/>
			<point x="229" y="190"/>
			<point x="186" y="149"/>
			<point x="186" y="90" type="curve" smooth="yes"/>
			<point x="186" y="30"/>
			<point x="229" y="-12"/>
		</contour>
	</outline>
</glyph>
<glyph name="A" format="2">
	<unicode hex="0041"/>
	<advance width="600"/>
	<outline>
		<contour>
			<point x="9" y="0" type="line"/>
			<point x="159" y="0" type="line"/>
			<point x="244" y="330" type="line" smooth="yes"/>
			<point x="261" y="395"/>
			<point x="279" y="471"/>
			<point x="295" y="540" type="curve"/>
			<point x="299" y="540" type="line"/>
			<point x="314" y="471"/>
			<point x="334" y="395"/>
			<point x="351" y="330" type="curve" smooth="yes"/>
			<point x="435" y="0" type="line"/>
			<point x="591" y="0" type="line"/>
			<point x="388" y="652" type="line"/>
			<point x="212" y="652" type="line"/>
		</contour>
		<contour>
			<point x="143" y="155" type="line"/>
			<point x="455" y="155" type="line"/>
			<point x="455" y="270" type="line"/>
			<point x="143" y="270" type="line"/>
		</contour>
	</outline>
	<anchor name="aboveUC" x="300" y="672"/>
	<anchor name="baseLC" x="516" y="0"/>
	<anchor name="belowLC" x="300" y="-20"/>
	<anchor name="ogonekCXT-ATH" x="300" y="0"/>
	<anchor name="ogonekUC" x="494" y="0"/>
</glyph>
<glyph name="B" format="2">
	<unicode hex="0042"/>
	<advance width="600"/>
	<outline>
		<contour>
			<point x="74" y="0" type="line"/>
			<point x="312" y="0" type="line" smooth="yes"/>
			<point x="453" y="0"/>
			<point x="562" y="59"/>
			<point x="562" y="192" type="curve" smooth="yes"/>
			<point x="562" y="279"/>
			<point x="513" y="328"/>
			<point x="420" y="345" type="curve"/>
			<point x="420" y="349" type="line"/>
			<point x="497" y="369"/>
			<point x="532" y="432"/>
			<point x="532" y="490" type="curve" smooth="yes"/>
			<point x="532" y="615"/>
			<point x="428" y="652"/>
			<point x="293" y="652" type="curve" smooth="yes"/>
			<point x="74" y="652" type="line"/>
		</contour>
		<contour>
			<point x="221" y="390" type="line"/>
			<point x="221" y="537" type="line"/>
			<point x="287" y="537" type="line" smooth="yes"/>
			<point x="356" y="537"/>
			<point x="388" y="518"/>
			<point x="388" y="470" type="curve" smooth="yes"/>
			<point x="388" y="420"/>
			<point x="358" y="390"/>
			<point x="286" y="390" type="curve" smooth="yes"/>
		</contour>
		<contour>
			<point x="221" y="115" type="line"/>
			<point x="221" y="284" type="line"/>
			<point x="300" y="284" type="line" smooth="yes"/>
			<point x="381" y="284"/>
			<point x="418" y="260"/>
			<point x="418" y="203" type="curve" smooth="yes"/>
			<point x="418" y="144"/>
			<point x="380" y="115"/>
			<point x="300" y="115" type="curve" smooth="yes"/>
		</contour>
	</outline>
</glyph>
<glyph name="D" format="2">
	<unicode hex="0044"/>
	<advance width="600"/>
	<outline>
		<contour>
			<point x="70" y="0" type="line"/>
			<point x="259" y="0" type="line" smooth="yes"/>
			<point x="440" y="0"/>
			<point x="564" y="105"/>
			<point x="564" y="329" type="curve" smooth="yes"/>
			<point x="564" y="553"/>
			<point x="440" y="652"/>
			<point x="250" y="652" type="curve" smooth="yes"/>
			<point x="70" y="652" type="line"/>
		</contour>
		<contour>
			<point x="218" y="119" type="line"/>
			<point x="218" y="533" type="line"/>
			<point x="242" y="533" type="line" smooth="yes"/>
			<point x="344" y="533"/>
			<point x="413" y="485"/>
			<point x="413" y="329" type="curve" smooth="yes"/>
			<point x="413" y="173"/>
			<point x="344" y="119"/>
			<point x="242" y="119" type="curve" smooth="yes"/>
		</contour>
	</outline>
	<anchor name="aboveUC" x="300" y="672"/>
	<anchor name="baseLC" x="282" y="0"/>
	<anchor name="belowLC" x="298" y="-20"/>
</glyph>
<glyph name="E" format="1">
	<unicode hex="0045"/>
	<advance width="600"/>
	<outline>
		<contour>
			<point x="92" y="0" type="line"/>
			<point x="534" y="0" type="line"/>
			<point x="534" y="124" type="line"/>
			<point x="240" y="124" type="line"/>
			<point x="240" y="274" type="line"/>
			<point x="481" y="274" type="line"/>
			<point x="481" y="397" type="line"/>
			<point x="240" y="397" type="line"/>
			<point x="240" y="528" type="line"/>
			<point x="524" y="528" type="line"/>
			<point x="524" y="652" type="line"/>
			<point x="92" y="652" type="line"/>
		</contour>
		<contour>
			<point name="aboveUC" x="323" y="672" type="move"/>
		</contour>
		<contour>
			<point name="ogonekCXT-ATH" x="324" y="0" type="move"/>
		</contour>
		<contour>
			<point name="ogonekUC" x="430" y="0" type="move"/>
		</contour>
		<contour>
			<point name="baseLC" x="322" y="0" type="move"/>
		</contour>
		<contour>
			<point name="belowLC" x="324" y="-20" type="move"/>
		</contour>
	</outline>
</glyph>
<glyph name="F" format="1">
	<unicode hex="0046"/>
	<advance width="600"/>
	<outline>
		<contour>
			<point x="105" y="0" type="line"/>
			<point x="252" y="0" type="line"/>
			<point x="252" y="253" type="line"/>
			<point x="496" y="253" type="line"/>
			<point x="496" y="377" type="line"/>
			<point x="252" y="377" type="line"/>
			<point x="252" y="528" type="line"/>
			<point x="538" y="528" type="line"/>
			<point x="538" y="652" type="line"/>
			<point x="105" y="652" type="line"/>
		</contour>
		<contour>
			<point name="aboveUC" x="333" y="672" type="move"/>
		</contour>
		<contour>
			<point name="baseLC" x="177" y="0" type="move"/>
		</contour>
		<contour>
			<point name="belowLC" x="180" y="-20" type="move"/>
		</contour>
	</outline>
</glyph>
<glyph name="H" format="2">
	<unicode hex="0048"/>
	<advance width="600"/>
	<outline>
		<contour>
			<point x="64" y="0" type="line"/>
			<point x="211" y="0" type="line"/>
			<point x="211" y="272" type="line"/>
			<point x="389" y="272" type="line"/>
			<point x="389" y="0" type="line"/>
			<point x="536" y="0" type="line"/>
			<point x="536" y="652" type="line"/>
			<point x="389" y="652" type="line"/>
			<point x="389" y="401" type="line"/>
			<point x="211" y="401" type="line"/>
			<point x="211" y="652" type="line"/>
			<point x="64" y="652" type="line"/>
		</contour>
	</outline>
	<anchor name="aboveUC" x="300" y="672"/>
	<anchor name="baseLC" x="139" y="0"/>
	<anchor name="belowLC" x="300" y="-20"/>
</glyph>
<glyph name="I" format="2">
	<unicode hex="0049"/>
	<advance width="600"/>
	<outline>
		<contour>
			<point x="74" y="0" type="line"/>
			<point x="526" y="0" type="line"/>
			<point x="526" y="124" type="line"/>
			<point x="374" y="124" type="line"/>
			<point x="374" y="528" type="line"/>
			<point x="526" y="528" type="line"/>
			<point x="526" y="652" type="line"/>
			<point x="74" y="652" type="line"/>
			<point x="74" y="528" type="line"/>
			<point x="226" y="528" type="line"/>
			<point x="226" y="124" type="line"/>
			<point x="74" y="124" type="line"/>
		</contour>
	</outline>
	<anchor name="aboveUC" x="300" y="672"/>
	<anchor name="baseLC" x="300" y="0"/>
	<anchor name="belowLC" x="300" y="-20"/>
	<anchor name="ogonekUC" x="300" y="0"/>
</glyph>
<glyph name="K" format="2">
	<unicode hex="004B"/>
	<advance width="600"/>
	<outline>
		<contour>
			<point x="68" y="0" type="line"/>
			<point x="217" y="0" type="line"/>
			<point x="217" y="178" type="line"/>
			<point x="576" y="652" type="line"/>
			<point x="413" y="652" type="line"/>
			<point x="220" y="385" type="line"/>
			<point x="217" y="385" type="line"/>
			<point x="217" y="652" type="line"/>
			<point x="68" y="652" type="line"/>
		</contour>
		<contour>
			<point x="431" y="0" type="line"/>
			<point x="594" y="0" type="line"/>
			<point x="366" y="418" type="line"/>
			<point x="279" y="303" type="line"/>
		</contour>
	</outline>
	<anchor name="aboveUC" x="322" y="672"/>
	<anchor name="belowLC" x="325" y="-20"/>
</glyph>
<glyph name="L" format="1">
	<unicode hex="004C"/>
	<advance width="600"/>
	<outline>
		<contour>
			<point x="107" y="0" type="line"/>
			<point x="544" y="0" type="line"/>
			<point x="544" y="124" type="line"/>
			<point x="254" y="124" type="line"/>
			<point x="254" y="652" type="line"/>
			<point x="107" y="652" type="line"/>
		</contour>
		<contour>
			<point name="aboveUC" x="193" y="672" type="move"/>
		</contour>
		<contour>
			<point name="center" x="179" y="346" type="move"/>
		</contour>
		<contour>
			<point name="baseLC" x="335" y="0" type="move"/>
		</contour>
		<contour>
			<point name="belowLC" x="335" y="-20" type="move"/>
		</contour>
	</outline>
</glyph>
<glyph name="O" format="1">
	<unicode hex="004F"/>
	<advance width="600"/>
	<outline>
		<contour>
			<point x="300" y="-12" type="curve" smooth="yes"/>
			<point x="455" y="-12"/>
			<point x="562" y="106"/>
			<point x="562" y="329" type="curve" smooth="yes"/>
			<point x="562" y="547"/>
			<point x="455" y="664"/>
			<point x="300" y="664" type="curve" smooth="yes"/>
			<point x="145" y="664"/>
			<point x="38" y="547"/>
			<point x="38" y="329" type="curve" smooth="yes"/>
			<point x="38" y="106"/>
			<point x="145" y="-12"/>
		</contour>
		<contour>
			<point x="300" y="115" type="curve" smooth="yes"/>
			<point x="232" y="115"/>
			<point x="189" y="188"/>
			<point x="189" y="329" type="curve" smooth="yes"/>
			<point x="189" y="464"/>
			<point x="232" y="537"/>
			<point x="300" y="537" type="curve" smooth="yes"/>
			<point x="368" y="537"/>
			<point x="411" y="464"/>
			<point x="411" y="329" type="curve" smooth="yes"/>
			<point x="411" y="188"/>
			<point x="368" y="115"/>
		</contour>
		<contour>
			<point name="aboveUC" x="300" y="672" type="move"/>
		</contour>
		<contour>
			<point name="hornLC" x="424" y="642" type="move"/>
		</contour>
		<contour>
			<point name="ogonekUC" x="300" y="0" type="move"/>
		</contour>
		<contour>
			<point name="baseLC" x="300" y="0" type="move"/>
		</contour>
		<contour>
			<point name="belowLC" x="300" y="-20" type="move"/>
		</contour>
	</outline>
</glyph>
<glyph name="T" format="2">
	<unicode hex="0054"/>
	<advance width="600"/>
	<outline>
		<contour>
			<point x="226" y="0" type="line"/>
			<point x="374" y="0" type="line"/>
			<point x="374" y="528" type="line"/>
			<point x="569" y="528" type="line"/>
			<point x="569" y="652" type="line"/>
			<point x="31" y="652" type="line"/>
			<point x="31" y="528" type="line"/>
			<point x="226" y="528" type="line"/>
		</contour>
	</outline>
	<anchor name="aboveUC" x="300" y="672"/>
	<anchor name="baseLC" x="300" y="0"/>
	<anchor name="belowLC" x="300" y="-20"/>
</glyph>
<glyph name="U" format="2">
	<unicode hex="0055"/>
	<advance width="600"/>
	<outline>
		<contour>
			<point x="302" y="-12" type="curve" smooth="yes"/>
			<point x="460" y="-12"/>
			<point x="536" y="82"/>
			<point x="536" y="251" type="curve" smooth="yes"/>
			<point x="536" y="652" type="line"/>
			<point x="394" y="652" type="line"/>
			<point x="394" y="236" type="line" smooth="yes"/>
			<point x="394" y="158"/>
			<point x="364" y="115"/>
			<point x="302" y="115" type="curve" smooth="yes"/>
			<point x="240" y="115"/>
			<point x="211" y="158"/>
			<point x="211" y="236" type="curve" smooth="yes"/>
			<point x="211" y="652" type="line"/>
			<point x="64" y="652" type="line"/>
			<point x="64" y="251" type="line" smooth="yes"/>
			<point x="64" y="82"/>
			<point x="143" y="-12"/>
		</contour>
	</outline>
	<anchor name="aboveUC" x="300" y="672"/>
	<anchor name="baseLC" x="300" y="0"/>
	<anchor name="belowLC" x="300" y="-20"/>
	<anchor name="hornLC" x="512" y="662"/>
	<anchor name="ogonekUC" x="300" y="0"/>
</glyph>
<glyph name="W" format="2">
	<unicode hex="0057"/>
	<advance width="600"/>
	<outline>
		<contour>
			<point x="91" y="0" type="line"/>
			<point x="244" y="0" type="line"/>
			<point x="282" y="202" type="line" smooth="yes"/>
			<point x="290" y="243"/>
			<point x="295" y="287"/>
			<point x="299" y="326" type="curve"/>
			<point x="302" y="326" type="line"/>
			<point x="304" y="287"/>
			<point x="312" y="243"/>
			<point x="320" y="202" type="curve" smooth="yes"/>
			<point x="358" y="0" type="line"/>
			<point x="516" y="0" type="line"/>
			<point x="596" y="652" type="line"/>
			<point x="453" y="652" type="line"/>
			<point x="435" y="305" type="line" smooth="yes"/>
			<point x="433" y="251"/>
			<point x="432" y="201"/>
			<point x="431" y="141" type="curve"/>
			<point x="427" y="141" type="line"/>
			<point x="417" y="201"/>
			<point x="406" y="251"/>
			<point x="395" y="305" type="curve" smooth="yes"/>
			<point x="354" y="487" type="line"/>
			<point x="260" y="487" type="line"/>
			<point x="216" y="305" type="line" smooth="yes"/>
			<point x="205" y="250"/>
			<point x="193" y="200"/>
			<point x="184" y="141" type="curve"/>
			<point x="180" y="141" type="line"/>
			<point x="179" y="200"/>
			<point x="178" y="249"/>
			<point x="177" y="305" type="curve"/>
			<point x="157" y="652" type="line"/>
			<point x="4" y="652" type="line"/>
		</contour>
	</outline>
</glyph>
<glyph name="X" format="1">
	<unicode hex="0058"/>
	<advance width="600"/>
	<outline>
		<contour>
			<point x="18" y="0" type="line"/>
			<point x="175" y="0" type="line"/>
			<point x="243" y="133" type="line" smooth="yes"/>
			<point x="259" y="167"/>
			<point x="275" y="200"/>
			<point x="291" y="240" type="curve"/>
			<point x="295" y="240" type="line"/>
			<point x="313" y="200"/>
			<point x="329" y="167"/>
			<point x="347" y="133" type="curve" smooth="yes"/>
			<point x="418" y="0" type="line"/>
			<point x="582" y="0" type="line"/>
			<point x="392" y="328" type="line"/>
			<point x="571" y="652" type="line"/>
			<point x="413" y="652" type="line"/>
			<point x="355" y="529" type="line" smooth="yes"/>
			<point x="341" y="499"/>
			<point x="327" y="465"/>
			<point x="311" y="424" type="curve"/>
			<point x="307" y="424" type="line"/>
			<point x="287" y="465"/>
			<point x="272" y="499"/>
			<point x="257" y="529" type="curve" smooth="yes"/>
			<point x="194" y="652" type="line"/>
			<point x="29" y="652" type="line"/>
			<point x="208" y="335" type="line"/>
		</contour>
		<contour>
			<point name="aboveUC" x="300" y="672" type="move"/>
		</contour>
		<contour>
			<point name="baseLC" x="496" y="0" type="move"/>
		</contour>
		<contour>
			<point name="belowLC" x="300" y="-20" type="move"/>
		</contour>
	</outline>
</glyph>
<glyph name="Y" format="2">
	<unicode hex="0059"/>
	<advance width="600"/>
	<outline>
		<contour>
			<point x="226" y="0" type="line"/>
			<point x="374" y="0" type="line"/>
			<point x="374" y="220" type="line"/>
			<point x="584" y="652" type="line"/>
			<point x="430" y="652" type="line"/>
			<point x="364" y="495" type="line" smooth="yes"/>
			<point x="344" y="445"/>
			<point x="324" y="398"/>
			<point x="303" y="346" type="curve"/>
			<point x="299" y="346" type="line"/>
			<point x="279" y="398"/>
			<point x="259" y="445"/>
			<point x="240" y="495" type="curve" smooth="yes"/>
			<point x="174" y="652" type="line"/>
			<point x="16" y="652" type="line"/>
			<point x="226" y="220" type="line"/>
		</contour>
	</outline>
	<anchor name="aboveUC" x="300" y="672"/>
	<anchor name="belowLC" x="300" y="-20"/>
	<anchor name="ogonekUC" x="300" y="0"/>
</glyph>
<glyph name="Z" format="1">
	<unicode hex="005A"/>
	<advance width="600"/>
	<outline>
		<contour>
			<point x="56" y="0" type="line"/>
			<point x="547" y="0" type="line"/>
			<point x="547" y="124" type="line"/>
			<point x="238" y="124" type="line"/>
			<point x="543" y="563" type="line"/>
			<point x="543" y="652" type="line"/>
			<point x="85" y="652" type="line"/>
			<point x="85" y="529" type="line"/>
			<point x="361" y="529" type="line"/>
			<point x="56" y="89" type="line"/>
		</contour>
		<contour>
			<point name="aboveUC" x="319" y="672" type="move"/>
		</contour>
		<contour>
			<point name="baseLC" x="320" y="0" type="move"/>
		</contour>
		<contour>
			<point name="belowLC" x="312" y="-20" type="move"/>
		</contour>
	</outline>
</glyph>
<glyph name="asciicircum" format="2">
	<unicode hex="005E"/>
	<advance width="600"/>
	<outline>
		<contour>
			<point x="86" y="274" type="line"/>
			<point x="207" y="274" type="line"/>
			<point x="253" y="402" type="line"/>
			<point x="298" y="537" type="line"/>
			<point x="302" y="537" type="line"/>
			<point x="347" y="402" type="line"/>
			<point x="393" y="274" type="line"/>
			<point x="514" y="274" type="line"/>
			<point x="359" y="670" type="line"/>
			<point x="241" y="670" type="line"/>
		</contour>
	</outline>
</glyph>
<glyph name="b" format="1">
	<unicode hex="0062"/>
	<advance width="600"/>
	<outline>
		<contour>
			<point x="338" y="-12" type="curve" smooth="yes"/>
			<point x="449" y="-12"/>
			<point x="553" y="86"/>
			<point x="553" y="257" type="curve" smooth="yes"/>
			<point x="553" y="409"/>
			<point x="477" y="508"/>
			<point x="353" y="508" type="curve" smooth="yes"/>
			<point x="305" y="508"/>
			<point x="254" y="487"/>
			<point x="217" y="451" type="curve"/>
			<point x="214" y="451" type="line"/>
			<point x="219" y="529" type="line"/>
			<point x="219" y="701" type="line"/>
			<point x="72" y="701" type="line"/>
			<point x="72" y="0" type="line"/>
			<point x="187" y="0" type="line"/>
			<point x="199" y="54" type="line"/>
			<point x="203" y="54" type="line"/>
			<point x="244" y="11"/>
			<point x="292" y="-12"/>
		</contour>
		<contour>
			<point x="305" y="108" type="curve" smooth="yes"/>
			<point x="279" y="108"/>
			<point x="247" y="117"/>
			<point x="219" y="141" type="curve"/>
			<point x="219" y="342" type="line"/>
			<point x="250" y="374"/>
			<point x="279" y="388"/>
			<point x="311" y="388" type="curve" smooth="yes"/>
			<point x="373" y="388"/>
			<point x="402" y="343"/>
			<point x="402" y="254" type="curve" smooth="yes"/>
			<point x="402" y="152"/>
			<point x="359" y="108"/>
		</contour>
		<contour>
			<point name="aboveUC" x="146" y="732" type="move"/>
		</contour>
		<contour>
			<point name="belowLC" x="310" y="-20" type="move"/>
		</contour>
	</outline>
</glyph>
<glyph name="d" format="2">
	<unicode hex="0064"/>
	<advance width="600"/>
	<outline>
		<contour>
			<point x="256" y="-12" type="curve" smooth="yes"/>
			<point x="306" y="-12"/>
			<point x="357" y="15"/>
			<point x="394" y="51" type="curve"/>
			<point x="397" y="51" type="line"/>
			<point x="408" y="0" type="line"/>
			<point x="528" y="0" type="line"/>
			<point x="528" y="701" type="line"/>
			<point x="381" y="701" type="line" smooth="yes"/>
			<point x="381" y="532" type="line"/>
			<point x="388" y="455" type="line"/>
			<point x="384" y="455" type="line"/>
			<point x="351" y="489"/>
			<point x="314" y="508"/>
			<point x="259" y="508" type="curve" smooth="yes"/>
			<point x="151" y="508"/>
			<point x="47" y="410"/>
			<point x="47" y="248" type="curve" smooth="yes"/>
			<point x="47" y="86"/>
			<point x="130" y="-12"/>
		</contour>
		<contour>
			<point x="294" y="108" type="curve" smooth="yes"/>
			<point x="233" y="108"/>
			<point x="198" y="152"/>
			<point x="198" y="250" type="curve" smooth="yes"/>
			<point x="198" y="344"/>
			<point x="244" y="388"/>
			<point x="298" y="388" type="curve" smooth="yes"/>
			<point x="327" y="388"/>
			<point x="354" y="379"/>
			<point x="381" y="355" type="curve"/>
			<point x="381" y="154" type="line"/>
			<point x="355" y="121"/>
			<point x="327" y="108"/>
		</contour>
	</outline>
	<anchor name="aboveUC" x="445" y="732"/>
	<anchor name="baseLC" x="277" y="0"/>
	<anchor name="belowLC" x="308" y="-20"/>
</glyph>
<glyph name="f" format="1">
	<unicode hex="0066"/>
	<advance width="600"/>
	<outline>
		<contour>
			<point x="213" y="0" type="line"/>
			<point x="360" y="0" type="line"/>
			<point x="360" y="510" type="line" smooth="yes"/>
			<point x="360" y="570"/>
			<point x="390" y="597"/>
			<point x="453" y="597" type="curve" smooth="yes"/>
			<point x="491" y="597"/>
			<point x="526" y="590"/>
			<point x="557" y="578" type="curve"/>
			<point x="585" y="686" type="line"/>
			<point x="543" y="700"/>
			<point x="492" y="713"/>
			<point x="435" y="713" type="curve" smooth="yes"/>
			<point x="280" y="713"/>
			<point x="213" y="623"/>
			<point x="213" y="509" type="curve" smooth="yes"/>
		</contour>
		<contour>
			<point x="82" y="381" type="line"/>
			<point x="531" y="381" type="line"/>
			<point x="531" y="496" type="line"/>
			<point x="218" y="496" type="line"/>
			<point x="82" y="490" type="line"/>
		</contour>
		<contour>
			<point name="aboveUC" x="413" y="732" type="move"/>
		</contour>
		<contour>
			<point name="baseLC" x="295" y="0" type="move"/>
		</contour>
		<contour>
			<point name="belowLC" x="293" y="-20" type="move"/>
		</contour>
	</outline>
</glyph>
<glyph name="i" format="1">
	<unicode hex="0069"/>
	<advance width="600"/>
	<outline>
		<component base="dotlessi"/>
		<component base="dotaccentcmb" xOffset="45"/>
		<contour>
			<point name="aboveUC" x="345" y="761" type="move"/>
		</contour>
		<contour>
			<point name="ogonekLC" x="352" y="0" type="move"/>
		</contour>
		<contour>
			<point name="baseLC" x="354" y="0" type="move"/>
		</contour>
		<contour>
			<point name="belowLC" x="345" y="-20" type="move"/>
		</contour>
	</outline>
</glyph>
<glyph name="k" format="1">
	<unicode hex="006B"/>
	<advance width="600"/>
	<outline>
		<contour>
			<point x="76" y="0" type="line"/>
			<point x="223" y="0" type="line"/>
			<point x="223" y="125" type="line"/>
			<point x="570" y="496" type="line"/>
			<point x="409" y="496" type="line"/>
			<point x="227" y="296" type="line"/>
			<point x="223" y="296" type="line"/>
			<point x="223" y="701" type="line"/>
			<point x="76" y="701" type="line"/>
		</contour>
		<contour>
			<point x="426" y="0" type="line"/>
			<point x="585" y="0" type="line"/>
			<point x="366" y="316" type="line"/>
			<point x="282" y="225" type="line"/>
		</contour>
		<contour>
			<point name="aboveUC" x="165" y="732" type="move"/>
		</contour>
		<contour>
			<point name="belowLC" x="324" y="-20" type="move"/>
		</contour>
	</outline>
</glyph>
<glyph name="l" format="1">
	<unicode hex="006C"/>
	<advance width="600"/>
	<outline>
		<contour>
			<point x="395" y="-12" type="curve" smooth="yes"/>
			<point x="457" y="-12"/>
			<point x="492" y="-2"/>
			<point x="544" y="15" type="curve"/>
			<point x="511" y="123" type="line"/>
			<point x="481" y="111"/>
			<point x="457" y="107"/>
			<point x="434" y="107" type="curve" smooth="yes"/>
			<point x="392" y="107"/>
			<point x="353" y="127"/>
			<point x="353" y="188" type="curve" smooth="yes"/>
			<point x="353" y="701" type="line"/>
			<point x="50" y="701" type="line"/>
			<point x="50" y="585" type="line"/>
			<point x="206" y="585" type="line"/>
			<point x="206" y="194" type="line" smooth="yes"/>
			<point x="206" y="68"/>
			<point x="271" y="-12"/>
		</contour>
		<contour>
			<point name="aboveUC" x="274" y="732" type="move"/>
		</contour>
		<contour>
			<point name="center" x="278" y="367" type="move"/>
		</contour>
		<contour>
			<point name="baseLC" x="318" y="0" type="move"/>
		</contour>
		<contour>
			<point name="belowLC" x="367" y="-20" type="move"/>
		</contour>
	</outline>
</glyph>
<glyph name="m" format="1">
	<unicode hex="006D"/>
	<advance width="600"/>
	<outline>
		<contour>
			<point x="35" y="0" type="line"/>
			<point x="175" y="0" type="line"/>
			<point x="175" y="335" type="line"/>
			<point x="188" y="367"/>
			<point x="200" y="383"/>
			<point x="219" y="383" type="curve" smooth="yes"/>
			<point x="238" y="383"/>
			<point x="247" y="368"/>
			<point x="247" y="338" type="curve" smooth="yes"/>
			<point x="247" y="0" type="line"/>
			<point x="362" y="0" type="line"/>
			<point x="362" y="335" type="line"/>
			<point x="376" y="367"/>
			<point x="389" y="383"/>
			<point x="407" y="383" type="curve" smooth="yes"/>
			<point x="427" y="383"/>
			<point x="434" y="368"/>
			<point x="434" y="338" type="curve" smooth="yes"/>
			<point x="434" y="0" type="line"/>
			<point x="574" y="0" type="line"/>
			<point x="574" y="348" type="line" smooth="yes"/>
			<point x="574" y="447"/>
			<point x="534" y="508"/>
			<point x="463" y="508" type="curve" smooth="yes"/>
			<point x="406" y="508"/>
			<point x="371" y="472"/>
			<point x="353" y="427" type="curve"/>
			<point x="341" y="480"/>
			<point x="310" y="508"/>
			<point x="267" y="508" type="curve" smooth="yes"/>
			<point x="210" y="508"/>
			<point x="178" y="475"/>
			<point x="160" y="435" type="curve"/>
			<point x="156" y="435" type="line"/>
			<point x="146" y="496" type="line"/>
			<point x="35" y="496" type="line"/>
		</contour>
		<contour>
			<point name="aboveLC" x="321" y="520" type="move"/>
		</contour>
		<contour>
			<point name="baseLC" x="508" y="0" type="move"/>
		</contour>
		<contour>
			<point name="belowLC" x="302" y="-20" type="move"/>
		</contour>
	</outline>
</glyph>
<glyph name="n" format="1">
	<unicode hex="006E"/>
	<advance width="600"/>
	<outline>
		<contour>
			<point x="72" y="0" type="line"/>
			<point x="219" y="0" type="line"/>
			<point x="219" y="331" type="line"/>
			<point x="254" y="365"/>
			<point x="280" y="383"/>
			<point x="320" y="383" type="curve" smooth="yes"/>
			<point x="374" y="383"/>
			<point x="393" y="353"/>
			<point x="393" y="287" type="curve" smooth="yes"/>
			<point x="393" y="0" type="line"/>
			<point x="540" y="0" type="line"/>
			<point x="540" y="306" type="line" smooth="yes"/>
			<point x="540" y="431"/>
			<point x="490" y="508"/>
			<point x="378" y="508" type="curve" smooth="yes"/>
			<point x="304" y="508"/>
			<point x="250" y="472"/>
			<point x="207" y="430" type="curve"/>
			<point x="203" y="430" type="line"/>
			<point x="192" y="496" type="line"/>
			<point x="72" y="496" type="line"/>
		</contour>
		<contour>
			<point name="aboveLC" x="315" y="516" type="move"/>
		</contour>
		<contour>
			<point name="baseLC" x="470" y="0" type="move"/>
		</contour>
		<contour>
			<point name="belowLC" x="306" y="-20" type="move"/>
		</contour>
	</outline>
</glyph>
<glyph name="o" format="1">
	<unicode hex="006F"/>
	<advance width="600"/>
	<outline>
		<contour>
			<point x="300" y="-12" type="curve" smooth="yes"/>
			<point x="431" y="-12"/>
			<point x="553" y="83"/>
			<point x="553" y="248" type="curve" smooth="yes"/>
			<point x="553" y="413"/>
			<point x="431" y="508"/>
			<point x="300" y="508" type="curve" smooth="yes"/>
			<point x="169" y="508"/>
			<point x="47" y="413"/>
			<point x="47" y="248" type="curve" smooth="yes"/>
			<point x="47" y="83"/>
			<point x="169" y="-12"/>
		</contour>
		<contour>
			<point x="300" y="107" type="curve" smooth="yes"/>
			<point x="232" y="107"/>
			<point x="198" y="162"/>
			<point x="198" y="248" type="curve" smooth="yes"/>
			<point x="198" y="334"/>
			<point x="232" y="389"/>
			<point x="300" y="389" type="curve" smooth="yes"/>
			<point x="368" y="389"/>
			<point x="402" y="334"/>
			<point x="402" y="248" type="curve" smooth="yes"/>
			<point x="402" y="162"/>
			<point x="368" y="107"/>
		</contour>
		<contour>
			<point name="hornLC" x="413" y="496" type="move"/>
		</contour>
		<contour>
			<point name="aboveLC" x="300" y="516" type="move"/>
		</contour>
		<contour>
			<point name="ogonekLC" x="300" y="0" type="move"/>
		</contour>
		<contour>
			<point name="baseLC" x="300" y="0" type="move"/>
		</contour>
		<contour>
			<point name="belowLC" x="300" y="-20" type="move"/>
		</contour>
	</outline>
</glyph>
<glyph name="p" format="1">
	<unicode hex="0070"/>
	<advance width="600"/>
	<outline>
		<contour>
			<point x="72" y="-184" type="line"/>
			<point x="219" y="-184" type="line"/>
			<point x="219" y="-39" type="line"/>
			<point x="212" y="42" type="line"/>
			<point x="216" y="42" type="line"/>
			<point x="251" y="7"/>
			<point x="294" y="-12"/>
			<point x="338" y="-12" type="curve" smooth="yes"/>
			<point x="449" y="-12"/>
			<point x="553" y="86"/>
			<point x="553" y="256" type="curve" smooth="yes"/>
			<point x="553" y="409"/>
			<point x="478" y="508"/>
			<point x="354" y="508" type="curve" smooth="yes"/>
			<point x="301" y="508"/>
			<point x="246" y="482"/>
			<point x="206" y="446" type="curve"/>
			<point x="203" y="446" type="line"/>
			<point x="192" y="496" type="line"/>
			<point x="72" y="496" type="line"/>
		</contour>
		<contour>
			<point x="304" y="108" type="curve" smooth="yes"/>
			<point x="279" y="108"/>
			<point x="247" y="117"/>
			<point x="219" y="141" type="curve"/>
			<point x="219" y="342" type="line"/>
			<point x="250" y="374"/>
			<point x="279" y="388"/>
			<point x="311" y="388" type="curve" smooth="yes"/>
			<point x="373" y="388"/>
			<point x="402" y="343"/>
			<point x="402" y="254" type="curve" smooth="yes"/>
			<point x="402" y="152"/>
			<point x="359" y="108"/>
		</contour>
		<contour>
			<point name="aboveLC" x="323" y="516" type="move"/>
		</contour>
		<contour>
			<point name="belowLC" x="146" y="-205" type="move"/>
		</contour>
	</outline>
</glyph>
<glyph name="r" format="1">
	<unicode hex="0072"/>
	<advance width="600"/>
	<outline>
		<contour>
			<point x="116" y="0" type="line"/>
			<point x="263" y="0" type="line"/>
			<point x="263" y="258" type="line"/>
			<point x="305" y="347"/>
			<point x="369" y="379"/>
			<point x="430" y="379" type="curve" smooth="yes"/>
			<point x="467" y="379"/>
			<point x="487" y="374"/>
			<point x="518" y="365" type="curve"/>
			<point x="548" y="488" type="line"/>
			<point x="519" y="501"/>
			<point x="496" y="508"/>
			<point x="452" y="508" type="curve" smooth="yes"/>
			<point x="373" y="508"/>
			<point x="300" y="469"/>
			<point x="251" y="388" type="curve"/>
			<point x="248" y="388" type="line"/>
			<point x="236" y="496" type="line"/>
			<point x="116" y="496" type="line"/>
		</contour>
		<contour>
			<point name="aboveLC" x="352" y="516" type="move"/>
		</contour>
		<contour>
			<point name="baseLC" x="191" y="0" type="move"/>
		</contour>
		<contour>
			<point name="belowLC" x="193" y="-20" type="move"/>
		</contour>
	</outline>
</glyph>
<glyph name="y" format="1">
	<unicode hex="0079"/>
	<advance width="600"/>
	<outline>
		<contour>
			<point x="143" y="-194" type="curve" smooth="yes"/>
			<point x="268" y="-194"/>
			<point x="327" y="-130"/>
			<point x="375" y="-5" type="curve"/>
			<point x="571" y="496" type="line"/>
			<point x="432" y="496" type="line"/>
			<point x="359" y="283" type="line" smooth="yes"/>
			<point x="344" y="234"/>
			<point x="327" y="183"/>
			<point x="314" y="134" type="curve"/>
			<point x="310" y="134" type="line"/>
			<point x="294" y="186"/>
			<point x="278" y="236"/>
			<point x="260" y="283" type="curve" smooth="yes"/>
			<point x="177" y="496" type="line"/>
			<point x="31" y="496" type="line"/>
			<point x="246" y="13" type="line"/>
			<point x="236" y="-13" type="line" smooth="yes"/>
			<point x="220" y="-52"/>
			<point x="189" y="-78"/>
			<point x="132" y="-78" type="curve" smooth="yes"/>
			<point x="119" y="-78"/>
			<point x="106" y="-76"/>
			<point x="93" y="-72" type="curve"/>
			<point x="67" y="-184" type="line"/>
			<point x="88" y="-190"/>
			<point x="114" y="-194"/>
		</contour>
		<contour>
			<point name="ogonekLC" x="289" y="-87" type="move"/>
		</contour>
		<contour>
			<point name="aboveLC" x="308" y="516" type="move"/>
		</contour>
		<contour>
			<point name="belowLC" x="268" y="-205" type="move"/>
		</contour>
	</outline>
</glyph>
<glyph name="z" format="2">
	<unicode hex="007A"/>
	<advance width="600"/>
	<outline>
		<contour>
			<point x="70" y="0" type="line"/>
			<point x="540" y="0" type="line"/>
			<point x="540" y="115" type="line"/>
			<point x="273" y="115" type="line"/>
			<point x="533" y="418" type="line"/>
			<point x="533" y="496" type="line"/>
			<point x="101" y="496" type="line"/>
			<point x="101" y="381" type="line"/>
			<point x="329" y="381" type="line"/>
			<point x="70" y="79" type="line"/>
		</contour>
	</outline>
	<anchor name="aboveLC" x="328" y="516"/>
	<anchor name="baseLC" x="320" y="0"/>
	<anchor name="belowLC" x="311" y="-20"/>
</glyph>
<glyph name="asciitilde" format="1">
	<unicode hex="007E"/>
	<advance width="600"/>
	<outline>
		<contour>
			<point x="385" y="240" type="curve" smooth="yes"/>
			<point x="447" y="240"/>
			<point x="506" y="281"/>
			<point x="548" y="385" type="curve"/>
			<point x="460" y="426" type="line"/>
			<point x="441" y="370"/>
			<point x="415" y="344"/>
			<point x="387" y="344" type="curve" smooth="yes"/>
			<point x="332" y="344"/>
			<point x="298" y="420"/>
			<point x="215" y="420" type="curve" smooth="yes"/>
			<point x="153" y="420"/>
			<point x="94" y="379"/>
			<point x="52" y="275" type="curve"/>
			<point x="140" y="234" type="line"/>
			<point x="159" y="289"/>
			<point x="186" y="316"/>
			<point x="213" y="316" type="curve" smooth="yes"/>
			<point x="268" y="316"/>
			<point x="302" y="240"/>
		</contour>
	</outline>
</glyph>
<glyph name="copyright" format="1">
	<unicode hex="00A9"/>
	<advance width="600"/>
	<outline>
		<contour>
			<point x="300" y="-9" type="curve" smooth="yes"/>
			<point x="452" y="-9"/>
			<point x="581" y="118"/>
			<point x="581" y="325" type="curve" smooth="yes"/>
			<point x="581" y="532"/>
			<point x="452" y="655"/>
			<point x="300" y="655" type="curve" smooth="yes"/>
			<point x="148" y="655"/>
			<point x="19" y="532"/>
			<point x="19" y="325" type="curve" smooth="yes"/>
			<point x="19" y="118"/>
			<point x="148" y="-9"/>
		</contour>
		<contour>
			<point x="300" y="52" type="curve" smooth="yes"/>
			<point x="170" y="52"/>
			<point x="83" y="161"/>
			<point x="83" y="325" type="curve" smooth="yes"/>
			<point x="83" y="489"/>
			<point x="170" y="595"/>
			<point x="300" y="595" type="curve" smooth="yes"/>
			<point x="430" y="595"/>
			<point x="517" y="489"/>
			<point x="517" y="325" type="curve" smooth="yes"/>
			<point x="517" y="161"/>
			<point x="430" y="52"/>
		</contour>
		<contour>
			<point x="312" y="127" type="curve" smooth="yes"/>
			<point x="356" y="127"/>
			<point x="392" y="144"/>
			<point x="423" y="169" type="curve"/>
			<point x="376" y="237" type="line"/>
			<point x="357" y="223"/>
			<point x="341" y="213"/>
			<point x="316" y="213" type="curve" smooth="yes"/>
			<point x="272" y="213"/>
			<point x="245" y="256"/>
			<point x="245" y="324" type="curve" smooth="yes"/>
			<point x="245" y="383"/>
			<point x="272" y="430"/>
			<point x="321" y="430" type="curve" smooth="yes"/>
			<point x="340" y="430"/>
			<point x="354" y="421"/>
			<point x="369" y="406" type="curve"/>
			<point x="424" y="467" type="line"/>
			<point x="397" y="494"/>
			<point x="364" y="516"/>
			<point x="312" y="516" type="curve" smooth="yes"/>
			<point x="221" y="516"/>
			<point x="139" y="441"/>
			<point x="139" y="324" type="curve" smooth="yes"/>
			<point x="139" y="203"/>
			<point x="212" y="127"/>
		</contour>
	</outline>
</glyph>
<glyph name="plusminus" format="1">
	<unicode hex="00B1"/>
	<advance width="600"/>
	<outline>
		<contour>
			<point x="246" y="158" type="line"/>
			<point x="354" y="158" type="line"/>
			<point x="354" y="294" type="line"/>
			<point x="530" y="294" type="line"/>
			<point x="530" y="398" type="line"/>
			<point x="354" y="398" type="line"/>
			<point x="354" y="566" type="line"/>
			<point x="246" y="566" type="line"/>
			<point x="246" y="398" type="line"/>
			<point x="70" y="398" type="line"/>
			<point x="70" y="294" type="line"/>
			<point x="246" y="294" type="line"/>
		</contour>
		<contour>
			<point x="70" y="0" type="line"/>
			<point x="530" y="0" type="line"/>
			<point x="530" y="104" type="line"/>
			<point x="70" y="104" type="line"/>
		</contour>
	</outline>
</glyph>
<glyph name="AE" format="1">
	<unicode hex="00C6"/>
	<advance width="600"/>
	<outline>
		<contour>
			<point x="-3" y="0" type="line"/>
			<point x="148" y="0" type="line"/>
			<point x="255" y="356" type="line" smooth="yes"/>
			<point x="271" y="413"/>
			<point x="291" y="476"/>
			<point x="308" y="541" type="curve"/>
			<point x="311" y="541" type="line"/>
			<point x="311" y="0" type="line"/>
			<point x="595" y="0" type="line"/>
			<point x="595" y="124" type="line"/>
			<point x="441" y="124" type="line"/>
			<point x="441" y="275" type="line"/>
			<point x="559" y="275" type="line"/>
			<point x="559" y="399" type="line"/>
			<point x="441" y="399" type="line"/>
			<point x="441" y="528" type="line"/>
			<point x="586" y="528" type="line"/>
			<point x="586" y="652" type="line"/>
			<point x="215" y="652" type="line"/>
		</contour>
		<contour>
			<point x="132" y="149" type="line"/>
			<point x="368" y="149" type="line"/>
			<point x="368" y="263" type="line"/>
			<point x="132" y="263" type="line"/>
		</contour>
		<contour>
			<point name="aboveUC" x="391" y="672" type="move"/>
		</contour>
		<contour>
			<point name="baseLC" x="468" y="0" type="move"/>
		</contour>
		<contour>
			<point name="belowLC" x="332" y="-20" type="move"/>
		</contour>
	</outline>
</glyph>
<glyph name="Oslash" format="2">
	<unicode hex="00D8"/>
	<advance width="600"/>
	<outline>
		<contour>
			<point x="19" y="10" type="line"/>
			<point x="99" y="-42" type="line"/>
			<point x="580" y="642" type="line"/>
			<point x="500" y="694" type="line"/>
		</contour>
		<component base="O"/>
	</outline>
</glyph>
<glyph name="Thorn" format="1">
	<unicode hex="00DE"/>
	<advance width="600"/>
	<outline>
		<contour>
			<point x="73" y="0" type="line"/>
			<point x="220" y="0" type="line"/>
			<point x="220" y="123" type="line"/>
			<point x="311" y="123" type="line" smooth="yes"/>
			<point x="449" y="123"/>
			<point x="566" y="190"/>
			<point x="566" y="344" type="curve" smooth="yes"/>
			<point x="566" y="502"/>
			<point x="452" y="553"/>
			<point x="311" y="553" type="curve" smooth="yes"/>
			<point x="220" y="553" type="line"/>
			<point x="220" y="652" type="line"/>
			<point x="73" y="652" type="line"/>
		</contour>
		<contour>
			<point x="220" y="240" type="line"/>
			<point x="220" y="436" type="line"/>
			<point x="302" y="436" type="line" smooth="yes"/>
			<point x="380" y="436"/>
			<point x="421" y="412"/>
			<point x="421" y="344" type="curve" smooth="yes"/>
			<point x="421" y="276"/>
			<point x="383" y="240"/>
			<point x="302" y="240" type="curve" smooth="yes"/>
		</contour>
	</outline>
</glyph>
<glyph name="germandbls" format="2">
	<unicode hex="00DF"/>
	<advance width="600"/>
	<outline>
		<contour>
			<point x="397" y="-12" type="curve" smooth="yes"/>
			<point x="511" y="-12"/>
			<point x="571" y="61"/>
			<point x="571" y="152" type="curve" smooth="yes"/>
			<point x="571" y="297"/>
			<point x="416" y="302"/>
			<point x="416" y="368" type="curve" smooth="yes"/>
			<point x="416" y="419"/>
			<point x="477" y="449"/>
			<point x="477" y="544" type="curve" smooth="yes"/>
			<point x="477" y="630"/>
			<point x="417" y="713"/>
			<point x="288" y="713" type="curve" smooth="yes"/>
			<point x="135" y="713"/>
			<point x="61" y="619"/>
			<point x="61" y="495" type="curve" smooth="yes"/>
			<point x="61" y="0" type="line"/>
			<point x="208" y="0" type="line"/>
			<point x="208" y="486" type="line" smooth="yes"/>
			<point x="208" y="554"/>
			<point x="233" y="597"/>
			<point x="287" y="597" type="curve" smooth="yes"/>
			<point x="320" y="597"/>
			<point x="340" y="570"/>
			<point x="340" y="536" type="curve" smooth="yes"/>
			<point x="340" y="459"/>
			<point x="280" y="430"/>
			<point x="280" y="350" type="curve" smooth="yes"/>
			<point x="280" y="218"/>
			<point x="435" y="216"/>
			<point x="435" y="140" type="curve" smooth="yes"/>
			<point x="435" y="114"/>
			<point x="418" y="97"/>
			<point x="392" y="97" type="curve" smooth="yes"/>
			<point x="365" y="97"/>
			<point x="338" y="105"/>
			<point x="307" y="125" type="curve"/>
			<point x="258" y="25" type="line"/>
			<point x="303" y="1"/>
			<point x="342" y="-12"/>
		</contour>
	</outline>
</glyph>
<glyph name="ae" format="1">
	<unicode hex="00E6"/>
	<advance width="600"/>
	<outline>
		<contour>
			<point x="149" y="-12" type="curve" smooth="yes"/>
			<point x="205" y="-12"/>
			<point x="257" y="15"/>
			<point x="315" y="88" type="curve"/>
			<point x="274" y="154" type="line"/>
			<point x="241" y="113"/>
			<point x="215" y="102"/>
			<point x="194" y="102" type="curve" smooth="yes"/>
			<point x="167" y="102"/>
			<point x="147" y="118"/>
			<point x="147" y="148" type="curve" smooth="yes"/>
			<point x="147" y="187"/>
			<point x="174" y="221"/>
			<point x="267" y="230" type="curve"/>
			<point x="267" y="317" type="line"/>
			<point x="97" y="298"/>
			<point x="16" y="239"/>
			<point x="16" y="130" type="curve" smooth="yes"/>
			<point x="16" y="47"/>
			<point x="70" y="-12"/>
		</contour>
		<contour>
			<point x="445" y="-12" type="curve" smooth="yes"/>
			<point x="487" y="-12"/>
			<point x="540" y="5"/>
			<point x="578" y="35" type="curve"/>
			<point x="527" y="130" type="line"/>
			<point x="501" y="112"/>
			<point x="477" y="103"/>
			<point x="451" y="103" type="curve" smooth="yes"/>
			<point x="394" y="103"/>
			<point x="352" y="151"/>
			<point x="352" y="248" type="curve" smooth="yes"/>
			<point x="352" y="357"/>
			<point x="389" y="396"/>
			<point x="424" y="396" type="curve" smooth="yes"/>
			<point x="462" y="396"/>
			<point x="478" y="362"/>
			<point x="478" y="277" type="curve"/>
			<point x="502" y="297" type="line"/>
			<point x="328" y="297" type="line"/>
			<point x="328" y="204" type="line"/>
			<point x="587" y="204" type="line"/>
			<point x="589" y="218"/>
			<point x="593" y="242"/>
			<point x="593" y="269" type="curve" smooth="yes"/>
			<point x="593" y="399"/>
			<point x="540" y="508"/>
			<point x="436" y="508" type="curve" smooth="yes"/>
			<point x="380" y="508"/>
			<point x="332" y="482"/>
			<point x="293" y="406" type="curve"/>
			<point x="323" y="406" type="line"/>
			<point x="292" y="482"/>
			<point x="250" y="508"/>
			<point x="191" y="508" type="curve" smooth="yes"/>
			<point x="137" y="508"/>
			<point x="84" y="486"/>
			<point x="29" y="453" type="curve"/>
			<point x="81" y="357" type="line"/>
			<point x="116" y="378"/>
			<point x="145" y="391"/>
			<point x="181" y="391" type="curve" smooth="yes"/>
			<point x="216" y="391"/>
			<point x="243" y="371"/>
			<point x="243" y="292" type="curve"/>
			<point x="243" y="222" type="line" smooth="yes"/>
			<point x="243" y="96"/>
			<point x="316" y="-12"/>
		</contour>
		<contour>
			<point name="aboveLC" x="310" y="516" type="move"/>
		</contour>
		<contour>
			<point name="baseLC" x="435" y="0" type="move"/>
		</contour>
		<contour>
			<point name="belowLC" x="308" y="-20" type="move"/>
		</contour>
	</outline>
</glyph>
<glyph name="eth" format="1">
	<unicode hex="00F0"/>
	<advance width="600"/>
	<outline>
		<contour>
			<point x="295" y="-12" type="curve" smooth="yes"/>
			<point x="456" y="-12"/>
			<point x="550" y="105"/>
			<point x="550" y="266" type="curve" smooth="yes"/>
			<point x="550" y="523"/>
			<point x="386" y="654"/>
			<point x="199" y="740" type="curve"/>
			<point x="135" y="651" type="line"/>
			<point x="324" y="561"/>
			<point x="413" y="463"/>
			<point x="413" y="258" type="curve" smooth="yes"/>
			<point x="413" y="158"/>
			<point x="368" y="107"/>
			<point x="300" y="107" type="curve" smooth="yes"/>
			<point x="235" y="107"/>
			<point x="181" y="149"/>
			<point x="181" y="228" type="curve" smooth="yes"/>
			<point x="181" y="308"/>
			<point x="226" y="346"/>
			<point x="298" y="346" type="curve" smooth="yes"/>
			<point x="342" y="346"/>
			<point x="382" y="329"/>
			<point x="418" y="285" type="curve"/>
			<point x="416" y="362" type="line"/>
			<point x="389" y="428"/>
			<point x="329" y="455"/>
			<point x="268" y="455" type="curve" smooth="yes"/>
			<point x="152" y="455"/>
			<point x="47" y="371"/>
			<point x="47" y="228" type="curve" smooth="yes"/>
			<point x="47" y="81"/>
			<point x="160" y="-12"/>
		</contour>
		<contour>
			<point x="148" y="473" type="line"/>
			<point x="520" y="660" type="line"/>
			<point x="480" y="728" type="line"/>
			<point x="108" y="541" type="line"/>
		</contour>
		<contour>
			<point name="aboveUC" x="330" y="732" type="move"/>
		</contour>
		<contour>
			<point name="belowLC" x="302" y="-20" type="move"/>
		</contour>
	</outline>
</glyph>
<glyph name="thorn" format="1">
	<unicode hex="00FE"/>
	<advance width="600"/>
	<outline>
		<contour>
			<point x="72" y="-184" type="line"/>
			<point x="219" y="-184" type="line"/>
			<point x="219" y="-39" type="line"/>
			<point x="214" y="42" type="line"/>
			<point x="217" y="42" type="line"/>
			<point x="248" y="11"/>
			<point x="290" y="-12"/>
			<point x="339" y="-12" type="curve" smooth="yes"/>
			<point x="447" y="-12"/>
			<point x="553" y="86"/>
			<point x="553" y="256" type="curve" smooth="yes"/>
			<point x="553" y="409"/>
			<point x="477" y="508"/>
			<point x="354" y="508" type="curve" smooth="yes"/>
			<point x="304" y="508"/>
			<point x="255" y="487"/>
			<point x="217" y="451" type="curve"/>
			<point x="214" y="451" type="line"/>
			<point x="219" y="528" type="line"/>
			<point x="219" y="701" type="line"/>
			<point x="72" y="701" type="line"/>
		</contour>
		<contour>
			<point x="304" y="108" type="curve" smooth="yes"/>
			<point x="279" y="108"/>
			<point x="246" y="117"/>
			<point x="219" y="141" type="curve"/>
			<point x="219" y="342" type="line"/>
			<point x="250" y="374"/>
			<point x="280" y="388"/>
			<point x="310" y="388" type="curve" smooth="yes"/>
			<point x="374" y="388"/>
			<point x="402" y="343"/>
			<point x="402" y="254" type="curve" smooth="yes"/>
			<point x="402" y="152"/>
			<point x="357" y="108"/>
		</contour>
		<contour>
			<point name="aboveUC" x="146" y="732" type="move"/>
		</contour>
		<contour>
			<point name="belowLC" x="146" y="-205" type="move"/>
		</contour>
	</outline>
</glyph>
<glyph name="dcaron" format="1">
	<unicode hex="010F"/>
	<advance width="600"/>
	<outline>
		<contour>
			<point x="219" y="-12" type="curve" smooth="yes"/>
			<point x="262" y="-12"/>
			<point x="305" y="17"/>
			<point x="339" y="51" type="curve"/>
			<point x="343" y="51" type="line"/>
			<point x="354" y="0" type="line"/>
			<point x="465" y="0" type="line"/>
			<point x="465" y="701" type="line"/>
			<point x="327" y="701" type="line"/>
			<point x="327" y="532" type="line"/>
			<point x="333" y="455" type="line"/>
			<point x="330" y="455" type="line"/>
			<point x="298" y="487"/>
			<point x="268" y="508"/>
			<point x="221" y="508" type="curve" smooth="yes"/>
			<point x="126" y="508"/>
			<point x="34" y="410"/>
			<point x="34" y="248" type="curve" smooth="yes"/>
			<point x="34" y="86"/>
			<point x="107" y="-12"/>
		</contour>
		<contour>
			<point x="256" y="108" type="curve" smooth="yes"/>
			<point x="206" y="108"/>
			<point x="176" y="152"/>
			<point x="176" y="250" type="curve" smooth="yes"/>
			<point x="176" y="344"/>
			<point x="215" y="388"/>
			<point x="260" y="388" type="curve" smooth="yes"/>
			<point x="283" y="388"/>
			<point x="302" y="377"/>
			<point x="327" y="355" type="curve"/>
			<point x="327" y="154" type="line"/>
			<point x="302" y="123"/>
			<point x="283" y="108"/>
		</contour>
		<component base="caron.a" xOffset="268"/>
	</outline>
</glyph>
<glyph name="dcroat" format="2">
	<unicode hex="0111"/>
	<advance width="600"/>
	<outline>
		<contour>
			<point x="257" y="-12" type="curve" smooth="yes"/>
			<point x="306" y="-12"/>
			<point x="357" y="15"/>
			<point x="394" y="51" type="curve"/>
			<point x="397" y="51" type="line"/>
			<point x="408" y="0" type="line"/>
			<point x="528" y="0" type="line"/>
			<point x="528" y="700" type="line"/>
			<point x="381" y="700" type="line"/>
			<point x="381" y="511" type="line"/>
			<point x="388" y="434" type="line"/>
			<point x="384" y="434" type="line"/>
			<point x="352" y="467"/>
			<point x="315" y="488"/>
			<point x="259" y="488" type="curve" smooth="yes"/>
			<point x="152" y="488"/>
			<point x="47" y="394"/>
			<point x="47" y="238" type="curve" smooth="yes"/>
			<point x="47" y="82"/>
			<point x="130" y="-12"/>
		</contour>
		<contour>
			<point x="294" y="108" type="curve" smooth="yes"/>
			<point x="233" y="108"/>
			<point x="198" y="149"/>
			<point x="198" y="239" type="curve" smooth="yes"/>
			<point x="198" y="327"/>
			<point x="244" y="368"/>
			<point x="300" y="368" type="curve" smooth="yes"/>
			<point x="327" y="368"/>
			<point x="354" y="358"/>
			<point x="381" y="335" type="curve"/>
			<point x="381" y="155" type="line"/>
			<point x="355" y="121"/>
			<point x="327" y="108"/>
		</contour>
		<contour>
			<point x="225" y="553" type="line"/>
			<point x="520" y="553" type="line"/>
			<point x="594" y="559" type="line"/>
			<point x="594" y="629" type="line"/>
			<point x="225" y="629" type="line"/>
		</contour>
	</outline>
</glyph>
<glyph name="Eogonek" format="1">
	<unicode hex="0118"/>
	<advance width="600"/>
	<outline>
		<contour>
			<point x="449" y="-227" type="curve" smooth="yes"/>
			<point x="487" y="-227"/>
			<point x="530" y="-211"/>
			<point x="557" y="-190" type="curve"/>
			<point x="522" y="-116" type="line"/>
			<point x="512" y="-123"/>
			<point x="498" y="-132"/>
			<point x="484" y="-132" type="curve" smooth="yes"/>
			<point x="462" y="-132"/>
			<point x="440" y="-120"/>
			<point x="440" y="-93" type="curve" smooth="yes"/>
			<point x="440" y="-48"/>
			<point x="482" y="-2"/>
			<point x="529" y="0" type="curve"/>
			<point x="534" y="0" type="line"/>
			<point x="534" y="124" type="line"/>
			<point x="241" y="124" type="line"/>
			<point x="241" y="274" type="line"/>
			<point x="481" y="274" type="line"/>
			<point x="481" y="397" type="line"/>
			<point x="241" y="397" type="line"/>
			<point x="241" y="528" type="line"/>
			<point x="524" y="528" type="line"/>
			<point x="524" y="652" type="line"/>
			<point x="94" y="652" type="line"/>
			<point x="94" y="0" type="line"/>
			<point x="414" y="0" type="line"/>
			<point x="378" y="-22"/>
			<point x="332" y="-69"/>
			<point x="332" y="-131" type="curve" smooth="yes"/>
			<point x="332" y="-193"/>
			<point x="384" y="-227"/>
		</contour>
		<contour>
			<point name="aboveUC" x="322" y="672" type="move"/>
		</contour>
	</outline>
</glyph>
<glyph name="eogonek" format="2">
	<unicode hex="0119"/>
	<advance width="600"/>
	<outline>
		<contour>
			<point x="415" y="-227" type="curve" smooth="yes"/>
			<point x="452" y="-227"/>
			<point x="499" y="-214"/>
			<point x="528" y="-191" type="curve"/>
			<point x="496" y="-125" type="line"/>
			<point x="484" y="-134"/>
			<point x="468" y="-140"/>
			<point x="450" y="-140" type="curve" smooth="yes"/>
			<point x="421" y="-140"/>
			<point x="397" y="-125"/>
			<point x="397" y="-94" type="curve" smooth="yes"/>
			<point x="397" y="-51"/>
			<point x="425" y="-22"/>
			<point x="527" y="46" type="curve"/>
			<point x="478" y="135" type="line"/>
			<point x="434" y="112"/>
			<point x="395" y="100"/>
			<point x="350" y="100" type="curve" smooth="yes"/>
			<point x="254" y="100"/>
			<point x="198" y="145"/>
			<point x="198" y="248" type="curve" smooth="yes"/>
			<point x="198" y="347"/>
			<point x="245" y="396"/>
			<point x="318" y="396" type="curve" smooth="yes"/>
			<point x="383" y="396"/>
			<point x="418" y="354"/>
			<point x="418" y="275" type="curve"/>
			<point x="441" y="303" type="line"/>
			<point x="164" y="303" type="line"/>
			<point x="164" y="204" type="line"/>
			<point x="540" y="204" type="line"/>
			<point x="542" y="216"/>
			<point x="547" y="243"/>
			<point x="547" y="270" type="curve" smooth="yes"/>
			<point x="547" y="405"/>
			<point x="466" y="508"/>
			<point x="313" y="508" type="curve" smooth="yes"/>
			<point x="180" y="508"/>
			<point x="55" y="411"/>
			<point x="55" y="248" type="curve" smooth="yes"/>
			<point x="55" y="83"/>
			<point x="175" y="-12"/>
			<point x="330" y="-12" type="curve" smooth="yes"/>
			<point x="342" y="-12"/>
			<point x="365" y="-11"/>
			<point x="397" y="-1" type="curve"/>
			<point x="389" y="11" type="line"/>
			<point x="332" y="-33"/>
			<point x="298" y="-73"/>
			<point x="298" y="-128" type="curve" smooth="yes"/>
			<point x="298" y="-194"/>
			<point x="347" y="-227"/>
		</contour>
	</outline>
</glyph>
<glyph name="Iogonek" format="1">
	<unicode hex="012E"/>
	<advance width="600"/>
	<outline>
		<contour>
			<point x="307" y="-227" type="curve" smooth="yes"/>
			<point x="345" y="-227"/>
			<point x="388" y="-211"/>
			<point x="415" y="-190" type="curve"/>
			<point x="381" y="-116" type="line"/>
			<point x="372" y="-123"/>
			<point x="357" y="-132"/>
			<point x="342" y="-132" type="curve" smooth="yes"/>
			<point x="320" y="-132"/>
			<point x="298" y="-120"/>
			<point x="298" y="-93" type="curve" smooth="yes"/>
			<point x="298" y="-59"/>
			<point x="319" y="-24"/>
			<point x="375" y="0" type="curve"/>
			<point x="526" y="0" type="line"/>
			<point x="526" y="124" type="line"/>
			<point x="374" y="124" type="line"/>
			<point x="374" y="528" type="line"/>
			<point x="526" y="528" type="line"/>
			<point x="526" y="652" type="line"/>
			<point x="74" y="652" type="line"/>
			<point x="74" y="528" type="line"/>
			<point x="226" y="528" type="line"/>
			<point x="226" y="124" type="line"/>
			<point x="74" y="124" type="line"/>
			<point x="74" y="0" type="line"/>
			<point x="266" y="0" type="line"/>
			<point x="237" y="-22"/>
			<point x="191" y="-68"/>
			<point x="191" y="-131" type="curve" smooth="yes"/>
			<point x="191" y="-193"/>
			<point x="242" y="-227"/>
		</contour>
		<contour>
			<point name="aboveUC" x="300" y="672" type="move"/>
		</contour>
	</outline>
</glyph>
<glyph name="kgreenlandic" format="1">
	<unicode hex="0138"/>
	<advance width="600"/>
	<outline>
		<contour>
			<point x="76" y="0" type="line"/>
			<point x="223" y="0" type="line"/>
			<point x="223" y="123" type="line"/>
			<point x="297" y="195" type="line"/>
			<point x="426" y="0" type="line"/>
			<point x="585" y="0" type="line"/>
			<point x="382" y="292" type="line"/>
			<point x="570" y="496" type="line"/>
			<point x="409" y="496" type="line"/>
			<point x="226" y="300" type="line"/>
			<point x="223" y="299" type="line"/>
			<point x="223" y="496" type="line"/>
			<point x="76" y="496" type="line"/>
		</contour>
	</outline>
</glyph>
<glyph name="Lslash" format="2">
	<unicode hex="0141"/>
	<advance width="600"/>
	<outline>
		<contour>
			<point x="43" y="170" type="line"/>
			<point x="123" y="217" type="line"/>
			<point x="239" y="267" type="line"/>
			<point x="483" y="401" type="line"/>
			<point x="434" y="489" type="line"/>
			<point x="239" y="381" type="line"/>
			<point x="123" y="331" type="line"/>
			<point x="-7" y="258" type="line"/>
		</contour>
		<component base="L"/>
	</outline>
	<anchor name="aboveUC" x="193" y="672"/>
	<anchor name="belowLC" x="335" y="-20"/>
</glyph>
<glyph name="lslash" format="2">
	<unicode hex="0142"/>
	<advance width="600"/>
	<outline>
		<contour>
			<point x="121" y="230" type="line"/>
			<point x="213" y="283" type="line"/>
			<point x="325" y="333" type="line"/>
			<point x="525" y="442" type="line"/>
			<point x="475" y="534" type="line"/>
			<point x="325" y="450" type="line"/>
			<point x="213" y="400" type="line"/>
			<point x="71" y="321" type="line"/>
		</contour>
		<component base="l"/>
	</outline>
	<anchor name="aboveUC" x="274" y="732"/>
	<anchor name="belowLC" x="367" y="-20"/>
</glyph>
<glyph name="Eng" format="2">
	<unicode hex="014A"/>
	<advance width="600"/>
	<outline>
		<contour>
			<point x="361" y="-12" type="curve" smooth="yes"/>
			<point x="504" y="-12"/>
			<point x="556" y="99"/>
			<point x="556" y="331" type="curve" smooth="yes"/>
			<point x="556" y="574"/>
			<point x="468" y="664"/>
			<point x="352" y="664" type="curve" smooth="yes"/>
			<point x="294" y="664"/>
			<point x="248" y="637"/>
			<point x="208" y="590" type="curve"/>
			<point x="208" y="652" type="line"/>
			<point x="65" y="652" type="line"/>
			<point x="65" y="0" type="line"/>
			<point x="213" y="0" type="line"/>
			<point x="213" y="463" type="line"/>
			<point x="240" y="511"/>
			<point x="279" y="537"/>
			<point x="314" y="537" type="curve" smooth="yes"/>
			<point x="371" y="537"/>
			<point x="405" y="481"/>
			<point x="405" y="331" type="curve" smooth="yes"/>
			<point x="405" y="162"/>
			<point x="384" y="125"/>
			<point x="344" y="125" type="curve" smooth="yes"/>
			<point x="330" y="125"/>
			<point x="320" y="129"/>
			<point x="311" y="133" type="curve"/>
			<point x="279" y="5" type="line"/>
			<point x="297" y="-6"/>
			<point x="334" y="-12"/>
		</contour>
	</outline>
	<anchor name="aboveUC" x="319" y="672"/>
	<anchor name="belowLC" x="302" y="-20"/>
</glyph>
<glyph name="tbar" format="1">
	<unicode hex="0167"/>
	<advance width="600"/>
	<outline>
		<contour>
			<point x="50" y="217" type="line"/>
			<point x="511" y="217" type="line"/>
			<point x="511" y="293" type="line"/>
			<point x="185" y="293" type="line"/>
			<point x="50" y="287" type="line"/>
		</contour>
		<component base="t"/>
		<contour>
			<point name="aboveLC" x="263" y="658" type="move"/>
		</contour>
		<contour>
			<point name="belowLC" x="368" y="-20" type="move"/>
		</contour>
	</outline>
</glyph>
<glyph name="Uogonek" format="2">
	<unicode hex="0172"/>
	<advance width="600"/>
	<outline>
		<contour>
			<point x="322" y="-227" type="curve" smooth="yes"/>
			<point x="360" y="-227"/>
			<point x="403" y="-211"/>
			<point x="430" y="-190" type="curve"/>
			<point x="395" y="-116" type="line"/>
			<point x="386" y="-123"/>
			<point x="372" y="-132"/>
			<point x="357" y="-132" type="curve" smooth="yes"/>
			<point x="335" y="-132"/>
			<point x="313" y="-120"/>
			<point x="313" y="-93" type="curve" smooth="yes"/>
			<point x="313" y="-63"/>
			<point x="328" y="-30"/>
			<point x="408" y="7" type="curve" smooth="yes"/>
			<point x="495" y="47"/>
			<point x="536" y="126"/>
			<point x="536" y="251" type="curve" smooth="yes"/>
			<point x="536" y="652" type="line"/>
			<point x="394" y="652" type="line"/>
			<point x="394" y="236" type="line" smooth="yes"/>
			<point x="394" y="158"/>
			<point x="363" y="115"/>
			<point x="301" y="115" type="curve" smooth="yes"/>
			<point x="240" y="115"/>
			<point x="211" y="158"/>
			<point x="211" y="236" type="curve" smooth="yes"/>
			<point x="211" y="652" type="line"/>
			<point x="64" y="652" type="line"/>
			<point x="64" y="251" type="line" smooth="yes"/>
			<point x="64" y="92"/>
			<point x="135" y="0"/>
			<point x="271" y="-10" type="curve"/>
			<point x="253" y="-26"/>
			<point x="206" y="-69"/>
			<point x="206" y="-131" type="curve" smooth="yes"/>
			<point x="206" y="-193"/>
			<point x="257" y="-227"/>
		</contour>
	</outline>
	<anchor name="aboveUC" x="300" y="672"/>
</glyph>
<glyph name="uogonek" format="1">
	<unicode hex="0173"/>
	<advance width="600"/>
	<outline>
		<contour>
			<point x="436" y="-227" type="curve" smooth="yes"/>
			<point x="473" y="-227"/>
			<point x="520" y="-214"/>
			<point x="548" y="-191" type="curve"/>
			<point x="517" y="-126" type="line"/>
			<point x="507" y="-134"/>
			<point x="489" y="-140"/>
			<point x="471" y="-140" type="curve" smooth="yes"/>
			<point x="444" y="-140"/>
			<point x="418" y="-125"/>
			<point x="418" y="-94" type="curve" smooth="yes"/>
			<point x="418" y="-61"/>
			<point x="448" y="-23"/>
			<point x="525" y="-1" type="curve"/>
			<point x="525" y="496" type="line"/>
			<point x="378" y="496" type="line"/>
			<point x="378" y="170" type="line"/>
			<point x="344" y="126"/>
			<point x="318" y="113"/>
			<point x="281" y="113" type="curve" smooth="yes"/>
			<point x="226" y="113"/>
			<point x="209" y="143"/>
			<point x="209" y="209" type="curve" smooth="yes"/>
			<point x="209" y="496" type="line"/>
			<point x="62" y="496" type="line"/>
			<point x="62" y="190" type="line" smooth="yes"/>
			<point x="62" y="65"/>
			<point x="110" y="-12"/>
			<point x="223" y="-12" type="curve" smooth="yes"/>
			<point x="294" y="-12"/>
			<point x="346" y="21"/>
			<point x="390" y="71" type="curve"/>
			<point x="394" y="71" type="line"/>
			<point x="406" y="-3" type="line"/>
			<point x="368" y="-25"/>
			<point x="319" y="-66"/>
			<point x="319" y="-128" type="curve" smooth="yes"/>
			<point x="319" y="-194"/>
			<point x="371" y="-227"/>
		</contour>
		<contour>
			<point name="aboveLC" x="296" y="516" type="move"/>
		</contour>
	</outline>
</glyph>
<glyph name="Schwa" format="1">
	<unicode hex="018F"/>
	<advance width="600"/>
	<outline>
		<contour>
			<point x="303" y="-12" type="curve" smooth="yes"/>
			<point x="454" y="-12"/>
			<point x="560" y="114"/>
			<point x="560" y="327" type="curve" smooth="yes"/>
			<point x="560" y="540"/>
			<point x="456" y="664"/>
			<point x="300" y="664" type="curve" smooth="yes"/>
			<point x="217" y="664"/>
			<point x="156" y="633"/>
			<point x="111" y="591" type="curve"/>
			<point x="179" y="490" type="line"/>
			<point x="205" y="516"/>
			<point x="242" y="537"/>
			<point x="288" y="537" type="curve" smooth="yes"/>
			<point x="370" y="537"/>
			<point x="414" y="474"/>
			<point x="414" y="327" type="curve" smooth="yes"/>
			<point x="414" y="164"/>
			<point x="367" y="115"/>
			<point x="303" y="115" type="curve" smooth="yes"/>
			<point x="236" y="115"/>
			<point x="192" y="163"/>
			<point x="192" y="327" type="curve"/>
			<point x="172" y="264" type="line"/>
			<point x="451" y="264" type="line"/>
			<point x="451" y="372" type="line"/>
			<point x="53" y="372" type="line"/>
			<point x="51" y="355"/>
			<point x="50" y="339"/>
			<point x="50" y="323" type="curve" smooth="yes"/>
			<point x="50" y="112"/>
			<point x="155" y="-12"/>
		</contour>
		<contour>
			<point name="aboveUC" x="319" y="672" type="move"/>
		</contour>
		<contour>
			<point name="ogonekUC" x="310" y="0" type="move"/>
		</contour>
		<contour>
			<point name="baseLC" x="310" y="0" type="move"/>
		</contour>
		<contour>
			<point name="belowLC" x="308" y="-20" type="move"/>
		</contour>
	</outline>
</glyph>
<glyph name="Istroke" format="2">
	<unicode hex="0197"/>
	<advance width="600"/>
	<outline>
		<contour>
			<point x="131" y="289" type="line"/>
			<point x="468" y="289" type="line"/>
			<point x="468" y="386" type="line"/>
			<point x="232" y="386" type="line"/>
			<point x="131" y="380" type="line"/>
		</contour>
		<component base="I"/>
	</outline>
</glyph>
<glyph name="Uhorn" format="1">
	<unicode hex="01AF"/>
	<advance width="600"/>
	<outline>
		<contour>
			<point x="536" y="598" type="line"/>
			<point x="614" y="612"/>
			<point x="660" y="654"/>
			<point x="660" y="736" type="curve" smooth="yes"/>
			<point x="660" y="776"/>
			<point x="646" y="812"/>
			<point x="631" y="834" type="curve"/>
			<point x="522" y="790" type="line"/>
			<point x="529" y="775"/>
			<point x="537" y="751"/>
			<point x="537" y="725" type="curve" smooth="yes"/>
			<point x="537" y="664"/>
			<point x="502" y="654"/>
			<point x="464" y="652" type="curve"/>
		</contour>
		<component base="U"/>
		<contour>
			<point name="aboveUC" x="300" y="672" type="move"/>
		</contour>
		<contour>
			<point name="belowLC" x="300" y="-20" type="move"/>
		</contour>
	</outline>
</glyph>
<glyph name="uhorn" format="1">
	<unicode hex="01B0"/>
	<advance width="600"/>
	<outline>
		<contour>
			<point x="508" y="450" type="line"/>
			<point x="572" y="472"/>
			<point x="622" y="518"/>
			<point x="622" y="598" type="curve" smooth="yes"/>
			<point x="622" y="638"/>
			<point x="610" y="677"/>
			<point x="593" y="700" type="curve"/>
			<point x="484" y="653" type="line"/>
			<point x="494" y="639"/>
			<point x="500" y="614"/>
			<point x="500" y="588" type="curve" smooth="yes"/>
			<point x="500" y="512"/>
			<point x="452" y="498"/>
			<point x="411" y="496" type="curve"/>
		</contour>
		<component base="u"/>
		<contour>
			<point name="aboveLC" x="296" y="516" type="move"/>
		</contour>
		<contour>
			<point name="belowLC" x="313" y="-20" type="move"/>
		</contour>
	</outline>
</glyph>
<glyph name="clickalveolar" format="2">
	<unicode hex="01C2"/>
	<advance width="600"/>
	<outline>
		<contour>
			<point x="227" y="-184" type="line"/>
			<point x="373" y="-184" type="line"/>
			<point x="373" y="700" type="line"/>
			<point x="227" y="700" type="line"/>
		</contour>
		<contour>
			<point x="67" y="328" type="line"/>
			<point x="533" y="328" type="line"/>
			<point x="533" y="403" type="line"/>
			<point x="229" y="403" type="line"/>
			<point x="67" y="398" type="line"/>
		</contour>
		<contour>
			<point x="67" y="132" type="line"/>
			<point x="533" y="132" type="line"/>
			<point x="533" y="207" type="line"/>
			<point x="229" y="207" type="line"/>
			<point x="67" y="202" type="line"/>
		</contour>
	</outline>
</glyph>
<glyph name="clickretroflex" format="2">
	<unicode hex="01C3"/>
	<advance width="538"/>
	<outline>
		<contour>
			<point x="221" y="248" type="line"/>
			<point x="317" y="248" type="line"/>
			<point x="339" y="537" type="line"/>
			<point x="344" y="701" type="line"/>
			<point x="194" y="701" type="line"/>
			<point x="199" y="537" type="line"/>
		</contour>
		<contour>
			<point x="269" y="-12" type="curve" smooth="yes"/>
			<point x="325" y="-12"/>
			<point x="366" y="29"/>
			<point x="366" y="86" type="curve" smooth="yes"/>
			<point x="366" y="143"/>
			<point x="325" y="183"/>
			<point x="269" y="183" type="curve" smooth="yes"/>
			<point x="213" y="183"/>
			<point x="172" y="143"/>
			<point x="172" y="86" type="curve" smooth="yes"/>
			<point x="172" y="29"/>
			<point x="213" y="-12"/>
		</contour>
	</outline>
	<anchor name="aboveUC" x="269" y="722"/>
	<anchor name="belowLC" x="269" y="-22"/>
</glyph>
<glyph name="aringacute" format="1">
	<unicode hex="01FB"/>
	<advance width="600"/>
	<outline>
		<contour>
			<point x="292" y="734" type="line"/>
			<point x="446" y="804" type="line"/>
			<point x="387" y="878" type="line"/>
			<point x="230" y="750" type="line"/>
		</contour>
		<component base="aring"/>
	</outline>
</glyph>
<glyph name="dotlessj" format="1">
	<unicode hex="0237"/>
	<advance width="600"/>
	<outline>
		<contour>
			<point x="195" y="-196" type="curve" smooth="yes"/>
			<point x="375" y="-196"/>
			<point x="425" y="-91"/>
			<point x="425" y="30" type="curve" smooth="yes"/>
			<point x="425" y="496" type="line"/>
			<point x="79" y="496" type="line"/>
			<point x="79" y="381" type="line"/>
			<point x="278" y="381" type="line"/>
			<point x="278" y="24" type="line" smooth="yes"/>
			<point x="278" y="-48"/>
			<point x="257" y="-81"/>
			<point x="186" y="-81" type="curve" smooth="yes"/>
			<point x="157" y="-81"/>
			<point x="125" y="-75"/>
			<point x="85" y="-57" type="curve"/>
			<point x="42" y="-162" type="line"/>
			<point x="85" y="-182"/>
			<point x="134" y="-196"/>
		</contour>
		<contour>
			<point name="aboveLC" x="345" y="516" type="move"/>
		</contour>
		<contour>
			<point name="belowLC" x="246" y="-205" type="move"/>
		</contour>
	</outline>
</glyph>
<glyph name="Glottalstop" format="2">
	<unicode hex="0241"/>
	<advance width="531"/>
	<outline>
		<contour>
			<point x="166" y="0" type="line"/>
			<point x="313" y="0" type="line"/>
			<point x="313" y="204" type="line"/>
			<point x="413" y="254"/>
			<point x="492" y="338"/>
			<point x="492" y="454" type="curve" smooth="yes"/>
			<point x="492" y="593"/>
			<point x="373" y="664"/>
			<point x="238" y="664" type="curve" smooth="yes"/>
			<point x="142" y="664"/>
			<point x="58" y="621"/>
			<point x="0" y="565" type="curve"/>
			<point x="75" y="470" type="line"/>
			<point x="118" y="508"/>
			<point x="177" y="537"/>
			<point x="225" y="537" type="curve" smooth="yes"/>
			<point x="294" y="537"/>
			<point x="341" y="503"/>
			<point x="341" y="441" type="curve" smooth="yes"/>
			<point x="341" y="374"/>
			<point x="294" y="318"/>
			<point x="166" y="268" type="curve"/>
		</contour>
	</outline>
	<anchor name="aboveUC" x="261" y="674"/>
	<anchor name="belowLC" x="233" y="-22"/>
</glyph>
<glyph name="bhook" format="1">
	<unicode hex="0253"/>
	<advance width="600"/>
	<outline>
		<contour>
			<point x="339" y="-12" type="curve" smooth="yes"/>
			<point x="448" y="-12"/>
			<point x="551" y="82"/>
			<point x="551" y="248" type="curve" smooth="yes"/>
			<point x="551" y="396"/>
			<point x="475" y="492"/>
			<point x="353" y="492" type="curve" smooth="yes"/>
			<point x="305" y="492"/>
			<point x="256" y="471"/>
			<point x="217" y="435" type="curve"/>
			<point x="213" y="435" type="line"/>
			<point x="219" y="511" type="line"/>
			<point x="225" y="572"/>
			<point x="252" y="597"/>
			<point x="309" y="597" type="curve" smooth="yes"/>
			<point x="329" y="597"/>
			<point x="352" y="591"/>
			<point x="374" y="583" type="curve"/>
			<point x="401" y="691" type="line"/>
			<point x="376" y="701"/>
			<point x="336" y="713"/>
			<point x="288" y="713" type="curve" smooth="yes"/>
			<point x="132" y="713"/>
			<point x="72" y="615"/>
			<point x="72" y="500" type="curve"/>
			<point x="72" y="0" type="line"/>
			<point x="187" y="0" type="line"/>
			<point x="199" y="54" type="line"/>
			<point x="203" y="54" type="line"/>
			<point x="244" y="10"/>
			<point x="293" y="-12"/>
		</contour>
		<contour>
			<point x="305" y="108" type="curve" smooth="yes"/>
			<point x="279" y="108"/>
			<point x="247" y="116"/>
			<point x="219" y="141" type="curve"/>
			<point x="219" y="325" type="line"/>
			<point x="249" y="359"/>
			<point x="279" y="371"/>
			<point x="311" y="371" type="curve" smooth="yes"/>
			<point x="372" y="371"/>
			<point x="401" y="329"/>
			<point x="401" y="246" type="curve" smooth="yes"/>
			<point x="401" y="149"/>
			<point x="358" y="108"/>
		</contour>
		<contour>
			<point name="aboveUC" x="284" y="732" type="move"/>
		</contour>
		<contour>
			<point name="belowLC" x="312" y="-20" type="move"/>
		</contour>
	</outline>
</glyph>
<glyph name="ccurl" format="1">
	<unicode hex="0255"/>
	<advance width="600"/>
	<outline>
		<contour>
			<point x="193" y="-96" type="line"/>
			<point x="241" y="68"/>
			<point x="343" y="175"/>
			<point x="399" y="175" type="curve" smooth="yes"/>
			<point x="433" y="175"/>
			<point x="448" y="163"/>
			<point x="448" y="142" type="curve" smooth="yes"/>
			<point x="448" y="120"/>
			<point x="420" y="100"/>
			<point x="368" y="100" type="curve" smooth="yes"/>
			<point x="281" y="100"/>
			<point x="209" y="149"/>
			<point x="209" y="248" type="curve" smooth="yes"/>
			<point x="209" y="339"/>
			<point x="274" y="396"/>
			<point x="361" y="396" type="curve" smooth="yes"/>
			<point x="403" y="396"/>
			<point x="441" y="382"/>
			<point x="475" y="353" type="curve"/>
			<point x="539" y="441" type="line"/>
			<point x="496" y="481"/>
			<point x="434" y="508"/>
			<point x="353" y="508" type="curve" smooth="yes"/>
			<point x="201" y="508"/>
			<point x="67" y="413"/>
			<point x="67" y="248" type="curve" smooth="yes"/>
			<point x="67" y="83"/>
			<point x="195" y="-12"/>
			<point x="363" y="-12" type="curve" smooth="yes"/>
			<point x="486" y="-12"/>
			<point x="557" y="57"/>
			<point x="557" y="142" type="curve" smooth="yes"/>
			<point x="557" y="223"/>
			<point x="501" y="272"/>
			<point x="410" y="272" type="curve" smooth="yes"/>
			<point x="305" y="272"/>
			<point x="156" y="163"/>
			<point x="79" y="-47" type="curve"/>
		</contour>
		<contour>
			<point name="aboveLC" x="340" y="516" type="move"/>
		</contour>
		<contour>
			<point name="belowLC" x="360" y="-20" type="move"/>
		</contour>
	</outline>
</glyph>
<glyph name="dtail" format="1">
	<unicode hex="0256"/>
	<advance width="600"/>
	<outline>
		<contour>
			<point x="543" y="-170" type="curve" smooth="yes"/>
			<point x="580" y="-170"/>
			<point x="602" y="-164"/>
			<point x="621" y="-156" type="curve"/>
			<point x="595" y="-48" type="line"/>
			<point x="585" y="-52"/>
			<point x="576" y="-55"/>
			<point x="566" y="-55" type="curve" smooth="yes"/>
			<point x="534" y="-55"/>
			<point x="523" y="-33"/>
			<point x="523" y="16" type="curve"/>
			<point x="523" y="701" type="line"/>
			<point x="376" y="701" type="line"/>
			<point x="376" y="532" type="line"/>
			<point x="383" y="455" type="line"/>
			<point x="379" y="455" type="line"/>
			<point x="347" y="487"/>
			<point x="312" y="508"/>
			<point x="257" y="508" type="curve" smooth="yes"/>
			<point x="151" y="508"/>
			<point x="47" y="410"/>
			<point x="47" y="248" type="curve" smooth="yes"/>
			<point x="47" y="86"/>
			<point x="130" y="-12"/>
			<point x="254" y="-12" type="curve" smooth="yes"/>
			<point x="301" y="-12"/>
			<point x="347" y="12"/>
			<point x="379" y="44" type="curve"/>
			<point x="383" y="44" type="line"/>
			<point x="381" y="-19" type="line"/>
			<point x="381" y="-100"/>
			<point x="432" y="-170"/>
		</contour>
		<contour>
			<point x="292" y="108" type="curve" smooth="yes"/>
			<point x="234" y="108"/>
			<point x="198" y="152"/>
			<point x="198" y="250" type="curve" smooth="yes"/>
			<point x="198" y="344"/>
			<point x="242" y="388"/>
			<point x="291" y="388" type="curve" smooth="yes"/>
			<point x="319" y="388"/>
			<point x="349" y="379"/>
			<point x="376" y="355" type="curve"/>
			<point x="376" y="154" type="line"/>
			<point x="351" y="121"/>
			<point x="324" y="108"/>
		</contour>
		<contour>
			<point name="aboveUC" x="415" y="732" type="move"/>
		</contour>
		<contour>
			<point name="belowLC" x="316" y="-205" type="move"/>
		</contour>
	</outline>
</glyph>
<glyph name="ereversed" format="1">
	<unicode hex="0258"/>
	<advance width="600"/>
	<outline>
		<contour>
			<point x="270" y="-12" type="curve" smooth="yes"/>
			<point x="424" y="-12"/>
			<point x="545" y="84"/>
			<point x="545" y="248" type="curve" smooth="yes"/>
			<point x="545" y="410"/>
			<point x="429" y="508"/>
			<point x="297" y="508" type="curve" smooth="yes"/>
			<point x="144" y="508"/>
			<point x="54" y="405"/>
			<point x="54" y="270" type="curve" smooth="yes"/>
			<point x="54" y="244"/>
			<point x="58" y="216"/>
			<point x="60" y="204" type="curve"/>
			<point x="436" y="204" type="line"/>
			<point x="436" y="303" type="line"/>
			<point x="159" y="303" type="line"/>
			<point x="182" y="275" type="line"/>
			<point x="182" y="354"/>
			<point x="219" y="396"/>
			<point x="284" y="396" type="curve" smooth="yes"/>
			<point x="357" y="396"/>
			<point x="402" y="347"/>
			<point x="402" y="248" type="curve" smooth="yes"/>
			<point x="402" y="145"/>
			<point x="346" y="100"/>
			<point x="250" y="100" type="curve" smooth="yes"/>
			<point x="205" y="100"/>
			<point x="166" y="112"/>
			<point x="122" y="134" type="curve"/>
			<point x="74" y="46" type="line"/>
			<point x="130" y="10"/>
			<point x="204" y="-12"/>
		</contour>
		<contour>
			<point name="aboveLC" x="316" y="516" type="move"/>
		</contour>
		<contour>
			<point name="belowLC" x="298" y="-20" type="move"/>
		</contour>
	</outline>
</glyph>
<glyph name="schwa" format="1">
	<unicode hex="0259"/>
	<advance width="600"/>
	<outline>
		<contour>
			<point x="291" y="-12" type="curve" smooth="yes"/>
			<point x="425" y="-12"/>
			<point x="546" y="85"/>
			<point x="546" y="248" type="curve" smooth="yes"/>
			<point x="546" y="412"/>
			<point x="433" y="508"/>
			<point x="282" y="508" type="curve" smooth="yes"/>
			<point x="216" y="508"/>
			<point x="143" y="486"/>
			<point x="86" y="450" type="curve"/>
			<point x="134" y="362" type="line"/>
			<point x="178" y="384"/>
			<point x="217" y="396"/>
			<point x="262" y="396" type="curve" smooth="yes"/>
			<point x="353" y="396"/>
			<point x="404" y="351"/>
			<point x="404" y="248" type="curve" smooth="yes"/>
			<point x="404" y="148"/>
			<point x="360" y="100"/>
			<point x="286" y="100" type="curve" smooth="yes"/>
			<point x="218" y="100"/>
			<point x="184" y="143"/>
			<point x="184" y="224" type="curve"/>
			<point x="161" y="196" type="line"/>
			<point x="438" y="196" type="line"/>
			<point x="438" y="294" type="line"/>
			<point x="61" y="294" type="line"/>
			<point x="59" y="282"/>
			<point x="55" y="255"/>
			<point x="55" y="228" type="curve" smooth="yes"/>
			<point x="55" y="93"/>
			<point x="136" y="-12"/>
		</contour>
		<contour>
			<point name="ogonekLC" x="292" y="0" type="move"/>
		</contour>
		<contour>
			<point name="aboveLC" x="310" y="516" type="move"/>
		</contour>
		<contour>
			<point name="baseLC" x="292" y="0" type="move"/>
		</contour>
		<contour>
			<point name="belowLC" x="292" y="-20" type="move"/>
		</contour>
	</outline>
</glyph>
<glyph name="eopenreversed" format="1">
	<unicode hex="025C"/>
	<advance width="600"/>
	<outline>
		<component base="ze"/>
		<contour>
			<point name="aboveLC" x="315" y="516" type="move"/>
		</contour>
		<contour>
			<point name="belowLC" x="296" y="-20" type="move"/>
		</contour>
	</outline>
</glyph>
<glyph name="eopenreversedclosed" format="1">
	<unicode hex="025E"/>
	<advance width="600"/>
	<outline>
		<contour>
			<point x="316" y="-12" type="curve" smooth="yes"/>
			<point x="448" y="-12"/>
			<point x="546" y="40"/>
			<point x="546" y="141" type="curve" smooth="yes"/>
			<point x="546" y="207"/>
			<point x="506" y="246"/>
			<point x="438" y="259" type="curve"/>
			<point x="438" y="263" type="line"/>
			<point x="500" y="278"/>
			<point x="525" y="321"/>
			<point x="525" y="366" type="curve" smooth="yes"/>
			<point x="525" y="466"/>
			<point x="428" y="508"/>
			<point x="313" y="508" type="curve" smooth="yes"/>
			<point x="176" y="508"/>
			<point x="47" y="422"/>
			<point x="47" y="247" type="curve" smooth="yes"/>
			<point x="47" y="74"/>
			<point x="164" y="-12"/>
		</contour>
		<contour>
			<point x="321" y="100" type="curve" smooth="yes"/>
			<point x="241" y="100"/>
			<point x="193" y="138"/>
			<point x="193" y="247" type="curve" smooth="yes"/>
			<point x="193" y="350"/>
			<point x="244" y="396"/>
			<point x="320" y="396" type="curve" smooth="yes"/>
			<point x="361" y="396"/>
			<point x="386" y="378"/>
			<point x="386" y="348" type="curve" smooth="yes"/>
			<point x="386" y="317"/>
			<point x="361" y="303"/>
			<point x="322" y="303" type="curve" smooth="yes"/>
			<point x="291" y="303" type="line"/>
			<point x="291" y="204" type="line"/>
			<point x="323" y="204" type="line" smooth="yes"/>
			<point x="370" y="204"/>
			<point x="402" y="191"/>
			<point x="402" y="156" type="curve" smooth="yes"/>
			<point x="402" y="120"/>
			<point x="369" y="100"/>
		</contour>
		<contour>
			<point name="aboveLC" x="320" y="516" type="move"/>
		</contour>
		<contour>
			<point name="belowLC" x="303" y="-20" type="move"/>
		</contour>
	</outline>
</glyph>
<glyph name="gsmall" format="2">
	<unicode hex="0262"/>
	<advance width="600"/>
	<outline>
		<contour>
			<point x="337" y="-12" type="curve" smooth="yes"/>
			<point x="413" y="-12"/>
			<point x="489" y="16"/>
			<point x="532" y="56" type="curve"/>
			<point x="532" y="297" type="line"/>
			<point x="314" y="297" type="line"/>
			<point x="314" y="199" type="line"/>
			<point x="406" y="199" type="line"/>
			<point x="406" y="116" type="line"/>
			<point x="387" y="105"/>
			<point x="367" y="100"/>
			<point x="342" y="100" type="curve" smooth="yes"/>
			<point x="266" y="100"/>
			<point x="213" y="153"/>
			<point x="213" y="245" type="curve" smooth="yes"/>
			<point x="213" y="350"/>
			<point x="280" y="396"/>
			<point x="351" y="396" type="curve" smooth="yes"/>
			<point x="404" y="396"/>
			<point x="429" y="379"/>
			<point x="465" y="354" type="curve"/>
			<point x="531" y="442" type="line"/>
			<point x="485" y="480"/>
			<point x="432" y="508"/>
			<point x="341" y="508" type="curve" smooth="yes"/>
			<point x="199" y="508"/>
			<point x="64" y="414"/>
			<point x="64" y="245" type="curve" smooth="yes"/>
			<point x="64" y="70"/>
			<point x="191" y="-12"/>
		</contour>
	</outline>
	<anchor name="aboveLC" x="338" y="516"/>
	<anchor name="belowLC" x="322" y="-20"/>
</glyph>
<glyph name="hhook" format="2">
	<unicode hex="0266"/>
	<advance width="600"/>
	<outline>
		<contour>
			<point x="72" y="0" type="line"/>
			<point x="219" y="0" type="line"/>
			<point x="219" y="315" type="line"/>
			<point x="254" y="348"/>
			<point x="280" y="366"/>
			<point x="320" y="366" type="curve" smooth="yes"/>
			<point x="374" y="366"/>
			<point x="393" y="337"/>
			<point x="393" y="271" type="curve" smooth="yes"/>
			<point x="393" y="0" type="line"/>
			<point x="540" y="0" type="line"/>
			<point x="540" y="290" type="line" smooth="yes"/>
			<point x="540" y="415"/>
			<point x="490" y="492"/>
			<point x="379" y="492" type="curve" smooth="yes"/>
			<point x="304" y="492"/>
			<point x="251" y="456"/>
			<point x="214" y="418" type="curve"/>
			<point x="210" y="418" type="line"/>
			<point x="219" y="511" type="line"/>
			<point x="224" y="572"/>
			<point x="252" y="597"/>
			<point x="309" y="597" type="curve" smooth="yes"/>
			<point x="329" y="597"/>
			<point x="352" y="591"/>
			<point x="374" y="583" type="curve"/>
			<point x="401" y="691" type="line"/>
			<point x="376" y="701"/>
			<point x="336" y="713"/>
			<point x="288" y="713" type="curve" smooth="yes"/>
			<point x="132" y="713"/>
			<point x="72" y="615"/>
			<point x="72" y="500" type="curve"/>
		</contour>
	</outline>
	<anchor name="aboveUC" x="285" y="732"/>
	<anchor name="belowLC" x="310" y="-20"/>
</glyph>
<glyph name="lretroflex" format="2">
	<unicode hex="026D"/>
	<advance width="600"/>
	<outline>
		<contour>
			<point x="395" y="-187" type="curve" smooth="yes"/>
			<point x="457" y="-187"/>
			<point x="492" y="-176"/>
			<point x="544" y="-160" type="curve"/>
			<point x="511" y="-52" type="line"/>
			<point x="480" y="-63"/>
			<point x="456" y="-68"/>
			<point x="433" y="-68" type="curve" smooth="yes"/>
			<point x="392" y="-68"/>
			<point x="353" y="-48"/>
			<point x="353" y="13" type="curve" smooth="yes"/>
			<point x="353" y="701" type="line"/>
			<point x="50" y="701" type="line"/>
			<point x="50" y="585" type="line"/>
			<point x="206" y="585" type="line"/>
			<point x="206" y="19" type="line" smooth="yes"/>
			<point x="206" y="-107"/>
			<point x="270" y="-187"/>
		</contour>
	</outline>
	<anchor name="aboveUC" x="274" y="732"/>
	<anchor name="belowLC" x="367" y="-205"/>
</glyph>
<glyph name="lezh" format="2">
	<unicode hex="026E"/>
	<advance width="600"/>
	<outline>
		<contour>
			<point x="41" y="0" type="line"/>
			<point x="188" y="0" type="line"/>
			<point x="188" y="701" type="line"/>
			<point x="41" y="701" type="line"/>
		</contour>
		<contour>
			<point x="369" y="-196" type="curve" smooth="yes"/>
			<point x="493" y="-196"/>
			<point x="599" y="-114"/>
			<point x="599" y="32" type="curve" smooth="yes"/>
			<point x="599" y="137"/>
			<point x="533" y="224"/>
			<point x="396" y="225" type="curve"/>
			<point x="408" y="198" type="line"/>
			<point x="576" y="418" type="line"/>
			<point x="576" y="496" type="line"/>
			<point x="184" y="496" type="line"/>
			<point x="184" y="381" type="line"/>
			<point x="400" y="381" type="line"/>
			<point x="247" y="181" type="line"/>
			<point x="296" y="110" type="line"/>
			<point x="318" y="119"/>
			<point x="328" y="122"/>
			<point x="356" y="122" type="curve" smooth="yes"/>
			<point x="413" y="122"/>
			<point x="452" y="88"/>
			<point x="452" y="29" type="curve" smooth="yes"/>
			<point x="452" y="-38"/>
			<point x="410" y="-77"/>
			<point x="352" y="-77" type="curve" smooth="yes"/>
			<point x="301" y="-77"/>
			<point x="261" y="-54"/>
			<point x="228" y="-24" type="curve"/>
			<point x="162" y="-115" type="line"/>
			<point x="208" y="-160"/>
			<point x="273" y="-196"/>
		</contour>
	</outline>
	<anchor name="aboveUC" x="114" y="732"/>
	<anchor name="belowLC" x="366" y="-205"/>
</glyph>
<glyph name="mturned" format="1">
	<unicode hex="026F"/>
	<advance width="600"/>
	<outline>
		<component base="m" xScale="-1" yScale="-1" xOffset="600" yOffset="496"/>
		<contour>
			<point name="aboveLC" x="298" y="519" type="move"/>
		</contour>
		<contour>
			<point name="belowLC" x="298" y="-20" type="move"/>
		</contour>
	</outline>
</glyph>
<glyph name="mlonglegturned" format="1">
	<unicode hex="0270"/>
	<advance width="600"/>
	<outline>
		<contour>
			<point x="426" y="-184" type="line"/>
			<point x="565" y="-184" type="line"/>
			<point x="565" y="496" type="line"/>
			<point x="425" y="496" type="line"/>
			<point x="425" y="161" type="line"/>
			<point x="412" y="129"/>
			<point x="400" y="113"/>
			<point x="381" y="113" type="curve" smooth="yes"/>
			<point x="362" y="113"/>
			<point x="353" y="128"/>
			<point x="353" y="158" type="curve" smooth="yes"/>
			<point x="353" y="496" type="line"/>
			<point x="238" y="496" type="line"/>
			<point x="238" y="161" type="line"/>
			<point x="224" y="129"/>
			<point x="211" y="113"/>
			<point x="193" y="113" type="curve" smooth="yes"/>
			<point x="173" y="113"/>
			<point x="166" y="128"/>
			<point x="166" y="158" type="curve" smooth="yes"/>
			<point x="166" y="496" type="line"/>
			<point x="26" y="496" type="line"/>
			<point x="26" y="148" type="line" smooth="yes"/>
			<point x="26" y="49"/>
			<point x="68" y="-12"/>
			<point x="137" y="-12" type="curve" smooth="yes"/>
			<point x="193" y="-12"/>
			<point x="228" y="24"/>
			<point x="246" y="69" type="curve"/>
			<point x="258" y="16"/>
			<point x="289" y="-12"/>
			<point x="332" y="-12" type="curve" smooth="yes"/>
			<point x="386" y="-12"/>
			<point x="413" y="22"/>
			<point x="432" y="63" type="curve"/>
			<point x="436" y="63" type="line"/>
			<point x="426" y="-34" type="line"/>
		</contour>
		<contour>
			<point name="aboveLC" x="300" y="516" type="move"/>
		</contour>
		<contour>
			<point name="belowLC" x="492" y="-220" type="move"/>
		</contour>
	</outline>
</glyph>
<glyph name="nhookleft" format="1">
	<unicode hex="0272"/>
	<advance width="600"/>
	<outline>
		<contour>
			<point x="62" y="-187" type="curve" smooth="yes"/>
			<point x="189" y="-187"/>
			<point x="229" y="-100"/>
			<point x="229" y="4" type="curve"/>
			<point x="229" y="331" type="line"/>
			<point x="263" y="365"/>
			<point x="287" y="383"/>
			<point x="326" y="383" type="curve" smooth="yes"/>
			<point x="372" y="383"/>
			<point x="393" y="360"/>
			<point x="393" y="287" type="curve" smooth="yes"/>
			<point x="393" y="0" type="line"/>
			<point x="540" y="0" type="line"/>
			<point x="540" y="306" type="line" smooth="yes"/>
			<point x="540" y="431"/>
			<point x="492" y="508"/>
			<point x="380" y="508" type="curve" smooth="yes"/>
			<point x="311" y="508"/>
			<point x="260" y="472"/>
			<point x="217" y="430" type="curve"/>
			<point x="213" y="430" type="line"/>
			<point x="202" y="496" type="line"/>
			<point x="82" y="496" type="line"/>
			<point x="82" y="-1" type="line"/>
			<point x="82" y="-50"/>
			<point x="71" y="-71"/>
			<point x="39" y="-71" type="curve" smooth="yes"/>
			<point x="29" y="-71"/>
			<point x="20" y="-69"/>
			<point x="10" y="-65" type="curve"/>
			<point x="-16" y="-173" type="line"/>
			<point x="2" y="-181"/>
			<point x="25" y="-187"/>
		</contour>
		<contour>
			<point name="aboveLC" x="336" y="516" type="move"/>
		</contour>
		<contour>
			<point name="belowLC" x="265" y="-205" type="move"/>
		</contour>
	</outline>
</glyph>
<glyph name="rhookturned" format="1">
	<unicode hex="027B"/>
	<advance width="600"/>
	<outline>
		<contour>
			<point x="465" y="-187" type="curve" smooth="yes"/>
			<point x="507" y="-187"/>
			<point x="537" y="-177"/>
			<point x="562" y="-167" type="curve"/>
			<point x="531" y="-60" type="line"/>
			<point x="518" y="-66"/>
			<point x="501" y="-71"/>
			<point x="487" y="-71" type="curve" smooth="yes"/>
			<point x="449" y="-71"/>
			<point x="435" y="-51"/>
			<point x="435" y="3" type="curve"/>
			<point x="435" y="496" type="line"/>
			<point x="288" y="496" type="line"/>
			<point x="288" y="225" type="line"/>
			<point x="257" y="144"/>
			<point x="195" y="117"/>
			<point x="151" y="117" type="curve" smooth="yes"/>
			<point x="124" y="117"/>
			<point x="106" y="121"/>
			<point x="82" y="132" type="curve"/>
			<point x="52" y="8" type="line"/>
			<point x="81" y="-6"/>
			<point x="110" y="-12"/>
			<point x="136" y="-12" type="curve" smooth="yes"/>
			<point x="200" y="-12"/>
			<point x="263" y="24"/>
			<point x="301" y="95" type="curve"/>
			<point x="305" y="95" type="line"/>
			<point x="305" y="-14" type="line" smooth="yes"/>
			<point x="305" y="-108"/>
			<point x="342" y="-187"/>
		</contour>
		<contour>
			<point name="aboveLC" x="358" y="516" type="move"/>
		</contour>
		<contour>
			<point name="belowLC" x="308" y="-205" type="move"/>
		</contour>
	</outline>
</glyph>
<glyph name="rfishhook" format="1">
	<unicode hex="027E"/>
	<advance width="600"/>
	<outline>
		<contour>
			<point x="116" y="0" type="line"/>
			<point x="263" y="0" type="line"/>
			<point x="263" y="225" type="line" smooth="yes"/>
			<point x="263" y="342"/>
			<point x="342" y="381"/>
			<point x="404" y="381" type="curve" smooth="yes"/>
			<point x="451" y="381"/>
			<point x="470" y="378"/>
			<point x="518" y="365" type="curve"/>
			<point x="548" y="488" type="line"/>
			<point x="510" y="500"/>
			<point x="454" y="508"/>
			<point x="383" y="508" type="curve" smooth="yes"/>
			<point x="197" y="508"/>
			<point x="116" y="398"/>
			<point x="116" y="257" type="curve" smooth="yes"/>
		</contour>
		<contour>
			<point name="aboveLC" x="352" y="516" type="move"/>
		</contour>
		<contour>
			<point name="belowLC" x="193" y="-20" type="move"/>
		</contour>
	</outline>
</glyph>
<glyph name="rsmall" format="1">
	<unicode hex="0280"/>
	<advance width="600"/>
	<outline>
		<contour>
			<point x="74" y="0" type="line"/>
			<point x="221" y="0" type="line"/>
			<point x="221" y="161" type="line"/>
			<point x="325" y="161" type="line"/>
			<point x="420" y="161"/>
			<point x="531" y="208"/>
			<point x="531" y="332" type="curve" smooth="yes"/>
			<point x="531" y="455"/>
			<point x="440" y="496"/>
			<point x="326" y="496" type="curve" smooth="yes"/>
			<point x="74" y="496" type="line"/>
		</contour>
		<contour>
			<point x="221" y="261" type="line"/>
			<point x="221" y="388" type="line"/>
			<point x="307" y="388" type="line" smooth="yes"/>
			<point x="360" y="388"/>
			<point x="386" y="369"/>
			<point x="386" y="328" type="curve" smooth="yes"/>
			<point x="386" y="287"/>
			<point x="360" y="261"/>
			<point x="307" y="261" type="curve" smooth="yes"/>
		</contour>
		<contour>
			<point x="401" y="0" type="line"/>
			<point x="566" y="0" type="line"/>
			<point x="392" y="240" type="line"/>
			<point x="266" y="200" type="line"/>
		</contour>
		<contour>
			<point name="aboveLC" x="312" y="516" type="move"/>
		</contour>
		<contour>
			<point name="belowLC" x="312" y="-20" type="move"/>
		</contour>
	</outline>
</glyph>
<glyph name="dotlessjstrokehook" format="1">
	<unicode hex="0284"/>
	<advance width="600"/>
	<outline>
		<contour>
			<point x="81" y="221" type="line"/>
			<point x="525" y="221" type="line"/>
			<point x="525" y="296" type="line"/>
			<point x="232" y="296" type="line"/>
			<point x="81" y="290" type="line"/>
		</contour>
		<component base="esh"/>
		<contour>
			<point name="aboveUC" x="389" y="732" type="move"/>
		</contour>
		<contour>
			<point name="belowLC" x="227" y="-205" type="move"/>
		</contour>
	</outline>
</glyph>
<glyph name="zcurl" format="1">
	<unicode hex="0291"/>
	<advance width="600"/>
	<outline>
		<contour>
			<point x="359" y="-113" type="line"/>
			<point x="394" y="101"/>
			<point x="442" y="175"/>
			<point x="480" y="175" type="curve" smooth="yes"/>
			<point x="498" y="175"/>
			<point x="508" y="166"/>
			<point x="508" y="149" type="curve" smooth="yes"/>
			<point x="508" y="127"/>
			<point x="490" y="107"/>
			<point x="451" y="107" type="curve" smooth="yes"/>
			<point x="385" y="107"/>
			<point x="325" y="111"/>
			<point x="255" y="115" type="curve"/>
			<point x="492" y="417" type="line"/>
			<point x="492" y="496" type="line"/>
			<point x="101" y="496" type="line"/>
			<point x="101" y="381" type="line"/>
			<point x="309" y="381" type="line"/>
			<point x="70" y="79" type="line"/>
			<point x="70" y="0" type="line"/>
			<point x="412" y="0" type="line" smooth="yes"/>
			<point x="534" y="0"/>
			<point x="589" y="66"/>
			<point x="589" y="146" type="curve" smooth="yes"/>
			<point x="589" y="218"/>
			<point x="547" y="255"/>
			<point x="482" y="255" type="curve" smooth="yes"/>
			<point x="388" y="255"/>
			<point x="323" y="117"/>
			<point x="285" y="-99" type="curve"/>
		</contour>
		<contour>
			<point name="aboveLC" x="303" y="516" type="move"/>
		</contour>
	</outline>
</glyph>
<glyph name="clickbilabial" format="2">
	<unicode hex="0298"/>
	<advance width="600"/>
	<outline>
		<contour>
			<point x="300" y="-12" type="curve" smooth="yes"/>
			<point x="446" y="-12"/>
			<point x="554" y="108"/>
			<point x="554" y="352" type="curve" smooth="yes"/>
			<point x="554" y="596"/>
			<point x="446" y="713"/>
			<point x="300" y="713" type="curve" smooth="yes"/>
			<point x="154" y="713"/>
			<point x="47" y="596"/>
			<point x="47" y="352" type="curve" smooth="yes"/>
			<point x="47" y="108"/>
			<point x="154" y="-12"/>
		</contour>
		<contour>
			<point x="300" y="107" type="curve" smooth="yes"/>
			<point x="238" y="107"/>
			<point x="183" y="163"/>
			<point x="183" y="352" type="curve" smooth="yes"/>
			<point x="183" y="535"/>
			<point x="238" y="594"/>
			<point x="300" y="594" type="curve" smooth="yes"/>
			<point x="362" y="594"/>
			<point x="418" y="535"/>
			<point x="418" y="352" type="curve" smooth="yes"/>
			<point x="418" y="163"/>
			<point x="362" y="107"/>
		</contour>
		<contour>
			<point x="300" y="282" type="curve" smooth="yes"/>
			<point x="340" y="282"/>
			<point x="372" y="312"/>
			<point x="372" y="352" type="curve" smooth="yes"/>
			<point x="372" y="395"/>
			<point x="340" y="427"/>
			<point x="300" y="427" type="curve" smooth="yes"/>
			<point x="260" y="427"/>
			<point x="228" y="395"/>
			<point x="228" y="352" type="curve" smooth="yes"/>
			<point x="228" y="312"/>
			<point x="260" y="282"/>
		</contour>
	</outline>
</glyph>
<glyph name="kturned" format="1">
	<unicode hex="029E"/>
	<advance width="600"/>
	<outline>
		<contour>
			<point x="377" y="-184" type="line"/>
			<point x="524" y="-184" type="line"/>
			<point x="524" y="496" type="line"/>
			<point x="377" y="496" type="line"/>
			<point x="377" y="371" type="line"/>
			<point x="15" y="0" type="line"/>
			<point x="185" y="0" type="line"/>
			<point x="373" y="200" type="line"/>
			<point x="377" y="200" type="line"/>
		</contour>
		<contour>
			<point x="244" y="180" type="line"/>
			<point x="326" y="271" type="line"/>
			<point x="180" y="496" type="line"/>
			<point x="31" y="496" type="line"/>
		</contour>
		<contour>
			<point name="aboveLC" x="295" y="516" type="move"/>
		</contour>
		<contour>
			<point name="belowLC" x="450" y="-205" type="move"/>
		</contour>
	</outline>
</glyph>
<glyph name="lsmall" format="2">
	<unicode hex="029F"/>
	<advance width="600"/>
	<outline>
		<contour>
			<point x="121" y="0" type="line"/>
			<point x="536" y="0" type="line"/>
			<point x="536" y="115" type="line"/>
			<point x="268" y="115" type="line"/>
			<point x="268" y="496" type="line"/>
			<point x="121" y="496" type="line"/>
		</contour>
	</outline>
	<anchor name="aboveLC" x="193" y="516"/>
	<anchor name="belowLC" x="334" y="-20"/>
</glyph>
<glyph name="glottalstopstroke" format="2">
	<unicode hex="02A1"/>
	<advance width="600"/>
	<outline>
		<contour>
			<point x="205" y="0" type="line"/>
			<point x="352" y="0" type="line"/>
			<point x="352" y="239" type="line"/>
			<point x="540" y="239" type="line"/>
			<point x="540" y="314" type="line"/>
			<point x="408" y="314" type="line"/>
			<point x="472" y="363"/>
			<point x="527" y="428"/>
			<point x="527" y="502" type="curve" smooth="yes"/>
			<point x="527" y="643"/>
			<point x="415" y="712"/>
			<point x="283" y="712" type="curve" smooth="yes"/>
			<point x="177" y="712"/>
			<point x="100" y="669"/>
			<point x="50" y="616" type="curve"/>
			<point x="123" y="524" type="line"/>
			<point x="158" y="562"/>
			<point x="208" y="594"/>
			<point x="267" y="594" type="curve" smooth="yes"/>
			<point x="336" y="594"/>
			<point x="380" y="559"/>
			<point x="380" y="496" type="curve" smooth="yes"/>
			<point x="380" y="440"/>
			<point x="330" y="378"/>
			<point x="223" y="314" type="curve"/>
			<point x="130" y="314" type="line"/>
			<point x="54" y="308" type="line"/>
			<point x="54" y="239" type="line"/>
			<point x="205" y="239" type="line"/>
		</contour>
	</outline>
</glyph>
<glyph name="tesh" format="2">
	<unicode hex="02A7"/>
	<advance width="600"/>
	<outline>
		<contour>
			<point x="240" y="-12" type="curve" smooth="yes"/>
			<point x="288" y="-12"/>
			<point x="321" y="-2"/>
			<point x="347" y="6" type="curve"/>
			<point x="324" y="113" type="line"/>
			<point x="308" y="106"/>
			<point x="292" y="103"/>
			<point x="272" y="103" type="curve" smooth="yes"/>
			<point x="242" y="103"/>
			<point x="221" y="126"/>
			<point x="221" y="182" type="curve" smooth="yes"/>
			<point x="221" y="381" type="line"/>
			<point x="438" y="381" type="line"/>
			<point x="438" y="496" type="line"/>
			<point x="221" y="496" type="line"/>
			<point x="221" y="648" type="line"/>
			<point x="99" y="648" type="line"/>
			<point x="81" y="496" type="line"/>
			<point x="6" y="490" type="line"/>
			<point x="6" y="381" type="line"/>
			<point x="74" y="381" type="line"/>
			<point x="74" y="180" type="line" smooth="yes"/>
			<point x="74" y="65"/>
			<point x="121" y="-12"/>
		</contour>
		<contour>
			<point x="370" y="-196" type="curve" smooth="yes"/>
			<point x="497" y="-196"/>
			<point x="542" y="-105"/>
			<point x="542" y="3" type="curve" smooth="yes"/>
			<point x="542" y="518" type="line" smooth="yes"/>
			<point x="542" y="573"/>
			<point x="555" y="598"/>
			<point x="596" y="598" type="curve" smooth="yes"/>
			<point x="607" y="598"/>
			<point x="615" y="595"/>
			<point x="625" y="591" type="curve"/>
			<point x="651" y="699" type="line"/>
			<point x="633" y="707"/>
			<point x="611" y="713"/>
			<point x="577" y="713" type="curve" smooth="yes"/>
			<point x="441" y="713"/>
			<point x="395" y="622"/>
			<point x="395" y="520" type="curve" smooth="yes"/>
			<point x="395" y="-1" type="line"/>
			<point x="395" y="-56"/>
			<point x="383" y="-81"/>
			<point x="350" y="-81" type="curve" smooth="yes"/>
			<point x="337" y="-81"/>
			<point x="325" y="-78"/>
			<point x="311" y="-74" type="curve"/>
			<point x="285" y="-182" type="line"/>
			<point x="304" y="-190"/>
			<point x="330" y="-196"/>
		</contour>
	</outline>
	<anchor name="aboveUC" x="266" y="730"/>
	<anchor name="belowLC" x="331" y="-205"/>
</glyph>
<glyph name="j.sups" format="2">
	<unicode hex="02B2"/>
	<advance width="600"/>
	<outline>
		<contour>
			<point x="230" y="247" type="curve" smooth="yes"/>
			<point x="352" y="247"/>
			<point x="387" y="318"/>
			<point x="387" y="398" type="curve" smooth="yes"/>
			<point x="387" y="705" type="line"/>
			<point x="157" y="705" type="line"/>
			<point x="157" y="624" type="line"/>
			<point x="283" y="624" type="line"/>
			<point x="283" y="395" type="line" smooth="yes"/>
			<point x="283" y="348"/>
			<point x="268" y="328"/>
			<point x="223" y="328" type="curve" smooth="yes"/>
			<point x="207" y="328"/>
			<point x="188" y="331"/>
			<point x="163" y="343" type="curve"/>
			<point x="133" y="270" type="line"/>
			<point x="160" y="257"/>
			<point x="191" y="247"/>
		</contour>
		<contour>
			<point x="332" y="749" type="curve" smooth="yes"/>
			<point x="371" y="749"/>
			<point x="400" y="774"/>
			<point x="400" y="811" type="curve" smooth="yes"/>
			<point x="400" y="848"/>
			<point x="371" y="875"/>
			<point x="332" y="875" type="curve" smooth="yes"/>
			<point x="292" y="875"/>
			<point x="264" y="848"/>
			<point x="264" y="811" type="curve" smooth="yes"/>
			<point x="264" y="774"/>
			<point x="292" y="749"/>
		</contour>
	</outline>
</glyph>
<glyph name="colontriangularhalfmod" format="1">
	<unicode hex="02D1"/>
	<advance width="600"/>
	<outline>
		<contour>
			<point x="293" y="316" type="line"/>
			<point x="307" y="316" type="line"/>
			<point x="436" y="534" type="line"/>
			<point x="164" y="534" type="line"/>
		</contour>
	</outline>
</glyph>
<glyph name="gammalatinsupmod" format="1">
	<unicode hex="02E0"/>
	<advance width="600"/>
	<outline>
		<contour>
			<point x="243" y="417" type="line"/>
			<point x="361" y="417" type="line"/>
			<point x="470" y="704" type="line"/>
			<point x="371" y="704" type="line"/>
			<point x="330" y="570" type="line"/>
			<point x="321" y="542"/>
			<point x="313" y="522"/>
			<point x="304" y="492" type="curve"/>
			<point x="301" y="492" type="line"/>
			<point x="293" y="522"/>
			<point x="284" y="542"/>
			<point x="277" y="570" type="curve"/>
			<point x="235" y="704" type="line"/>
			<point x="131" y="704" type="line"/>
		</contour>
		<contour>
			<point x="303" y="237" type="curve" smooth="yes"/>
			<point x="368" y="237"/>
			<point x="409" y="276"/>
			<point x="409" y="335" type="curve" smooth="yes"/>
			<point x="409" y="375"/>
			<point x="388" y="404"/>
			<point x="352" y="466" type="curve"/>
			<point x="253" y="466" type="line"/>
			<point x="217" y="404"/>
			<point x="196" y="375"/>
			<point x="196" y="335" type="curve" smooth="yes"/>
			<point x="196" y="276"/>
			<point x="238" y="237"/>
		</contour>
		<contour>
			<point x="303" y="301" type="curve" smooth="yes"/>
			<point x="289" y="301"/>
			<point x="280" y="312"/>
			<point x="280" y="327" type="curve" smooth="yes"/>
			<point x="280" y="345"/>
			<point x="287" y="364"/>
			<point x="300" y="393" type="curve"/>
			<point x="303" y="393" type="line"/>
			<point x="320" y="364"/>
			<point x="326" y="345"/>
			<point x="326" y="327" type="curve" smooth="yes"/>
			<point x="326" y="312"/>
			<point x="316" y="301"/>
		</contour>
	</outline>
</glyph>
<glyph name="x.sups" format="2">
	<unicode hex="02E3"/>
	<advance width="600"/>
	<outline>
		<contour>
			<point x="124" y="375" type="line"/>
			<point x="232" y="375" type="line"/>
			<point x="261" y="427" type="line" smooth="yes"/>
			<point x="270" y="446"/>
			<point x="280" y="465"/>
			<point x="290" y="484" type="curve"/>
			<point x="292" y="484" type="line"/>
			<point x="304" y="465"/>
			<point x="317" y="446"/>
			<point x="329" y="427" type="curve"/>
			<point x="363" y="375" type="line"/>
			<point x="474" y="375" type="line"/>
			<point x="363" y="534" type="line"/>
			<point x="468" y="705" type="line"/>
			<point x="360" y="705" type="line"/>
			<point x="334" y="653" type="line" smooth="yes"/>
			<point x="326" y="635"/>
			<point x="316" y="615"/>
			<point x="309" y="597" type="curve"/>
			<point x="306" y="597" type="line"/>
			<point x="295" y="615"/>
			<point x="282" y="635"/>
			<point x="273" y="653" type="curve"/>
			<point x="242" y="705" type="line"/>
			<point x="131" y="705" type="line"/>
			<point x="235" y="546" type="line"/>
		</contour>
	</outline>
</glyph>
<glyph name="gravecmb" format="1">
	<unicode hex="0300"/>
	<advance width="600"/>
	<outline>
		<contour>
			<point x="306" y="561" type="line"/>
			<point x="378" y="633" type="line"/>
			<point x="225" y="815" type="line"/>
			<point x="125" y="717" type="line"/>
		</contour>
		<contour>
			<point name="_aboveLC" x="300" y="516" type="move"/>
		</contour>
		<contour>
			<point name="aboveLC" x="300" y="764" type="move"/>
		</contour>
	</outline>
</glyph>
<glyph name="acutecmb" format="1">
	<unicode hex="0301"/>
	<advance width="600"/>
	<outline>
		<contour>
			<point x="294" y="561" type="line"/>
			<point x="475" y="717" type="line"/>
			<point x="375" y="815" type="line"/>
			<point x="222" y="633" type="line"/>
		</contour>
		<contour>
			<point name="_aboveLC" x="300" y="516" type="move"/>
		</contour>
		<contour>
			<point name="aboveLC" x="300" y="764" type="move"/>
		</contour>
	</outline>
</glyph>
<glyph name="circumflexcmb" format="2">
	<unicode hex="0302"/>
	<advance width="600"/>
	<outline>
		<contour>
			<point x="173" y="561" type="line"/>
			<point x="298" y="653" type="line"/>
			<point x="302" y="653" type="line"/>
			<point x="427" y="561" type="line"/>
			<point x="483" y="613" type="line"/>
			<point x="375" y="744" type="line"/>
			<point x="225" y="744" type="line"/>
			<point x="117" y="613" type="line"/>
		</contour>
	</outline>
	<anchor name="_aboveLC" x="300" y="516"/>
	<anchor name="aboveLC" x="300" y="738"/>
</glyph>
<glyph name="brevecmb" format="2">
	<unicode hex="0306"/>
	<advance width="600"/>
	<outline>
		<contour>
			<point x="300" y="572" type="curve" smooth="yes"/>
			<point x="415" y="572"/>
			<point x="466" y="641"/>
			<point x="469" y="729" type="curve"/>
			<point x="385" y="743" type="line"/>
			<point x="379" y="700"/>
			<point x="353" y="664"/>
			<point x="300" y="664" type="curve" smooth="yes"/>
			<point x="247" y="664"/>
			<point x="221" y="700"/>
			<point x="215" y="743" type="curve"/>
			<point x="131" y="729" type="line"/>
			<point x="134" y="641"/>
			<point x="186" y="572"/>
		</contour>
	</outline>
	<anchor name="_aboveLC" x="300" y="516"/>
	<anchor name="aboveLC" x="300" y="698"/>
</glyph>
<glyph name="dotaccentcmb" format="1">
	<unicode hex="0307"/>
	<advance width="600"/>
	<outline>
		<contour>
			<point x="300" y="574" type="curve" smooth="yes"/>
			<point x="357" y="574"/>
			<point x="398" y="609"/>
			<point x="398" y="663" type="curve" smooth="yes"/>
			<point x="398" y="717"/>
			<point x="357" y="755"/>
			<point x="300" y="755" type="curve" smooth="yes"/>
			<point x="243" y="755"/>
			<point x="202" y="717"/>
			<point x="202" y="663" type="curve" smooth="yes"/>
			<point x="202" y="609"/>
			<point x="243" y="574"/>
		</contour>
		<contour>
			<point name="_aboveLC" x="300" y="516" type="move"/>
		</contour>
		<contour>
			<point name="aboveLC" x="300" y="753" type="move"/>
		</contour>
	</outline>
</glyph>
<glyph name="hoicmb" format="2">
	<unicode hex="0309"/>
	<advance width="600"/>
	<outline>
		<contour>
			<point x="257" y="568" type="line"/>
			<point x="332" y="574"/>
			<point x="397" y="604"/>
			<point x="397" y="672" type="curve" smooth="yes"/>
			<point x="397" y="742"/>
			<point x="350" y="790"/>
			<point x="219" y="793" type="curve"/>
			<point x="210" y="703" type="line"/>
			<point x="268" y="699"/>
			<point x="290" y="685"/>
			<point x="290" y="661" type="curve" smooth="yes"/>
			<point x="290" y="640"/>
			<point x="270" y="631"/>
			<point x="245" y="626" type="curve"/>
		</contour>
	</outline>
	<anchor name="_aboveLC" x="300" y="516"/>
	<anchor name="aboveLC" x="300" y="731"/>
</glyph>
<glyph name="hungarumlautcmb" format="1">
	<unicode hex="030B"/>
	<advance width="600"/>
	<outline>
		<contour>
			<point x="247" y="565" type="line"/>
			<point x="355" y="737" type="line"/>
			<point x="257" y="781" type="line"/>
			<point x="169" y="600" type="line"/>
		</contour>
		<contour>
			<point x="426" y="565" type="line"/>
			<point x="534" y="737" type="line"/>
			<point x="436" y="781" type="line"/>
			<point x="348" y="600" type="line"/>
		</contour>
		<contour>
			<point name="_aboveLC" x="300" y="516" type="move"/>
		</contour>
	</outline>
</glyph>
<glyph name="candrabinducmb" format="1">
	<unicode hex="0310"/>
	<advance width="600"/>
	<outline>
		<contour>
			<point x="300" y="572" type="curve" smooth="yes"/>
			<point x="418" y="572"/>
			<point x="476" y="641"/>
			<point x="481" y="729" type="curve"/>
			<point x="405" y="743" type="line"/>
			<point x="398" y="695"/>
			<point x="360" y="655"/>
			<point x="300" y="655" type="curve" smooth="yes"/>
			<point x="239" y="655"/>
			<point x="202" y="695"/>
			<point x="195" y="743" type="curve"/>
			<point x="119" y="729" type="line"/>
			<point x="124" y="641"/>
			<point x="182" y="572"/>
		</contour>
		<contour>
			<point x="300" y="702" type="curve" smooth="yes"/>
			<point x="343" y="702"/>
			<point x="376" y="731"/>
			<point x="376" y="775" type="curve" smooth="yes"/>
			<point x="376" y="819"/>
			<point x="343" y="850"/>
			<point x="300" y="850" type="curve" smooth="yes"/>
			<point x="257" y="850"/>
			<point x="224" y="819"/>
			<point x="224" y="775" type="curve" smooth="yes"/>
			<point x="224" y="731"/>
			<point x="257" y="702"/>
		</contour>
		<contour>
			<point name="_aboveLC" x="300" y="516" type="move"/>
		</contour>
	</outline>
</glyph>
<glyph name="commaturnedabovecmb" format="2">
	<unicode hex="0312"/>
	<advance width="600"/>
	<outline>
		<contour>
			<point x="310" y="562" type="curve" smooth="yes"/>
			<point x="347" y="562"/>
			<point x="376" y="586"/>
			<point x="376" y="626" type="curve" smooth="yes"/>
			<point x="376" y="667"/>
			<point x="346" y="689"/>
			<point x="313" y="689" type="curve" smooth="yes"/>
			<point x="299" y="689"/>
			<point x="286" y="679"/>
			<point x="274" y="669" type="curve"/>
			<point x="309" y="617" type="line"/>
			<point x="294" y="675" type="line"/>
			<point x="295" y="706"/>
			<point x="319" y="726"/>
			<point x="368" y="741" type="curve"/>
			<point x="346" y="789" type="line"/>
			<point x="266" y="767"/>
			<point x="227" y="718"/>
			<point x="227" y="657" type="curve" smooth="yes"/>
			<point x="227" y="597"/>
			<point x="260" y="562"/>
		</contour>
	</outline>
	<anchor name="_aboveLC" x="300" y="516"/>
</glyph>
<glyph name="righttackbelowcmb" format="1">
	<unicode hex="0319"/>
	<advance width="600"/>
	<outline>
		<contour>
			<point x="186" y="-257" type="line"/>
			<point x="270" y="-257" type="line"/>
			<point x="270" y="-191" type="line"/>
			<point x="387" y="-191" type="line"/>
			<point x="387" y="-120" type="line"/>
			<point x="270" y="-120" type="line"/>
			<point x="270" y="-54" type="line"/>
			<point x="186" y="-54" type="line"/>
		</contour>
		<contour>
			<point name="_belowLC" x="300" y="-20" type="move"/>
		</contour>
	</outline>
</glyph>
<glyph name="leftangleabovecmb" format="2">
	<unicode hex="031A"/>
	<advance width="600"/>
	<outline>
		<contour>
			<point x="321" y="574" type="line"/>
			<point x="399" y="574" type="line"/>
			<point x="399" y="724" type="line"/>
			<point x="213" y="724" type="line"/>
			<point x="213" y="653" type="line"/>
			<point x="321" y="653" type="line"/>
		</contour>
	</outline>
	<anchor name="_aboverightLC" x="300" y="516"/>
</glyph>
<glyph name="ringhalfleftbelowcmb" format="1">
	<unicode hex="031C"/>
	<advance width="600"/>
	<outline>
		<contour>
			<point x="368" y="-258" type="curve"/>
			<point x="368" y="-203" type="line"/>
			<point x="320" y="-203"/>
			<point x="300" y="-184"/>
			<point x="300" y="-156" type="curve" smooth="yes"/>
			<point x="300" y="-128"/>
			<point x="320" y="-109"/>
			<point x="368" y="-109" type="curve"/>
			<point x="368" y="-55" type="line"/>
			<point x="248" y="-51"/>
			<point x="202" y="-93"/>
			<point x="202" y="-156" type="curve" smooth="yes"/>
			<point x="202" y="-219"/>
			<point x="248" y="-261"/>
		</contour>
		<contour>
			<point name="_belowLC" x="300" y="-20" type="move"/>
		</contour>
	</outline>
</glyph>
<glyph name="downtackbelowcmb" format="1">
	<unicode hex="031E"/>
	<advance width="600"/>
	<outline>
		<contour>
			<point x="258" y="-257" type="line"/>
			<point x="342" y="-257" type="line"/>
			<point x="342" y="-152" type="line"/>
			<point x="427" y="-152" type="line"/>
			<point x="427" y="-82" type="line"/>
			<point x="173" y="-82" type="line"/>
			<point x="173" y="-152" type="line"/>
			<point x="258" y="-152" type="line"/>
		</contour>
		<contour>
			<point name="_belowLC" x="300" y="-20" type="move"/>
		</contour>
	</outline>
</glyph>
<glyph name="plusbelowcmb" format="2">
	<unicode hex="031F"/>
	<advance width="600"/>
	<outline>
		<contour>
			<point x="258" y="-257" type="line"/>
			<point x="342" y="-257" type="line"/>
			<point x="342" y="-191" type="line"/>
			<point x="427" y="-191" type="line"/>
			<point x="427" y="-120" type="line"/>
			<point x="342" y="-120" type="line"/>
			<point x="342" y="-54" type="line"/>
			<point x="258" y="-54" type="line"/>
			<point x="258" y="-120" type="line"/>
			<point x="173" y="-120" type="line"/>
			<point x="173" y="-191" type="line"/>
			<point x="258" y="-191" type="line"/>
		</contour>
	</outline>
	<anchor name="_belowLC" x="300" y="-20"/>
</glyph>
<glyph name="bridgebelowcmb" format="1">
	<unicode hex="032A"/>
	<advance width="600"/>
	<outline>
		<contour>
			<point x="169" y="-220" type="line"/>
			<point x="245" y="-220" type="line"/>
			<point x="245" y="-149" type="line"/>
			<point x="355" y="-149" type="line"/>
			<point x="355" y="-220" type="line"/>
			<point x="431" y="-220" type="line"/>
			<point x="431" y="-78" type="line"/>
			<point x="169" y="-78" type="line"/>
		</contour>
		<contour>
			<point name="_belowLC" x="300" y="-20" type="move"/>
		</contour>
	</outline>
</glyph>
<glyph name="bridgeinvertedbelowcmb" format="1">
	<unicode hex="033A"/>
	<advance width="600"/>
	<outline>
		<contour>
			<point x="169" y="-214" type="line"/>
			<point x="431" y="-214" type="line"/>
			<point x="431" y="-72" type="line"/>
			<point x="355" y="-72" type="line"/>
			<point x="355" y="-143" type="line"/>
			<point x="245" y="-143" type="line"/>
			<point x="245" y="-72" type="line"/>
			<point x="169" y="-72" type="line"/>
		</contour>
		<contour>
			<point name="_belowLC" x="300" y="-20" type="move"/>
		</contour>
	</outline>
</glyph>
<glyph name="squarebelowcmb" format="1">
	<unicode hex="033B"/>
	<advance width="600"/>
	<outline>
		<contour>
			<point x="169" y="-247" type="line"/>
			<point x="431" y="-247" type="line"/>
			<point x="431" y="-66" type="line"/>
			<point x="169" y="-66" type="line"/>
		</contour>
		<contour>
			<point x="245" y="-193" type="line"/>
			<point x="245" y="-119" type="line"/>
			<point x="355" y="-119" type="line"/>
			<point x="355" y="-193" type="line"/>
		</contour>
		<contour>
			<point name="_belowLC" x="300" y="-20" type="move"/>
		</contour>
	</outline>
</glyph>
<glyph name="dieresistonoscmb" format="2">
	<unicode hex="0344"/>
	<advance width="600"/>
	<outline>
		<contour>
			<point x="164" y="584" type="curve" smooth="yes"/>
			<point x="197" y="584"/>
			<point x="224" y="608"/>
			<point x="224" y="644" type="curve" smooth="yes"/>
			<point x="224" y="681"/>
			<point x="197" y="704"/>
			<point x="164" y="704" type="curve" smooth="yes"/>
			<point x="131" y="704"/>
			<point x="104" y="681"/>
			<point x="104" y="644" type="curve" smooth="yes"/>
			<point x="104" y="608"/>
			<point x="131" y="584"/>
		</contour>
		<contour>
			<point x="248" y="581" type="line"/>
			<point x="313" y="570" type="line"/>
			<point x="390" y="813" type="line"/>
			<point x="286" y="830" type="line"/>
		</contour>
		<contour>
			<point x="436" y="584" type="curve" smooth="yes"/>
			<point x="469" y="584"/>
			<point x="496" y="608"/>
			<point x="496" y="644" type="curve" smooth="yes"/>
			<point x="496" y="681"/>
			<point x="469" y="704"/>
			<point x="436" y="704" type="curve" smooth="yes"/>
			<point x="403" y="704"/>
			<point x="376" y="681"/>
			<point x="376" y="644" type="curve" smooth="yes"/>
			<point x="376" y="608"/>
			<point x="403" y="584"/>
		</contour>
	</outline>
	<anchor name="_aboveLC" x="300" y="516"/>
</glyph>
<glyph name="Epsilontonos" format="2">
	<unicode hex="0388"/>
	<advance width="600"/>
	<outline>
		<contour>
			<point x="210" y="0" type="line"/>
			<point x="534" y="0" type="line"/>
			<point x="534" y="124" type="line"/>
			<point x="341" y="124" type="line"/>
			<point x="341" y="274" type="line"/>
			<point x="481" y="274" type="line"/>
			<point x="481" y="397" type="line"/>
			<point x="341" y="397" type="line"/>
			<point x="341" y="528" type="line"/>
			<point x="524" y="528" type="line"/>
			<point x="524" y="652" type="line"/>
			<point x="210" y="652" type="line"/>
		</contour>
		<component base="tonos.cap" xOffset="-212"/>
	</outline>
</glyph>
<glyph name="Etatonos" format="1">
	<unicode hex="0389"/>
	<advance width="600"/>
	<outline>
		<contour>
			<point x="197" y="0" type="line"/>
			<point x="328" y="0" type="line"/>
			<point x="328" y="272" type="line"/>
			<point x="422" y="272" type="line"/>
			<point x="422" y="0" type="line"/>
			<point x="552" y="0" type="line"/>
			<point x="552" y="652" type="line"/>
			<point x="422" y="652" type="line"/>
			<point x="422" y="401" type="line"/>
			<point x="328" y="401" type="line"/>
			<point x="328" y="652" type="line"/>
			<point x="197" y="652" type="line"/>
		</contour>
		<component base="tonos.cap" xOffset="-212"/>
	</outline>
</glyph>
<glyph name="Iotatonos" format="1">
	<unicode hex="038A"/>
	<advance width="600"/>
	<outline>
		<contour>
			<point x="200" y="0" type="line"/>
			<point x="526" y="0" type="line"/>
			<point x="526" y="124" type="line"/>
			<point x="437" y="124" type="line"/>
			<point x="437" y="528" type="line"/>
			<point x="526" y="528" type="line"/>
			<point x="526" y="652" type="line"/>
			<point x="200" y="652" type="line"/>
			<point x="200" y="528" type="line"/>
			<point x="289" y="528" type="line"/>
			<point x="289" y="124" type="line"/>
			<point x="200" y="124" type="line"/>
		</contour>
		<component base="tonos.cap" xOffset="-212"/>
	</outline>
</glyph>
<glyph name="Xi" format="1">
	<unicode hex="039E"/>
	<advance width="600"/>
	<outline>
		<contour>
			<point x="66" y="0" type="line"/>
			<point x="534" y="0" type="line"/>
			<point x="534" y="124" type="line"/>
			<point x="66" y="124" type="line"/>
		</contour>
		<contour>
			<point x="134" y="274" type="line"/>
			<point x="466" y="274" type="line"/>
			<point x="466" y="397" type="line"/>
			<point x="134" y="397" type="line"/>
		</contour>
		<contour>
			<point x="76" y="528" type="line"/>
			<point x="524" y="528" type="line"/>
			<point x="524" y="652" type="line"/>
			<point x="76" y="652" type="line"/>
		</contour>
	</outline>
</glyph>
<glyph name="Psi" format="1">
	<unicode hex="03A8"/>
	<advance width="600"/>
	<outline>
		<contour>
			<point x="273" y="217" type="curve"/>
			<point x="327" y="217" type="line" smooth="yes"/>
			<point x="483" y="217"/>
			<point x="579" y="293"/>
			<point x="579" y="451" type="curve" smooth="yes"/>
			<point x="579" y="652" type="line"/>
			<point x="443" y="652" type="line"/>
			<point x="443" y="459" type="line" smooth="yes"/>
			<point x="443" y="372"/>
			<point x="406" y="333"/>
			<point x="335" y="333" type="curve" smooth="yes"/>
			<point x="265" y="333" type="line" smooth="yes"/>
			<point x="194" y="333"/>
			<point x="157" y="372"/>
			<point x="157" y="459" type="curve" smooth="yes"/>
			<point x="157" y="652" type="line"/>
			<point x="21" y="652" type="line"/>
			<point x="21" y="451" type="line" smooth="yes"/>
			<point x="21" y="293"/>
			<point x="117" y="217"/>
		</contour>
		<contour>
			<point x="238" y="0" type="line"/>
			<point x="362" y="0" type="line"/>
			<point x="362" y="652" type="line"/>
			<point x="238" y="652" type="line"/>
		</contour>
	</outline>
</glyph>
<glyph name="Omega" format="2">
	<unicode hex="03A9"/>
	<advance width="600"/>
	<outline>
		<contour>
			<point x="31" y="0" type="line"/>
			<point x="258" y="0" type="line"/>
			<point x="258" y="106" type="line"/>
			<point x="210" y="182"/>
			<point x="189" y="241"/>
			<point x="189" y="343" type="curve" smooth="yes"/>
			<point x="189" y="456"/>
			<point x="228" y="537"/>
			<point x="300" y="537" type="curve" smooth="yes"/>
			<point x="372" y="537"/>
			<point x="411" y="456"/>
			<point x="411" y="343" type="curve" smooth="yes"/>
			<point x="411" y="241"/>
			<point x="390" y="182"/>
			<point x="342" y="106" type="curve"/>
			<point x="342" y="0" type="line"/>
			<point x="569" y="0" type="line"/>
			<point x="569" y="119" type="line"/>
			<point x="469" y="119" type="line"/>
			<point x="469" y="123" type="line"/>
			<point x="512" y="167"/>
			<point x="562" y="250"/>
			<point x="562" y="358" type="curve" smooth="yes"/>
			<point x="562" y="539"/>
			<point x="459" y="664"/>
			<point x="300" y="664" type="curve" smooth="yes"/>
			<point x="141" y="664"/>
			<point x="38" y="539"/>
			<point x="38" y="358" type="curve" smooth="yes"/>
			<point x="38" y="250"/>
			<point x="88" y="167"/>
			<point x="131" y="123" type="curve"/>
			<point x="131" y="119" type="line"/>
			<point x="31" y="119" type="line"/>
		</contour>
	</outline>
	<anchor name="aboveUC" x="300" y="672"/>
	<anchor name="belowLC" x="300" y="-20"/>
</glyph>
<glyph name="alpha" format="2">
	<unicode hex="03B1"/>
	<advance width="600"/>
	<outline>
		<contour>
			<point x="238" y="-12" type="curve" smooth="yes"/>
			<point x="295" y="-12"/>
			<point x="337" y="14"/>
			<point x="372" y="70" type="curve"/>
			<point x="375" y="70" type="line"/>
			<point x="393" y="10"/>
			<point x="434" y="-12"/>
			<point x="503" y="-12" type="curve" smooth="yes"/>
			<point x="543" y="-12"/>
			<point x="572" y="-4"/>
			<point x="590" y="5" type="curve"/>
			<point x="572" y="113" type="line"/>
			<point x="561" y="109"/>
			<point x="549" y="107"/>
			<point x="540" y="107" type="curve" smooth="yes"/>
			<point x="512" y="107"/>
			<point x="492" y="119"/>
			<point x="492" y="152" type="curve" smooth="yes"/>
			<point x="492" y="228"/>
			<point x="530" y="381"/>
			<point x="556" y="496" type="curve"/>
			<point x="411" y="496" type="line"/>
			<point x="395" y="409" type="line"/>
			<point x="392" y="409" type="line"/>
			<point x="359" y="483"/>
			<point x="308" y="508"/>
			<point x="250" y="508" type="curve" smooth="yes"/>
			<point x="143" y="508"/>
			<point x="42" y="410"/>
			<point x="42" y="246" type="curve" smooth="yes"/>
			<point x="42" y="84"/>
			<point x="120" y="-12"/>
		</contour>
		<contour>
			<point x="273" y="108" type="curve" smooth="yes"/>
			<point x="224" y="108"/>
			<point x="193" y="151"/>
			<point x="193" y="247" type="curve" smooth="yes"/>
			<point x="193" y="346"/>
			<point x="237" y="388"/>
			<point x="281" y="388" type="curve" smooth="yes"/>
			<point x="311" y="388"/>
			<point x="346" y="360"/>
			<point x="366" y="301" type="curve"/>
			<point x="360" y="215" type="line" smooth="yes"/>
			<point x="355" y="156"/>
			<point x="315" y="108"/>
		</contour>
	</outline>
	<anchor name="aboveLC" x="328" y="516"/>
	<anchor name="belowLC" x="301" y="-20"/>
</glyph>
<glyph name="gamma" format="2">
	<unicode hex="03B3"/>
	<advance width="600"/>
	<outline>
		<contour>
			<point x="218" y="-177" type="curve"/>
			<point x="370" y="-177" type="line"/>
			<point x="370" y="-121"/>
			<point x="368" y="-49"/>
			<point x="357" y="13" type="curve"/>
			<point x="490" y="216"/>
			<point x="530" y="328"/>
			<point x="561" y="496" type="curve"/>
			<point x="415" y="496" type="line"/>
			<point x="406" y="376"/>
			<point x="373" y="272"/>
			<point x="319" y="166" type="curve"/>
			<point x="315" y="166" type="line"/>
			<point x="278" y="308"/>
			<point x="218" y="440"/>
			<point x="171" y="508" type="curve"/>
			<point x="21" y="476" type="line"/>
			<point x="132" y="323"/>
			<point x="225" y="83"/>
			<point x="225" y="-41" type="curve" smooth="yes"/>
			<point x="225" y="-109"/>
			<point x="223" y="-136"/>
		</contour>
	</outline>
</glyph>
<glyph name="theta" format="2">
	<unicode hex="03B8"/>
	<advance width="600"/>
	<outline>
		<contour>
			<point x="300" y="-12" type="curve" smooth="yes"/>
			<point x="447" y="-12"/>
			<point x="545" y="108"/>
			<point x="545" y="352" type="curve" smooth="yes"/>
			<point x="545" y="596"/>
			<point x="447" y="713"/>
			<point x="300" y="713" type="curve" smooth="yes"/>
			<point x="153" y="713"/>
			<point x="55" y="596"/>
			<point x="55" y="352" type="curve" smooth="yes"/>
			<point x="55" y="108"/>
			<point x="153" y="-12"/>
		</contour>
		<contour>
			<point x="300" y="107" type="curve" smooth="yes"/>
			<point x="242" y="107"/>
			<point x="197" y="155"/>
			<point x="197" y="352" type="curve" smooth="yes"/>
			<point x="197" y="551"/>
			<point x="242" y="594"/>
			<point x="300" y="594" type="curve" smooth="yes"/>
			<point x="358" y="594"/>
			<point x="403" y="551"/>
			<point x="403" y="352" type="curve" smooth="yes"/>
			<point x="403" y="155"/>
			<point x="358" y="107"/>
		</contour>
		<contour>
			<point x="134" y="304" type="line"/>
			<point x="466" y="304" type="line"/>
			<point x="466" y="401" type="line"/>
			<point x="134" y="401" type="line"/>
		</contour>
	</outline>
</glyph>
<glyph name="mu" format="1">
	<unicode hex="03BC"/>
	<advance width="600"/>
	<outline>
		<contour>
			<point x="64" y="-196" type="line"/>
			<point x="212" y="-196" type="line"/>
			<point x="205" y="-122"/>
			<point x="203" y="-62"/>
			<point x="202" y="18" type="curve"/>
			<point x="219" y="-3"/>
			<point x="246" y="-7"/>
			<point x="271" y="-7" type="curve" smooth="yes"/>
			<point x="319" y="-7"/>
			<point x="362" y="24"/>
			<point x="389" y="81" type="curve"/>
			<point x="392" y="81" type="line"/>
			<point x="409" y="18"/>
			<point x="446" y="-12"/>
			<point x="511" y="-12" type="curve" smooth="yes"/>
			<point x="544" y="-12"/>
			<point x="569" y="-7"/>
			<point x="585" y="0" type="curve"/>
			<point x="567" y="109" type="line"/>
			<point x="559" y="107"/>
			<point x="555" y="107"/>
			<point x="549" y="107" type="curve" smooth="yes"/>
			<point x="529" y="107"/>
			<point x="514" y="117"/>
			<point x="514" y="148" type="curve" smooth="yes"/>
			<point x="514" y="231"/>
			<point x="519" y="380"/>
			<point x="524" y="496" type="curve"/>
			<point x="376" y="496" type="line"/>
			<point x="376" y="188" type="line"/>
			<point x="347" y="133"/>
			<point x="317" y="113"/>
			<point x="278" y="113" type="curve" smooth="yes"/>
			<point x="234" y="113"/>
			<point x="211" y="138"/>
			<point x="211" y="209" type="curve" smooth="yes"/>
			<point x="211" y="496" type="line"/>
			<point x="64" y="496" type="line"/>
		</contour>
	</outline>
</glyph>
<glyph name="omicron" format="1">
	<unicode hex="03BF"/>
	<advance width="600"/>
	<outline>
		<contour>
			<point x="300" y="-12" type="curve" smooth="yes"/>
			<point x="431" y="-12"/>
			<point x="549" y="83"/>
			<point x="549" y="248" type="curve" smooth="yes"/>
			<point x="549" y="413"/>
			<point x="431" y="508"/>
			<point x="300" y="508" type="curve" smooth="yes"/>
			<point x="169" y="508"/>
			<point x="51" y="413"/>
			<point x="51" y="248" type="curve" smooth="yes"/>
			<point x="51" y="83"/>
			<point x="169" y="-12"/>
		</contour>
		<contour>
			<point x="300" y="107" type="curve" smooth="yes"/>
			<point x="234" y="107"/>
			<point x="202" y="162"/>
			<point x="202" y="248" type="curve" smooth="yes"/>
			<point x="202" y="334"/>
			<point x="234" y="389"/>
			<point x="300" y="389" type="curve" smooth="yes"/>
			<point x="366" y="389"/>
			<point x="398" y="334"/>
			<point x="398" y="248" type="curve" smooth="yes"/>
			<point x="398" y="162"/>
			<point x="366" y="107"/>
		</contour>
		<contour>
			<point name="aboveLC" x="300" y="516" type="move"/>
		</contour>
	</outline>
</glyph>
<glyph name="rho" format="1">
	<unicode hex="03C1"/>
	<advance width="600"/>
	<outline>
		<contour>
			<point x="72" y="-177" type="line"/>
			<point x="221" y="-177" type="line"/>
			<point x="217" y="-104"/>
			<point x="214" y="-33"/>
			<point x="211" y="43" type="curve"/>
			<point x="246" y="0"/>
			<point x="296" y="-12"/>
			<point x="341" y="-12" type="curve" smooth="yes"/>
			<point x="449" y="-12"/>
			<point x="553" y="86"/>
			<point x="553" y="256" type="curve" smooth="yes"/>
			<point x="553" y="415"/>
			<point x="464" y="508"/>
			<point x="315" y="508" type="curve" smooth="yes"/>
			<point x="177" y="508"/>
			<point x="72" y="425"/>
			<point x="72" y="237" type="curve" smooth="yes"/>
		</contour>
		<contour>
			<point x="307" y="108" type="curve" smooth="yes"/>
			<point x="275" y="108"/>
			<point x="242" y="114"/>
			<point x="211" y="148" type="curve"/>
			<point x="211" y="251" type="line" smooth="yes"/>
			<point x="211" y="335"/>
			<point x="253" y="388"/>
			<point x="310" y="388" type="curve" smooth="yes"/>
			<point x="373" y="388"/>
			<point x="402" y="343"/>
			<point x="402" y="254" type="curve" smooth="yes"/>
			<point x="402" y="152"/>
			<point x="359" y="108"/>
		</contour>
		<contour>
			<point name="aboveLC" x="332" y="516" type="move"/>
		</contour>
	</outline>
</glyph>
<glyph name="phi" format="1">
	<unicode hex="03C6"/>
	<advance width="600"/>
	<outline>
		<contour>
			<point x="254" y="-8" type="curve"/>
			<point x="246" y="102" type="line"/>
			<point x="191" y="103"/>
			<point x="154" y="153"/>
			<point x="154" y="248" type="curve" smooth="yes"/>
			<point x="154" y="343"/>
			<point x="191" y="393"/>
			<point x="246" y="394" type="curve"/>
			<point x="254" y="504" type="line"/>
			<point x="135" y="503"/>
			<point x="25" y="413"/>
			<point x="25" y="248" type="curve" smooth="yes"/>
			<point x="25" y="83"/>
			<point x="135" y="-7"/>
		</contour>
		<contour>
			<point x="346" y="-8" type="line"/>
			<point x="465" y="-7"/>
			<point x="575" y="83"/>
			<point x="575" y="248" type="curve" smooth="yes"/>
			<point x="575" y="413"/>
			<point x="465" y="503"/>
			<point x="346" y="504" type="curve"/>
			<point x="354" y="394" type="line"/>
			<point x="410" y="393"/>
			<point x="446" y="343"/>
			<point x="446" y="248" type="curve" smooth="yes"/>
			<point x="446" y="153"/>
			<point x="410" y="103"/>
			<point x="354" y="102" type="curve"/>
		</contour>
		<contour>
			<point x="238" y="-177" type="line"/>
			<point x="362" y="-177" type="line"/>
			<point x="362" y="628" type="line"/>
			<point x="238" y="628" type="line"/>
		</contour>
	</outline>
</glyph>
<glyph name="psi" format="1">
	<unicode hex="03C8"/>
	<advance width="600"/>
	<outline>
		<contour>
			<point x="250" y="-12" type="curve"/>
			<point x="242" y="103" type="line"/>
			<point x="180" y="103"/>
			<point x="161" y="153"/>
			<point x="161" y="209" type="curve" smooth="yes"/>
			<point x="161" y="250"/>
			<point x="163" y="329"/>
			<point x="163" y="374" type="curve" smooth="yes"/>
			<point x="163" y="420"/>
			<point x="161" y="462"/>
			<point x="154" y="496" type="curve"/>
			<point x="19" y="496" type="line"/>
			<point x="28" y="441"/>
			<point x="30" y="383"/>
			<point x="30" y="344" type="curve" smooth="yes"/>
			<point x="30" y="221" type="line" smooth="yes"/>
			<point x="30" y="94"/>
			<point x="86" y="-12"/>
		</contour>
		<contour>
			<point x="353" y="-12" type="line"/>
			<point x="503" y="-12"/>
			<point x="581" y="87"/>
			<point x="581" y="264" type="curve" smooth="yes"/>
			<point x="581" y="347"/>
			<point x="569" y="430"/>
			<point x="543" y="508" type="curve"/>
			<point x="412" y="477" type="line"/>
			<point x="439" y="389"/>
			<point x="445" y="323"/>
			<point x="445" y="257" type="curve" smooth="yes"/>
			<point x="445" y="143"/>
			<point x="414" y="103"/>
			<point x="353" y="103" type="curve"/>
		</contour>
		<contour>
			<point x="239" y="-177" type="line"/>
			<point x="362" y="-177" type="line"/>
			<point x="362" y="628" type="line"/>
			<point x="239" y="628" type="line"/>
		</contour>
	</outline>
</glyph>
<glyph name="Nje" format="1">
	<unicode hex="040A"/>
	<advance width="600"/>
	<outline>
		<contour>
			<point x="30" y="0" type="line"/>
			<point x="160" y="0" type="line"/>
			<point x="160" y="272" type="line"/>
			<point x="273" y="272" type="line"/>
			<point x="273" y="400" type="line"/>
			<point x="160" y="400" type="line"/>
			<point x="160" y="652" type="line"/>
			<point x="30" y="652" type="line"/>
		</contour>
		<contour>
			<point x="246" y="0" type="line"/>
			<point x="390" y="0" type="line" smooth="yes"/>
			<point x="497" y="0"/>
			<point x="581" y="56"/>
			<point x="581" y="214" type="curve" smooth="yes"/>
			<point x="581" y="357"/>
			<point x="501" y="414"/>
			<point x="392" y="414" type="curve" smooth="yes"/>
			<point x="377" y="414" type="line"/>
			<point x="377" y="652" type="line"/>
			<point x="246" y="652" type="line"/>
		</contour>
		<contour>
			<point x="377" y="117" type="line"/>
			<point x="377" y="297" type="line"/>
			<point x="388" y="297" type="line" smooth="yes"/>
			<point x="434" y="297"/>
			<point x="456" y="274"/>
			<point x="456" y="212" type="curve" smooth="yes"/>
			<point x="456" y="139"/>
			<point x="432" y="117"/>
			<point x="389" y="117" type="curve" smooth="yes"/>
		</contour>
	</outline>
</glyph>
<glyph name="Be" format="1">
	<unicode hex="0411"/>
	<advance width="600"/>
	<outline>
		<contour>
			<point x="74" y="0" type="line"/>
			<point x="316" y="0" type="line" smooth="yes"/>
			<point x="453" y="0"/>
			<point x="562" y="58"/>
			<point x="562" y="207" type="curve" smooth="yes"/>
			<point x="562" y="350"/>
			<point x="449" y="397"/>
			<point x="312" y="397" type="curve" smooth="yes"/>
			<point x="221" y="397" type="line"/>
			<point x="221" y="528" type="line"/>
			<point x="520" y="528" type="line"/>
			<point x="520" y="652" type="line"/>
			<point x="74" y="652" type="line"/>
		</contour>
		<contour>
			<point x="221" y="115" type="line"/>
			<point x="221" y="287" type="line"/>
			<point x="300" y="287" type="line" smooth="yes"/>
			<point x="378" y="287"/>
			<point x="418" y="265"/>
			<point x="418" y="204" type="curve" smooth="yes"/>
			<point x="418" y="142"/>
			<point x="380" y="115"/>
			<point x="301" y="115" type="curve" smooth="yes"/>
		</contour>
	</outline>
</glyph>
<glyph name="Ze" format="2">
	<unicode hex="0417"/>
	<advance width="600"/>
	<outline>
		<contour>
			<point x="293" y="-12" type="curve" smooth="yes"/>
			<point x="442" y="-12"/>
			<point x="556" y="58"/>
			<point x="556" y="192" type="curve" smooth="yes"/>
			<point x="556" y="270"/>
			<point x="507" y="326"/>
			<point x="442" y="344" type="curve"/>
			<point x="442" y="348" type="line"/>
			<point x="496" y="373"/>
			<point x="525" y="426"/>
			<point x="525" y="489" type="curve" smooth="yes"/>
			<point x="525" y="597"/>
			<point x="441" y="664"/>
			<point x="287" y="664" type="curve" smooth="yes"/>
			<point x="205" y="664"/>
			<point x="127" y="634"/>
			<point x="67" y="581" type="curve"/>
			<point x="142" y="483" type="line"/>
			<point x="187" y="517"/>
			<point x="228" y="537"/>
			<point x="282" y="537" type="curve" smooth="yes"/>
			<point x="340" y="537"/>
			<point x="381" y="516"/>
			<point x="381" y="465" type="curve" smooth="yes"/>
			<point x="381" y="418"/>
			<point x="350" y="391"/>
			<point x="267" y="391" type="curve" smooth="yes"/>
			<point x="200" y="391" type="line"/>
			<point x="200" y="282" type="line"/>
			<point x="287" y="282" type="line" smooth="yes"/>
			<point x="372" y="282"/>
			<point x="412" y="258"/>
			<point x="412" y="203" type="curve" smooth="yes"/>
			<point x="412" y="147"/>
			<point x="363" y="115"/>
			<point x="291" y="115" type="curve" smooth="yes"/>
			<point x="230" y="115"/>
			<point x="175" y="136"/>
			<point x="124" y="183" type="curve"/>
			<point x="46" y="81" type="line"/>
			<point x="117" y="15"/>
			<point x="205" y="-12"/>
		</contour>
	</outline>
	<anchor name="aboveUC" x="318" y="672"/>
</glyph>
<glyph name="Ka" format="1">
	<unicode hex="041A"/>
	<advance width="600"/>
	<outline>
		<contour>
			<point x="69" y="0" type="line"/>
			<point x="216" y="0" type="line"/>
			<point x="216" y="274" type="line"/>
			<point x="276" y="274" type="line"/>
			<point x="436" y="0" type="line"/>
			<point x="594" y="0" type="line"/>
			<point x="362" y="397" type="line"/>
			<point x="216" y="397" type="line"/>
			<point x="216" y="652" type="line"/>
			<point x="69" y="652" type="line"/>
		</contour>
		<contour>
			<point x="388" y="342" type="line"/>
			<point x="450" y="467" type="line" smooth="yes"/>
			<point x="474" y="514"/>
			<point x="493" y="526"/>
			<point x="523" y="526" type="curve" smooth="yes"/>
			<point x="529" y="526"/>
			<point x="540" y="526"/>
			<point x="551" y="522" type="curve"/>
			<point x="575" y="655" type="line"/>
			<point x="561" y="662"/>
			<point x="540" y="664"/>
			<point x="522" y="664" type="curve" smooth="yes"/>
			<point x="448" y="664"/>
			<point x="395" y="637"/>
			<point x="350" y="546" type="curve" smooth="yes"/>
			<point x="261" y="371" type="line"/>
		</contour>
		<contour>
			<point name="aboveUC" x="326" y="672" type="move"/>
		</contour>
	</outline>
</glyph>
<glyph name="Ef" format="1">
	<unicode hex="0424"/>
	<advance width="600"/>
	<outline>
		<contour>
			<point x="295" y="75" type="curve"/>
			<point x="305" y="75" type="line" smooth="yes"/>
			<point x="482" y="75"/>
			<point x="584" y="159"/>
			<point x="584" y="329" type="curve" smooth="yes"/>
			<point x="584" y="498"/>
			<point x="482" y="579"/>
			<point x="305" y="579" type="curve" smooth="yes"/>
			<point x="295" y="579" type="line" smooth="yes"/>
			<point x="118" y="579"/>
			<point x="16" y="498"/>
			<point x="16" y="329" type="curve" smooth="yes"/>
			<point x="16" y="159"/>
			<point x="118" y="75"/>
		</contour>
		<contour>
			<point x="283" y="184" type="line" smooth="yes"/>
			<point x="190" y="184"/>
			<point x="146" y="230"/>
			<point x="146" y="329" type="curve" smooth="yes"/>
			<point x="146" y="428"/>
			<point x="190" y="470"/>
			<point x="283" y="470" type="curve" smooth="yes"/>
			<point x="317" y="470" type="line" smooth="yes"/>
			<point x="410" y="470"/>
			<point x="454" y="428"/>
			<point x="454" y="329" type="curve" smooth="yes"/>
			<point x="454" y="230"/>
			<point x="410" y="184"/>
			<point x="317" y="184" type="curve" smooth="yes"/>
		</contour>
		<contour>
			<point x="242" y="-12" type="line"/>
			<point x="358" y="-12" type="line"/>
			<point x="358" y="664" type="line"/>
			<point x="242" y="664" type="line"/>
		</contour>
	</outline>
</glyph>
<glyph name="Tse" format="2">
	<unicode hex="0426"/>
	<advance width="600"/>
	<outline>
		<contour>
			<point x="64" y="0" type="line"/>
			<point x="531" y="0" type="line"/>
			<point x="531" y="652" type="line"/>
			<point x="384" y="652" type="line"/>
			<point x="384" y="124" type="line"/>
			<point x="211" y="124" type="line"/>
			<point x="211" y="652" type="line"/>
			<point x="64" y="652" type="line"/>
		</contour>
		<contour>
			<point x="471" y="-188" type="line"/>
			<point x="593" y="-188" type="line"/>
			<point x="606" y="32" type="line"/>
			<point x="606" y="124" type="line"/>
			<point x="444" y="124" type="line"/>
			<point x="444" y="0" type="line"/>
			<point x="471" y="0" type="line"/>
		</contour>
	</outline>
</glyph>
<glyph name="Che" format="1">
	<unicode hex="0427"/>
	<advance width="600"/>
	<outline>
		<contour>
			<point x="392" y="0" type="line"/>
			<point x="540" y="0" type="line"/>
			<point x="540" y="652" type="line"/>
			<point x="392" y="652" type="line"/>
			<point x="392" y="381" type="line"/>
			<point x="371" y="377"/>
			<point x="346" y="374"/>
			<point x="308" y="374" type="curve" smooth="yes"/>
			<point x="226" y="374"/>
			<point x="189" y="405"/>
			<point x="189" y="496" type="curve" smooth="yes"/>
			<point x="189" y="652" type="line"/>
			<point x="45" y="652" type="line"/>
			<point x="45" y="496" type="line" smooth="yes"/>
			<point x="45" y="320"/>
			<point x="138" y="257"/>
			<point x="292" y="257" type="curve" smooth="yes"/>
			<point x="336" y="257"/>
			<point x="363" y="259"/>
			<point x="392" y="264" type="curve"/>
		</contour>
	</outline>
</glyph>
<glyph name="Sha" format="2">
	<unicode hex="0428"/>
	<advance width="600"/>
	<outline>
		<contour>
			<point x="30" y="0" type="line"/>
			<point x="570" y="0" type="line"/>
			<point x="570" y="652" type="line"/>
			<point x="439" y="652" type="line"/>
			<point x="439" y="124" type="line"/>
			<point x="360" y="124" type="line"/>
			<point x="360" y="652" type="line"/>
			<point x="240" y="652" type="line"/>
			<point x="240" y="124" type="line"/>
			<point x="161" y="124" type="line"/>
			<point x="161" y="652" type="line"/>
			<point x="30" y="652" type="line"/>
		</contour>
	</outline>
</glyph>
<glyph name="Yu" format="1">
	<unicode hex="042E"/>
	<advance width="600"/>
	<outline>
		<contour>
			<point x="31" y="0" type="line"/>
			<point x="164" y="0" type="line"/>
			<point x="164" y="272" type="line"/>
			<point x="290" y="272" type="line"/>
			<point x="290" y="400" type="line"/>
			<point x="164" y="400" type="line"/>
			<point x="164" y="652" type="line"/>
			<point x="31" y="652" type="line"/>
		</contour>
		<contour>
			<point x="386" y="-12" type="curve" smooth="yes"/>
			<point x="510" y="-12"/>
			<point x="580" y="95"/>
			<point x="580" y="329" type="curve" smooth="yes"/>
			<point x="580" y="563"/>
			<point x="510" y="664"/>
			<point x="386" y="664" type="curve" smooth="yes"/>
			<point x="280" y="664"/>
			<point x="212" y="563"/>
			<point x="212" y="329" type="curve" smooth="yes"/>
			<point x="212" y="95"/>
			<point x="280" y="-12"/>
		</contour>
		<contour>
			<point x="386" y="115" type="curve" smooth="yes"/>
			<point x="353" y="115"/>
			<point x="334" y="161"/>
			<point x="334" y="329" type="curve" smooth="yes"/>
			<point x="334" y="497"/>
			<point x="353" y="537"/>
			<point x="386" y="537" type="curve" smooth="yes"/>
			<point x="420" y="537"/>
			<point x="438" y="497"/>
			<point x="438" y="329" type="curve" smooth="yes"/>
			<point x="438" y="161"/>
			<point x="420" y="115"/>
		</contour>
		<contour>
			<point name="aboveUC" x="313" y="672" type="move"/>
		</contour>
	</outline>
</glyph>
<glyph name="Ya" format="2">
	<unicode hex="042F"/>
	<advance width="600"/>
	<outline>
		<contour>
			<point x="384" y="0" type="line"/>
			<point x="531" y="0" type="line"/>
			<point x="531" y="652" type="line"/>
			<point x="296" y="652" type="line" smooth="yes"/>
			<point x="158" y="652"/>
			<point x="45" y="604"/>
			<point x="45" y="449" type="curve" smooth="yes"/>
			<point x="45" y="299"/>
			<point x="158" y="236"/>
			<point x="293" y="235" type="curve"/>
			<point x="384" y="235" type="line"/>
		</contour>
		<contour>
			<point x="308" y="352" type="line" smooth="yes"/>
			<point x="231" y="352"/>
			<point x="189" y="385"/>
			<point x="189" y="449" type="curve" smooth="yes"/>
			<point x="189" y="513"/>
			<point x="231" y="535"/>
			<point x="308" y="535" type="curve" smooth="yes"/>
			<point x="384" y="535" type="line"/>
			<point x="384" y="352" type="line"/>
		</contour>
		<contour>
			<point x="3" y="0" type="line"/>
			<point x="172" y="0" type="line"/>
			<point x="333" y="273" type="line"/>
			<point x="233" y="351" type="line"/>
		</contour>
	</outline>
	<anchor name="aboveUC" x="318" y="672"/>
</glyph>
<glyph name="be" format="1">
	<unicode hex="0431"/>
	<advance width="600"/>
	<outline>
		<contour>
			<point x="307" y="-12" type="curve" smooth="yes"/>
			<point x="444" y="-12"/>
			<point x="542" y="89"/>
			<point x="542" y="242" type="curve" smooth="yes"/>
			<point x="542" y="394"/>
			<point x="454" y="471"/>
			<point x="349" y="471" type="curve" smooth="yes"/>
			<point x="286" y="471"/>
			<point x="228" y="445"/>
			<point x="193" y="395" type="curve"/>
			<point x="200" y="301" type="line"/>
			<point x="231" y="347"/>
			<point x="270" y="363"/>
			<point x="305" y="363" type="curve" smooth="yes"/>
			<point x="358" y="363"/>
			<point x="391" y="330"/>
			<point x="391" y="242" type="curve" smooth="yes"/>
			<point x="391" y="159"/>
			<point x="363" y="107"/>
			<point x="306" y="107" type="curve" smooth="yes"/>
			<point x="240" y="107"/>
			<point x="200" y="163"/>
			<point x="200" y="275" type="curve" smooth="yes"/>
			<point x="200" y="536"/>
			<point x="227" y="541"/>
			<point x="405" y="565" type="curve" smooth="yes"/>
			<point x="451" y="571"/>
			<point x="497" y="582"/>
			<point x="523" y="602" type="curve"/>
			<point x="495" y="730" type="line"/>
			<point x="463" y="716"/>
			<point x="436" y="709"/>
			<point x="375" y="701" type="curve" smooth="yes"/>
			<point x="189" y="675"/>
			<point x="60" y="606"/>
			<point x="60" y="310" type="curve" smooth="yes"/>
			<point x="60" y="109"/>
			<point x="149" y="-12"/>
		</contour>
	</outline>
</glyph>
<glyph name="ve" format="2">
	<unicode hex="0432"/>
	<advance width="600"/>
	<outline>
		<contour>
			<point x="84" y="0" type="line"/>
			<point x="331" y="0" type="line" smooth="yes"/>
			<point x="449" y="0"/>
			<point x="547" y="41"/>
			<point x="547" y="143" type="curve" smooth="yes"/>
			<point x="547" y="210"/>
			<point x="506" y="243"/>
			<point x="444" y="259" type="curve"/>
			<point x="444" y="263" type="line"/>
			<point x="503" y="279"/>
			<point x="528" y="323"/>
			<point x="528" y="365" type="curve" smooth="yes"/>
			<point x="528" y="464"/>
			<point x="435" y="496"/>
			<point x="318" y="496" type="curve" smooth="yes"/>
			<point x="84" y="496" type="line"/>
		</contour>
		<contour>
			<point x="228" y="303" type="line"/>
			<point x="228" y="397" type="line"/>
			<point x="310" y="397" type="line" smooth="yes"/>
			<point x="365" y="397"/>
			<point x="387" y="380"/>
			<point x="387" y="350" type="curve" smooth="yes"/>
			<point x="387" y="320"/>
			<point x="365" y="303"/>
			<point x="309" y="303" type="curve" smooth="yes"/>
		</contour>
		<contour>
			<point x="228" y="99" type="line"/>
			<point x="228" y="204" type="line"/>
			<point x="321" y="204" type="line" smooth="yes"/>
			<point x="379" y="204"/>
			<point x="404" y="182"/>
			<point x="404" y="153" type="curve" smooth="yes"/>
			<point x="404" y="120"/>
			<point x="382" y="99"/>
			<point x="322" y="99" type="curve" smooth="yes"/>
		</contour>
	</outline>
</glyph>
<glyph name="zhe" format="2">
	<unicode hex="0436"/>
	<advance width="600"/>
	<outline>
		<contour>
			<point x="2" y="0" type="line"/>
			<point x="137" y="0" type="line"/>
			<point x="202" y="204" type="line"/>
			<point x="244" y="204" type="line"/>
			<point x="244" y="0" type="line"/>
			<point x="356" y="0" type="line"/>
			<point x="356" y="204" type="line"/>
			<point x="398" y="204" type="line"/>
			<point x="463" y="0" type="line"/>
			<point x="598" y="0" type="line"/>
			<point x="470" y="303" type="line"/>
			<point x="356" y="303" type="line"/>
			<point x="356" y="496" type="line"/>
			<point x="244" y="496" type="line"/>
			<point x="244" y="303" type="line"/>
			<point x="130" y="303" type="line"/>
		</contour>
		<contour>
			<point x="123" y="242" type="line"/>
			<point x="229" y="260" type="line"/>
			<point x="178" y="408" type="line" smooth="yes"/>
			<point x="150" y="487"/>
			<point x="105" y="508"/>
			<point x="45" y="508" type="curve" smooth="yes"/>
			<point x="31" y="508"/>
			<point x="20" y="507"/>
			<point x="9" y="502" type="curve"/>
			<point x="27" y="365" type="line"/>
			<point x="33" y="367"/>
			<point x="40" y="369"/>
			<point x="47" y="369" type="curve" smooth="yes"/>
			<point x="67" y="369"/>
			<point x="83" y="361"/>
			<point x="94" y="327" type="curve" smooth="yes"/>
		</contour>
		<contour>
			<point x="477" y="242" type="line"/>
			<point x="506" y="327" type="line" smooth="yes"/>
			<point x="517" y="361"/>
			<point x="533" y="369"/>
			<point x="553" y="369" type="curve" smooth="yes"/>
			<point x="560" y="369"/>
			<point x="567" y="367"/>
			<point x="573" y="365" type="curve"/>
			<point x="591" y="502" type="line"/>
			<point x="580" y="507"/>
			<point x="569" y="508"/>
			<point x="555" y="508" type="curve" smooth="yes"/>
			<point x="495" y="508"/>
			<point x="450" y="487"/>
			<point x="422" y="408" type="curve" smooth="yes"/>
			<point x="371" y="260" type="line"/>
		</contour>
	</outline>
</glyph>
<glyph name="ze" format="1">
	<unicode hex="0437"/>
	<advance width="600"/>
	<outline>
		<contour>
			<point x="279" y="-12" type="curve" smooth="yes"/>
			<point x="428" y="-12"/>
			<point x="540" y="40"/>
			<point x="540" y="141" type="curve" smooth="yes"/>
			<point x="540" y="208"/>
			<point x="505" y="242"/>
			<point x="432" y="259" type="curve"/>
			<point x="432" y="263" type="line"/>
			<point x="500" y="282"/>
			<point x="520" y="325"/>
			<point x="520" y="366" type="curve" smooth="yes"/>
			<point x="520" y="465"/>
			<point x="421" y="508"/>
			<point x="277" y="508" type="curve" smooth="yes"/>
			<point x="196" y="508"/>
			<point x="124" y="488"/>
			<point x="57" y="444" type="curve"/>
			<point x="111" y="349" type="line"/>
			<point x="165" y="385"/>
			<point x="210" y="396"/>
			<point x="267" y="396" type="curve" smooth="yes"/>
			<point x="350" y="396"/>
			<point x="379" y="379"/>
			<point x="379" y="350" type="curve" smooth="yes"/>
			<point x="379" y="319"/>
			<point x="350" y="303"/>
			<point x="296" y="303" type="curve" smooth="yes"/>
			<point x="185" y="303" type="line"/>
			<point x="185" y="204" type="line"/>
			<point x="305" y="204" type="line" smooth="yes"/>
			<point x="366" y="204"/>
			<point x="396" y="190"/>
			<point x="396" y="156" type="curve" smooth="yes"/>
			<point x="396" y="120"/>
			<point x="357" y="100"/>
			<point x="264" y="100" type="curve" smooth="yes"/>
			<point x="218" y="100"/>
			<point x="160" y="115"/>
			<point x="105" y="153" type="curve"/>
			<point x="48" y="60" type="line"/>
			<point x="127" y="4"/>
			<point x="198" y="-12"/>
		</contour>
		<contour>
			<point name="aboveLC" x="315" y="516" type="move"/>
		</contour>
	</outline>
</glyph>
<glyph name="el" format="1">
	<unicode hex="043B"/>
	<advance width="600"/>
	<outline>
		<contour>
			<point x="73" y="-12" type="curve" smooth="yes"/>
			<point x="169" y="-12"/>
			<point x="223" y="49"/>
			<point x="240" y="160" type="curve" smooth="yes"/>
			<point x="250" y="233"/>
			<point x="259" y="308"/>
			<point x="267" y="381" type="curve"/>
			<point x="378" y="381" type="line"/>
			<point x="378" y="0" type="line"/>
			<point x="525" y="0" type="line"/>
			<point x="525" y="496" type="line"/>
			<point x="151" y="496" type="line"/>
			<point x="140" y="397"/>
			<point x="130" y="299"/>
			<point x="117" y="201" type="curve" smooth="yes"/>
			<point x="110" y="147"/>
			<point x="90" y="127"/>
			<point x="63" y="127" type="curve" smooth="yes"/>
			<point x="54" y="127"/>
			<point x="46" y="129"/>
			<point x="38" y="131" type="curve"/>
			<point x="14" y="-1" type="line"/>
			<point x="32" y="-8"/>
			<point x="50" y="-12"/>
		</contour>
		<contour>
			<point name="aboveLC" x="348" y="516" type="move"/>
		</contour>
	</outline>
</glyph>
<glyph name="pe" format="1">
	<unicode hex="043F"/>
	<advance width="600"/>
	<outline>
		<contour>
			<point x="72" y="0" type="line"/>
			<point x="219" y="0" type="line"/>
			<point x="219" y="381" type="line"/>
			<point x="381" y="381" type="line"/>
			<point x="381" y="0" type="line"/>
			<point x="528" y="0" type="line"/>
			<point x="528" y="496" type="line"/>
			<point x="72" y="496" type="line"/>
		</contour>
		<contour>
			<point name="aboveLC" x="300" y="516" type="move"/>
		</contour>
	</outline>
</glyph>
<glyph name="te" format="2">
	<unicode hex="0442"/>
	<advance width="600"/>
	<outline>
		<contour>
			<point x="226" y="0" type="line"/>
			<point x="374" y="0" type="line"/>
			<point x="374" y="381" type="line"/>
			<point x="550" y="381" type="line"/>
			<point x="550" y="496" type="line"/>
			<point x="50" y="496" type="line"/>
			<point x="50" y="381" type="line"/>
			<point x="226" y="381" type="line"/>
		</contour>
	</outline>
	<anchor name="aboveLC" x="300" y="516"/>
</glyph>
<glyph name="tse" format="2">
	<unicode hex="0446"/>
	<advance width="600"/>
	<outline>
		<contour>
			<point x="72" y="0" type="line"/>
			<point x="506" y="0" type="line"/>
			<point x="506" y="496" type="line"/>
			<point x="359" y="496" type="line"/>
			<point x="359" y="115" type="line"/>
			<point x="219" y="115" type="line"/>
			<point x="219" y="496" type="line"/>
			<point x="72" y="496" type="line"/>
		</contour>
		<contour>
			<point x="445" y="-172" type="line"/>
			<point x="571" y="-172" type="line"/>
			<point x="585" y="19" type="line"/>
			<point x="585" y="115" type="line"/>
			<point x="414" y="115" type="line"/>
			<point x="414" y="0" type="line"/>
			<point x="445" y="0" type="line"/>
		</contour>
	</outline>
	<anchor name="aboveLC" x="294" y="516"/>
</glyph>
<glyph name="sha" format="2">
	<unicode hex="0448"/>
	<advance width="600"/>
	<outline>
		<contour>
			<point x="35" y="0" type="line"/>
			<point x="565" y="0" type="line"/>
			<point x="565" y="496" type="line"/>
			<point x="433" y="496" type="line"/>
			<point x="433" y="115" type="line"/>
			<point x="360" y="115" type="line"/>
			<point x="360" y="496" type="line"/>
			<point x="240" y="496" type="line"/>
			<point x="240" y="115" type="line"/>
			<point x="167" y="115" type="line"/>
			<point x="167" y="496" type="line"/>
			<point x="35" y="496" type="line"/>
		</contour>
	</outline>
</glyph>
<glyph name="nje" format="1">
	<unicode hex="045A"/>
	<advance width="600"/>
	<outline>
		<contour>
			<point x="36" y="0" type="line"/>
			<point x="167" y="0" type="line"/>
			<point x="167" y="189" type="line"/>
			<point x="246" y="189" type="line"/>
			<point x="246" y="0" type="line"/>
			<point x="376" y="0" type="line"/>
			<point x="376" y="496" type="line"/>
			<point x="246" y="496" type="line"/>
			<point x="246" y="317" type="line"/>
			<point x="167" y="317" type="line"/>
			<point x="167" y="496" type="line"/>
			<point x="36" y="496" type="line"/>
		</contour>
		<contour>
			<point x="246" y="0" type="line"/>
			<point x="391" y="0" type="line" smooth="yes"/>
			<point x="498" y="0"/>
			<point x="575" y="43"/>
			<point x="575" y="172" type="curve" smooth="yes"/>
			<point x="575" y="295"/>
			<point x="498" y="338"/>
			<point x="391" y="338" type="curve" smooth="yes"/>
			<point x="376" y="338" type="line"/>
			<point x="376" y="496" type="line"/>
			<point x="246" y="496" type="line"/>
		</contour>
		<contour>
			<point x="376" y="112" type="line"/>
			<point x="376" y="229" type="line"/>
			<point x="384" y="229" type="line" smooth="yes"/>
			<point x="429" y="229"/>
			<point x="451" y="212"/>
			<point x="451" y="172" type="curve" smooth="yes"/>
			<point x="451" y="130"/>
			<point x="429" y="112"/>
			<point x="384" y="112" type="curve" smooth="yes"/>
		</contour>
	</outline>
</glyph>
<glyph name="Yat" format="1">
	<unicode hex="0462"/>
	<advance width="600"/>
	<outline>
		<contour>
			<point x="133" y="0" type="line"/>
			<point x="322" y="0" type="line" smooth="yes"/>
			<point x="463" y="0"/>
			<point x="572" y="52"/>
			<point x="572" y="209" type="curve" smooth="yes"/>
			<point x="572" y="341"/>
			<point x="458" y="388"/>
			<point x="317" y="388" type="curve" smooth="yes"/>
			<point x="280" y="388" type="line"/>
			<point x="280" y="696" type="line"/>
			<point x="133" y="696" type="line"/>
		</contour>
		<contour>
			<point x="280" y="114" type="line"/>
			<point x="280" y="284" type="line"/>
			<point x="308" y="284" type="line" smooth="yes"/>
			<point x="391" y="284"/>
			<point x="428" y="261"/>
			<point x="428" y="204" type="curve" smooth="yes"/>
			<point x="428" y="137"/>
			<point x="388" y="114"/>
			<point x="313" y="114" type="curve" smooth="yes"/>
		</contour>
		<contour>
			<point x="14" y="483" type="line"/>
			<point x="492" y="483" type="line"/>
			<point x="492" y="600" type="line"/>
			<point x="14" y="600" type="line"/>
		</contour>
	</outline>
</glyph>
<glyph name="gheup" format="1">
	<unicode hex="0491"/>
	<advance width="600"/>
	<outline>
		<contour>
			<point x="120" y="0" type="line"/>
			<point x="267" y="0" type="line"/>
			<point x="267" y="381" type="line"/>
			<point x="491" y="381" type="line"/>
			<point x="441" y="496" type="line"/>
			<point x="120" y="496" type="line"/>
		</contour>
		<contour>
			<point x="350" y="381" type="line"/>
			<point x="519" y="381" type="line"/>
			<point x="528" y="668" type="line"/>
			<point x="409" y="668" type="line"/>
			<point x="388" y="496" type="line"/>
			<point x="350" y="496" type="line"/>
		</contour>
	</outline>
</glyph>
<glyph name="Ghestroke" format="1">
	<unicode hex="0492"/>
	<advance width="600"/>
	<outline>
		<contour>
			<point x="126" y="0" type="line"/>
			<point x="273" y="0" type="line"/>
			<point x="273" y="528" type="line"/>
			<point x="535" y="528" type="line"/>
			<point x="535" y="652" type="line"/>
			<point x="126" y="652" type="line"/>
		</contour>
		<contour>
			<point x="50" y="281" type="line"/>
			<point x="418" y="281" type="line"/>
			<point x="418" y="356" type="line"/>
			<point x="128" y="356" type="line"/>
			<point x="50" y="351" type="line"/>
		</contour>
	</outline>
</glyph>
<glyph name="Zedescender" format="1">
	<unicode hex="0498"/>
	<advance width="600"/>
	<outline>
		<contour>
			<point x="234" y="-188" type="line"/>
			<point x="365" y="-188" type="line"/>
			<point x="378" y="22" type="line"/>
			<point x="234" y="0" type="line"/>
		</contour>
		<component base="Ze"/>
	</outline>
</glyph>
<glyph name="Kadescender" format="1">
	<unicode hex="049A"/>
	<advance width="600"/>
	<outline>
		<contour>
			<point x="478" y="-188" type="line"/>
			<point x="593" y="-188" type="line"/>
			<point x="605" y="32" type="line"/>
			<point x="605" y="124" type="line"/>
			<point x="451" y="124" type="line"/>
			<point x="451" y="0" type="line"/>
			<point x="478" y="0" type="line"/>
		</contour>
		<component base="Ka"/>
	</outline>
</glyph>
<glyph name="kadescender" format="1">
	<unicode hex="049B"/>
	<advance width="600"/>
	<outline>
		<contour>
			<point x="472" y="-172" type="line"/>
			<point x="580" y="-172" type="line"/>
			<point x="594" y="19" type="line"/>
			<point x="594" y="115" type="line"/>
			<point x="445" y="115" type="line"/>
			<point x="445" y="0" type="line"/>
			<point x="472" y="0" type="line"/>
		</contour>
		<component base="ka"/>
	</outline>
</glyph>
<glyph name="kabashkir" format="2">
	<unicode hex="04A1"/>
	<advance width="600"/>
	<outline>
		<contour>
			<point x="173" y="0" type="line"/>
			<point x="304" y="0" type="line"/>
			<point x="304" y="198" type="line"/>
			<point x="355" y="198" type="line"/>
			<point x="459" y="0" type="line"/>
			<point x="595" y="0" type="line"/>
			<point x="420" y="313" type="line"/>
			<point x="304" y="313" type="line"/>
			<point x="304" y="496" type="line"/>
			<point x="173" y="496" type="line"/>
		</contour>
		<contour>
			<point x="29" y="381" type="line"/>
			<point x="173" y="381" type="line"/>
			<point x="304" y="496" type="line"/>
			<point x="29" y="496" type="line"/>
		</contour>
		<contour>
			<point x="450" y="233" type="line"/>
			<point x="478" y="319" type="line" smooth="yes"/>
			<point x="493" y="362"/>
			<point x="507" y="369"/>
			<point x="525" y="369" type="curve" smooth="yes"/>
			<point x="532" y="369"/>
			<point x="538" y="367"/>
			<point x="544" y="365" type="curve"/>
			<point x="567" y="501" type="line"/>
			<point x="554" y="506"/>
			<point x="541" y="508"/>
			<point x="527" y="508" type="curve" smooth="yes"/>
			<point x="463" y="508"/>
			<point x="417" y="491"/>
			<point x="387" y="404" type="curve" smooth="yes"/>
			<point x="336" y="260" type="line"/>
		</contour>
	</outline>
</glyph>
<glyph name="Esdescender" format="1">
	<unicode hex="04AA"/>
	<advance width="600"/>
	<outline>
		<contour>
			<point x="289" y="-188" type="line"/>
			<point x="420" y="-188" type="line"/>
			<point x="433" y="22" type="line"/>
			<point x="289" y="0" type="line"/>
		</contour>
		<component base="Es"/>
	</outline>
</glyph>
<glyph name="Ustraightstroke" format="1">
	<unicode hex="04B0"/>
	<advance width="600"/>
	<outline>
		<contour>
			<point x="81" y="208" type="line"/>
			<point x="519" y="208" type="line"/>
			<point x="519" y="283" type="line"/>
			<point x="176" y="283" type="line"/>
			<point x="81" y="278" type="line"/>
		</contour>
		<component base="Ustraight"/>
		<contour>
			<point name="aboveUC" x="300" y="672" type="move"/>
		</contour>
	</outline>
</glyph>
<glyph name="Shha" format="1">
	<unicode hex="04BA"/>
	<advance width="600"/>
	<outline>
		<contour>
			<point x="62" y="0" type="line"/>
			<point x="209" y="0" type="line"/>
			<point x="209" y="298" type="line"/>
			<point x="230" y="302"/>
			<point x="254" y="305"/>
			<point x="292" y="305" type="curve" smooth="yes"/>
			<point x="374" y="305"/>
			<point x="410" y="274"/>
			<point x="410" y="184" type="curve" smooth="yes"/>
			<point x="410" y="0" type="line"/>
			<point x="554" y="0" type="line"/>
			<point x="554" y="184" type="line" smooth="yes"/>
			<point x="554" y="359"/>
			<point x="461" y="422"/>
			<point x="308" y="422" type="curve" smooth="yes"/>
			<point x="264" y="422"/>
			<point x="239" y="420"/>
			<point x="209" y="415" type="curve"/>
			<point x="209" y="652" type="line"/>
			<point x="62" y="652" type="line"/>
		</contour>
	</outline>
</glyph>
<glyph name="d.sups" format="2">
	<unicode hex="1D48"/>
	<advance width="600"/>
	<outline>
		<contour>
			<point x="268" y="367" type="curve" smooth="yes"/>
			<point x="300" y="367"/>
			<point x="334" y="385"/>
			<point x="358" y="407" type="curve"/>
			<point x="360" y="407" type="line"/>
			<point x="368" y="375" type="line"/>
			<point x="452" y="375" type="line"/>
			<point x="452" y="843" type="line"/>
			<point x="349" y="843" type="line"/>
			<point x="349" y="727" type="line"/>
			<point x="352" y="678" type="line"/>
			<point x="330" y="698"/>
			<point x="307" y="713"/>
			<point x="270" y="713" type="curve" smooth="yes"/>
			<point x="198" y="713"/>
			<point x="128" y="647"/>
			<point x="128" y="539" type="curve" smooth="yes"/>
			<point x="128" y="432"/>
			<point x="183" y="367"/>
		</contour>
		<contour>
			<point x="295" y="451" type="curve" smooth="yes"/>
			<point x="257" y="451"/>
			<point x="235" y="478"/>
			<point x="235" y="541" type="curve" smooth="yes"/>
			<point x="235" y="602"/>
			<point x="263" y="628"/>
			<point x="294" y="628" type="curve" smooth="yes"/>
			<point x="312" y="628"/>
			<point x="332" y="622"/>
			<point x="349" y="608" type="curve"/>
			<point x="349" y="479" type="line"/>
			<point x="333" y="458"/>
			<point x="316" y="451"/>
		</contour>
	</outline>
</glyph>
<glyph name="Germandbls" format="1">
	<unicode hex="1E9E"/>
	<advance width="600"/>
	<outline>
		<contour>
			<point x="393" y="-12" type="curve" smooth="yes"/>
			<point x="521" y="-12"/>
			<point x="580" y="67"/>
			<point x="580" y="169" type="curve" smooth="yes"/>
			<point x="580" y="262"/>
			<point x="536" y="320"/>
			<point x="424" y="373" type="curve"/>
			<point x="430" y="334" type="line"/>
			<point x="530" y="481" type="line"/>
			<point x="504" y="590"/>
			<point x="423" y="664"/>
			<point x="301" y="664" type="curve" smooth="yes"/>
			<point x="138" y="664"/>
			<point x="64" y="567"/>
			<point x="64" y="434" type="curve" smooth="yes"/>
			<point x="64" y="0" type="line"/>
			<point x="211" y="0" type="line"/>
			<point x="211" y="414" type="line" smooth="yes"/>
			<point x="211" y="502"/>
			<point x="243" y="545"/>
			<point x="303" y="545" type="curve" smooth="yes"/>
			<point x="346" y="545"/>
			<point x="381" y="523"/>
			<point x="388" y="464" type="curve"/>
			<point x="401" y="511" type="line"/>
			<point x="298" y="361" type="line"/>
			<point x="309" y="275" type="line"/>
			<point x="394" y="254"/>
			<point x="427" y="214"/>
			<point x="427" y="171" type="curve" smooth="yes"/>
			<point x="427" y="133"/>
			<point x="404" y="107"/>
			<point x="374" y="107" type="curve" smooth="yes"/>
			<point x="345" y="107"/>
			<point x="322" y="118"/>
			<point x="300" y="141" type="curve"/>
			<point x="240" y="52" type="line"/>
			<point x="272" y="14"/>
			<point x="327" y="-12"/>
		</contour>
	</outline>
</glyph>
<glyph name="Epsilonacute" format="2">
	<unicode hex="1FC9"/>
	<advance width="600"/>
	<outline>
		<contour>
			<point x="192" y="0" type="line"/>
			<point x="526" y="0" type="line"/>
			<point x="526" y="28" type="line"/>
			<point x="224" y="28" type="line"/>
			<point x="224" y="338" type="line"/>
			<point x="460" y="338" type="line"/>
			<point x="460" y="366" type="line"/>
			<point x="224" y="366" type="line"/>
			<point x="224" y="632" type="line"/>
			<point x="516" y="632" type="line"/>
			<point x="516" y="660" type="line"/>
			<point x="192" y="660" type="line"/>
		</contour>
		<component base="Epsilontonos"/>
	</outline>
</glyph>
<glyph name="endash" format="1">
	<unicode hex="2013"/>
	<advance width="600"/>
	<outline>
		<contour>
			<point x="80" y="199" type="line"/>
			<point x="520" y="199" type="line"/>
			<point x="520" y="310" type="line"/>
			<point x="80" y="310" type="line"/>
		</contour>
	</outline>
</glyph>
<glyph name="underscoredbl" format="1">
	<unicode hex="2017"/>
	<advance width="600"/>
	<outline>
		<contour>
			<point x="60" y="-148" type="line"/>
			<point x="540" y="-148" type="line"/>
			<point x="540" y="-54" type="line"/>
			<point x="60" y="-54" type="line"/>
		</contour>
		<contour>
			<point x="60" y="-297" type="line"/>
			<point x="540" y="-297" type="line"/>
			<point x="540" y="-203" type="line"/>
			<point x="60" y="-203" type="line"/>
		</contour>
	</outline>
</glyph>
<glyph name="ellipsis" format="2">
	<unicode hex="2026"/>
	<advance width="600"/>
	<outline>
		<contour>
			<point x="91" y="-12" type="curve" smooth="yes"/>
			<point x="147" y="-12"/>
			<point x="183" y="30"/>
			<point x="183" y="84" type="curve" smooth="yes"/>
			<point x="183" y="138"/>
			<point x="147" y="180"/>
			<point x="91" y="180" type="curve" smooth="yes"/>
			<point x="36" y="180"/>
			<point x="-1" y="138"/>
			<point x="-1" y="84" type="curve" smooth="yes"/>
			<point x="-1" y="30"/>
			<point x="36" y="-12"/>
		</contour>
		<contour>
			<point x="300" y="-12" type="curve" smooth="yes"/>
			<point x="355" y="-12"/>
			<point x="392" y="30"/>
			<point x="392" y="84" type="curve" smooth="yes"/>
			<point x="392" y="138"/>
			<point x="355" y="180"/>
			<point x="300" y="180" type="curve" smooth="yes"/>
			<point x="245" y="180"/>
			<point x="208" y="138"/>
			<point x="208" y="84" type="curve" smooth="yes"/>
			<point x="208" y="30"/>
			<point x="245" y="-12"/>
		</contour>
		<contour>
			<point x="509" y="-12" type="curve" smooth="yes"/>
			<point x="564" y="-12"/>
			<point x="601" y="30"/>
			<point x="601" y="84" type="curve" smooth="yes"/>
			<point x="601" y="138"/>
			<point x="564" y="180"/>
			<point x="509" y="180" type="curve" smooth="yes"/>
			<point x="453" y="180"/>
			<point x="417" y="138"/>
			<point x="417" y="84" type="curve" smooth="yes"/>
			<point x="417" y="30"/>
			<point x="453" y="-12"/>
		</contour>
	</outline>
</glyph>
<glyph name="primereversed" format="1">
	<unicode hex="2035"/>
	<advance width="600"/>
	<outline>
		<contour>
			<point x="274" y="355" type="line"/>
			<point x="370" y="355" type="line"/>
			<point x="349" y="686" type="line"/>
			<point x="202" y="686" type="line"/>
			<point x="227" y="541" type="line"/>
		</contour>
	</outline>
</glyph>
<glyph name="guilsinglleft" format="1">
	<unicode hex="2039"/>
	<advance width="600"/>
	<outline>
		<contour>
			<point x="346" y="25" type="line"/>
			<point x="408" y="80" type="line"/>
			<point x="281" y="252" type="line"/>
			<point x="408" y="424" type="line"/>
			<point x="346" y="479" type="line"/>
			<point x="175" y="325" type="line"/>
			<point x="175" y="179" type="line"/>
		</contour>
	</outline>
</glyph>
<glyph name="overline" format="1">
	<unicode hex="203E"/>
	<advance width="600"/>
	<outline>
		<contour>
			<point x="62" y="585" type="line"/>
			<point x="538" y="585" type="line"/>
			<point x="538" y="668" type="line"/>
			<point x="62" y="668" type="line"/>
		</contour>
	</outline>
</glyph>
<glyph name="fraction" format="1">
	<unicode hex="2044"/>
	<advance width="600"/>
	<outline>
		<contour>
			<point x="92" y="28" type="line"/>
			<point x="254" y="227" type="line"/>
			<point x="203" y="274" type="line"/>
			<point x="17" y="101" type="line"/>
		</contour>
		<contour>
			<point x="397" y="377" type="line"/>
			<point x="583" y="551" type="line"/>
			<point x="508" y="624" type="line"/>
			<point x="346" y="425" type="line"/>
		</contour>
	</outline>
</glyph>
<glyph name="franc" format="1">
	<unicode hex="20A3"/>
	<advance width="600"/>
	<outline>
		<contour>
			<point x="128" y="0" type="line"/>
			<point x="275" y="0" type="line"/>
			<point x="275" y="267" type="line"/>
			<point x="496" y="267" type="line"/>
			<point x="496" y="390" type="line"/>
			<point x="275" y="390" type="line"/>
			<point x="275" y="511" type="line"/>
			<point x="537" y="511" type="line"/>
			<point x="537" y="635" type="line"/>
			<point x="128" y="635" type="line"/>
		</contour>
		<contour>
			<point x="52" y="97" type="line"/>
			<point x="418" y="97" type="line"/>
			<point x="418" y="187" type="line"/>
			<point x="130" y="187" type="line"/>
			<point x="52" y="182" type="line"/>
		</contour>
	</outline>
</glyph>
<glyph name="dong" format="1">
	<unicode hex="20AB"/>
	<advance width="600"/>
	<outline>
		<contour>
			<point x="262" y="116" type="curve" smooth="yes"/>
			<point x="307" y="116"/>
			<point x="347" y="134"/>
			<point x="377" y="163" type="curve"/>
			<point x="381" y="163" type="line"/>
			<point x="390" y="126" type="line"/>
			<point x="490" y="126" type="line"/>
			<point x="490" y="651" type="line"/>
			<point x="369" y="651" type="line"/>
			<point x="369" y="513" type="line"/>
			<point x="375" y="446" type="line"/>
			<point x="371" y="446" type="line"/>
			<point x="343" y="472"/>
			<point x="314" y="485"/>
			<point x="266" y="485" type="curve" smooth="yes"/>
			<point x="180" y="485"/>
			<point x="91" y="418"/>
			<point x="91" y="306" type="curve" smooth="yes"/>
			<point x="91" y="184"/>
			<point x="158" y="116"/>
		</contour>
		<contour>
			<point x="292" y="213" type="curve" smooth="yes"/>
			<point x="245" y="213"/>
			<point x="215" y="242"/>
			<point x="215" y="305" type="curve" smooth="yes"/>
			<point x="215" y="356"/>
			<point x="255" y="386"/>
			<point x="296" y="386" type="curve" smooth="yes"/>
			<point x="324" y="386"/>
			<point x="345" y="379"/>
			<point x="369" y="360" type="curve"/>
			<point x="369" y="249" type="line"/>
			<point x="344" y="223"/>
			<point x="322" y="213"/>
		</contour>
		<contour>
			<point x="215" y="528" type="line"/>
			<point x="490" y="528" type="line"/>
			<point x="562" y="534" type="line"/>
			<point x="562" y="602" type="line"/>
			<point x="215" y="602" type="line"/>
		</contour>
		<contour>
			<point x="104" y="0" type="line"/>
			<point x="523" y="0" type="line"/>
			<point x="523" y="74" type="line"/>
			<point x="104" y="74" type="line"/>
		</contour>
	</outline>
</glyph>
<glyph name="Euro" format="1">
	<unicode hex="20AC"/>
	<advance width="600"/>
	<outline>
		<contour>
			<point x="381" y="-12" type="curve" smooth="yes"/>
			<point x="462" y="-12"/>
			<point x="529" y="21"/>
			<point x="583" y="80" type="curve"/>
			<point x="502" y="156" type="line"/>
			<point x="471" y="121"/>
			<point x="436" y="102"/>
			<point x="390" y="102" type="curve" smooth="yes"/>
			<point x="299" y="102"/>
			<point x="246" y="181"/>
			<point x="246" y="319" type="curve" smooth="yes"/>
			<point x="246" y="453"/>
			<point x="295" y="533"/>
			<point x="387" y="533" type="curve" smooth="yes"/>
			<point x="430" y="533"/>
			<point x="463" y="515"/>
			<point x="494" y="490" type="curve"/>
			<point x="575" y="569" type="line"/>
			<point x="526" y="619"/>
			<point x="460" y="647"/>
			<point x="392" y="647" type="curve" smooth="yes"/>
			<point x="220" y="647"/>
			<point x="99" y="524"/>
			<point x="99" y="314" type="curve" smooth="yes"/>
			<point x="99" y="101"/>
			<point x="219" y="-12"/>
		</contour>
		<contour>
			<point x="45" y="343" type="line"/>
			<point x="509" y="343" type="line"/>
			<point x="509" y="417" type="line"/>
			<point x="119" y="417" type="line"/>
			<point x="45" y="412" type="line"/>
		</contour>
		<contour>
			<point x="45" y="219" type="line"/>
			<point x="469" y="219" type="line"/>
			<point x="469" y="293" type="line"/>
			<point x="119" y="293" type="line"/>
			<point x="45" y="287" type="line"/>
		</contour>
	</outline>
</glyph>
<glyph name="tenge" format="1">
	<unicode hex="20B8"/>
	<advance width="600"/>
	<outline>
		<contour>
			<point x="226" y="0" type="line"/>
			<point x="374" y="0" type="line"/>
			<point x="374" y="436" type="line"/>
			<point x="565" y="436" type="line"/>
			<point x="565" y="511" type="line"/>
			<point x="138" y="511" type="line"/>
			<point x="35" y="505" type="line"/>
			<point x="35" y="436" type="line"/>
			<point x="226" y="436" type="line"/>
		</contour>
		<contour>
			<point x="35" y="561" type="line"/>
			<point x="565" y="561" type="line"/>
			<point x="565" y="635" type="line"/>
			<point x="35" y="635" type="line"/>
		</contour>
	</outline>
</glyph>
<glyph name="ruble" format="1">
	<unicode hex="20BD"/>
	<advance width="600"/>
	<outline>
		<contour>
			<point x="129" y="0" type="line"/>
			<point x="268" y="0" type="line"/>
			<point x="268" y="267" type="line"/>
			<point x="329" y="267" type="line" smooth="yes"/>
			<point x="457" y="267"/>
			<point x="569" y="320"/>
			<point x="569" y="451" type="curve" smooth="yes"/>
			<point x="569" y="580"/>
			<point x="462" y="635"/>
			<point x="329" y="635" type="curve" smooth="yes"/>
			<point x="129" y="635" type="line"/>
		</contour>
		<contour>
			<point x="268" y="341" type="line"/>
			<point x="268" y="543" type="line"/>
			<point x="323" y="543" type="line" smooth="yes"/>
			<point x="392" y="543"/>
			<point x="433" y="513"/>
			<point x="433" y="442" type="curve" smooth="yes"/>
			<point x="433" y="380"/>
			<point x="392" y="341"/>
			<point x="323" y="341" type="curve" smooth="yes"/>
		</contour>
		<contour>
			<point x="20" y="267" type="line"/>
			<point x="193" y="267" type="line"/>
			<point x="193" y="341" type="line"/>
			<point x="144" y="341" type="line"/>
			<point x="20" y="335" type="line"/>
		</contour>
		<contour>
			<point x="20" y="142" type="line"/>
			<point x="502" y="142" type="line"/>
			<point x="502" y="217" type="line"/>
			<point x="144" y="217" type="line"/>
			<point x="20" y="211" type="line"/>
		</contour>
	</outline>
</glyph>
<glyph name="soundcopyright" format="1">
	<unicode hex="2117"/>
	<advance width="600"/>
	<outline>
		<contour>
			<point x="300" y="-9" type="curve" smooth="yes"/>
			<point x="452" y="-9"/>
			<point x="581" y="118"/>
			<point x="581" y="325" type="curve" smooth="yes"/>
			<point x="581" y="532"/>
			<point x="452" y="655"/>
			<point x="300" y="655" type="curve" smooth="yes"/>
			<point x="148" y="655"/>
			<point x="19" y="532"/>
			<point x="19" y="325" type="curve" smooth="yes"/>
			<point x="19" y="118"/>
			<point x="148" y="-9"/>
		</contour>
		<contour>
			<point x="300" y="52" type="curve" smooth="yes"/>
			<point x="170" y="52"/>
			<point x="83" y="161"/>
			<point x="83" y="325" type="curve" smooth="yes"/>
			<point x="83" y="489"/>
			<point x="170" y="595"/>
			<point x="300" y="595" type="curve" smooth="yes"/>
			<point x="430" y="595"/>
			<point x="517" y="489"/>
			<point x="517" y="325" type="curve" smooth="yes"/>
			<point x="517" y="161"/>
			<point x="430" y="52"/>
		</contour>
		<contour>
			<point x="177" y="139" type="line"/>
			<point x="281" y="139" type="line"/>
			<point x="281" y="230" type="line"/>
			<point x="305" y="230" type="line" smooth="yes"/>
			<point x="388" y="230"/>
			<point x="459" y="275"/>
			<point x="459" y="374" type="curve" smooth="yes"/>
			<point x="459" y="470"/>
			<point x="391" y="504"/>
			<point x="305" y="504" type="curve" smooth="yes"/>
			<point x="177" y="504" type="line"/>
		</contour>
		<contour>
			<point x="281" y="306" type="line"/>
			<point x="281" y="425" type="line"/>
			<point x="298" y="425" type="line" smooth="yes"/>
			<point x="337" y="425"/>
			<point x="358" y="409"/>
			<point x="358" y="370" type="curve" smooth="yes"/>
			<point x="358" y="326"/>
			<point x="339" y="306"/>
			<point x="298" y="306" type="curve" smooth="yes"/>
		</contour>
	</outline>
</glyph>
<glyph name="arrowright" format="2">
	<unicode hex="2192"/>
	<advance width="600"/>
	<outline>
		<contour>
			<point x="308" y="-17" type="line"/>
			<point x="586" y="250" type="line"/>
			<point x="586" y="254" type="line"/>
			<point x="308" y="521" type="line"/>
			<point x="239" y="442" type="line"/>
			<point x="389" y="310" type="line"/>
			<point x="31" y="310" type="line"/>
			<point x="31" y="194" type="line"/>
			<point x="389" y="194" type="line"/>
			<point x="239" y="62" type="line"/>
		</contour>
	</outline>
</glyph>
<glyph name="arrowdown" format="2">
	<unicode hex="2193"/>
	<advance width="600"/>
	<outline>
		<contour>
			<point x="298" y="-26" type="line"/>
			<point x="302" y="-26" type="line"/>
			<point x="569" y="252" type="line"/>
			<point x="490" y="322" type="line"/>
			<point x="358" y="172" type="line"/>
			<point x="358" y="529" type="line"/>
			<point x="242" y="529" type="line"/>
			<point x="242" y="172" type="line"/>
			<point x="110" y="322" type="line"/>
			<point x="31" y="252" type="line"/>
		</contour>
	</outline>
</glyph>
<glyph name="arrowupright" format="2">
	<unicode hex="2197"/>
	<advance width="600"/>
	<outline>
		<contour>
			<point x="145" y="14" type="line"/>
			<point x="398" y="267" type="line"/>
			<point x="385" y="68" type="line"/>
			<point x="491" y="61" type="line"/>
			<point x="498" y="446" type="line"/>
			<point x="495" y="449" type="line"/>
			<point x="110" y="442" type="line"/>
			<point x="116" y="337" type="line"/>
			<point x="315" y="350" type="line"/>
			<point x="62" y="97" type="line"/>
		</contour>
	</outline>
</glyph>
<glyph name="arrowdblright" format="1">
	<unicode hex="21D2"/>
	<advance width="600"/>
	<outline>
		<contour>
			<point x="308" y="-17" type="line"/>
			<point x="586" y="250" type="line"/>
			<point x="586" y="254" type="line"/>
			<point x="308" y="521" type="line"/>
			<point x="239" y="442" type="line"/>
			<point x="455" y="254" type="line"/>
			<point x="455" y="250" type="line"/>
			<point x="239" y="62" type="line"/>
		</contour>
		<contour>
			<point x="31" y="130" type="line"/>
			<point x="442" y="130" type="line"/>
			<point x="442" y="215" type="line"/>
			<point x="31" y="215" type="line"/>
		</contour>
		<contour>
			<point x="31" y="289" type="line"/>
			<point x="442" y="289" type="line"/>
			<point x="442" y="374" type="line"/>
			<point x="31" y="374" type="line"/>
		</contour>
	</outline>
</glyph>
<glyph name="existential" format="1">
	<unicode hex="2203"/>
	<advance width="600"/>
	<outline>
		<contour>
			<point x="66" y="0" type="line"/>
			<point x="508" y="0" type="line"/>
			<point x="508" y="652" type="line"/>
			<point x="76" y="652" type="line"/>
			<point x="76" y="528" type="line"/>
			<point x="360" y="528" type="line"/>
			<point x="360" y="397" type="line"/>
			<point x="119" y="397" type="line"/>
			<point x="119" y="274" type="line"/>
			<point x="360" y="274" type="line"/>
			<point x="360" y="124" type="line"/>
			<point x="66" y="124" type="line"/>
		</contour>
	</outline>
</glyph>
<glyph name="product" format="1">
	<unicode hex="220F"/>
	<advance width="600"/>
	<outline>
		<contour>
			<point x="25" y="-120" type="line"/>
			<point x="172" y="-120" type="line"/>
			<point x="172" y="507" type="line"/>
			<point x="428" y="507" type="line"/>
			<point x="428" y="-120" type="line"/>
			<point x="575" y="-120" type="line"/>
			<point x="575" y="635" type="line"/>
			<point x="25" y="635" type="line"/>
		</contour>
	</outline>
</glyph>
<glyph name="summation" format="2">
	<unicode hex="2211"/>
	<advance width="600"/>
	<outline>
		<contour>
			<point x="59" y="-120" type="line"/>
			<point x="558" y="-120" type="line"/>
			<point x="558" y="4" type="line"/>
			<point x="241" y="4" type="line"/>
			<point x="241" y="8" type="line"/>
			<point x="415" y="257" type="line"/>
			<point x="248" y="507" type="line"/>
			<point x="248" y="511" type="line"/>
			<point x="534" y="511" type="line"/>
			<point x="534" y="635" type="line"/>
			<point x="69" y="635" type="line"/>
			<point x="69" y="548" type="line"/>
			<point x="265" y="257" type="line"/>
			<point x="59" y="-33" type="line"/>
		</contour>
	</outline>
</glyph>
<glyph name="radical" format="1">
	<unicode hex="221A"/>
	<advance width="600"/>
	<outline>
		<contour>
			<point x="283" y="-80" type="line"/>
			<point x="385" y="-80" type="line"/>
			<point x="601" y="820" type="line"/>
			<point x="503" y="820" type="line"/>
			<point x="346" y="146" type="line" smooth="yes"/>
			<point x="340" y="119"/>
			<point x="335" y="91"/>
			<point x="331" y="64" type="curve"/>
			<point x="327" y="64" type="line"/>
			<point x="321" y="91"/>
			<point x="314" y="119"/>
			<point x="306" y="146" type="curve" smooth="yes"/>
			<point x="207" y="440" type="line"/>
			<point x="33" y="369" type="line"/>
			<point x="59" y="300" type="line"/>
			<point x="133" y="331" type="line"/>
		</contour>
	</outline>
</glyph>
<glyph name="intersection" format="1">
	<unicode hex="2229"/>
	<advance width="600"/>
	<outline>
		<contour>
			<point x="73" y="94" type="line"/>
			<point x="181" y="94" type="line"/>
			<point x="181" y="335" type="line" smooth="yes"/>
			<point x="181" y="424"/>
			<point x="227" y="474"/>
			<point x="300" y="474" type="curve" smooth="yes"/>
			<point x="373" y="474"/>
			<point x="419" y="424"/>
			<point x="419" y="335" type="curve" smooth="yes"/>
			<point x="419" y="94" type="line"/>
			<point x="527" y="94" type="line"/>
			<point x="527" y="347" type="line" smooth="yes"/>
			<point x="527" y="488"/>
			<point x="431" y="580"/>
			<point x="300" y="580" type="curve" smooth="yes"/>
			<point x="169" y="580"/>
			<point x="73" y="488"/>
			<point x="73" y="347" type="curve" smooth="yes"/>
		</contour>
	</outline>
</glyph>
<glyph name="house" format="1">
	<unicode hex="2302"/>
	<advance width="600"/>
	<outline>
		<contour>
			<point x="35" y="0" type="line"/>
			<point x="565" y="0" type="line"/>
			<point x="565" y="360" type="line"/>
			<point x="359" y="663" type="line"/>
			<point x="241" y="663" type="line"/>
			<point x="35" y="360" type="line"/>
		</contour>
		<contour>
			<point x="156" y="99" type="line"/>
			<point x="156" y="327" type="line"/>
			<point x="230" y="446" type="line"/>
			<point x="298" y="558" type="line"/>
			<point x="302" y="558" type="line"/>
			<point x="370" y="446" type="line"/>
			<point x="444" y="327" type="line"/>
			<point x="444" y="99" type="line"/>
		</contour>
	</outline>
</glyph>
<glyph name="revlogicalnot" format="1">
	<unicode hex="2310"/>
	<advance width="600"/>
	<outline>
		<contour>
			<point x="70" y="94" type="line"/>
			<point x="178" y="94" type="line"/>
			<point x="178" y="278" type="line"/>
			<point x="530" y="278" type="line"/>
			<point x="530" y="382" type="line"/>
			<point x="70" y="382" type="line"/>
		</contour>
	</outline>
</glyph>
<glyph name="ceilingright" format="1">
	<unicode hex="231D"/>
	<advance width="600"/>
	<outline>
		<contour>
			<point x="288" y="0" type="line"/>
			<point x="400" y="0" type="line"/>
			<point x="400" y="703" type="line"/>
			<point x="104" y="703" type="line"/>
			<point x="104" y="625" type="line"/>
			<point x="288" y="625" type="line"/>
		</contour>
	</outline>
</glyph>
<glyph name="integraltp" format="1">
	<unicode hex="2320"/>
	<advance width="600"/>
	<outline>
		<contour>
			<point x="370" y="-400" type="line"/>
			<point x="370" y="548" type="line"/>
			<point x="370" y="642"/>
			<point x="382" y="681"/>
			<point x="433" y="681" type="curve" smooth="yes"/>
			<point x="447" y="681"/>
			<point x="459" y="680"/>
			<point x="469" y="677" type="curve"/>
			<point x="483" y="784" type="line"/>
			<point x="472" y="787"/>
			<point x="450" y="791"/>
			<point x="426" y="791" type="curve" smooth="yes"/>
			<point x="269" y="791"/>
			<point x="238" y="685"/>
			<point x="238" y="544" type="curve"/>
			<point x="238" y="-400" type="line"/>
		</contour>
	</outline>
</glyph>
<glyph name="lighttrpldashhorzbxd" format="1">
	<unicode hex="2504"/>
	<advance width="600"/>
	<outline>
		<contour>
			<point x="433" y="231" type="line"/>
			<point x="567" y="231" type="line"/>
			<point x="567" y="369" type="line"/>
			<point x="433" y="369" type="line"/>
		</contour>
		<contour>
			<point x="233" y="231" type="line"/>
			<point x="367" y="231" type="line"/>
			<point x="367" y="369" type="line"/>
			<point x="233" y="369" type="line"/>
		</contour>
		<contour>
			<point x="33" y="231" type="line"/>
			<point x="167" y="231" type="line"/>
			<point x="167" y="369" type="line"/>
			<point x="33" y="369" type="line"/>
		</contour>
	</outline>
</glyph>
<glyph name="lighttrpldashvertbxd" format="1">
	<unicode hex="2506"/>
	<advance width="600"/>
	<outline>
		<contour>
			<point x="231" y="567" type="line"/>
			<point x="369" y="567" type="line"/>
			<point x="369" y="833" type="line"/>
			<point x="231" y="833" type="line"/>
		</contour>
		<contour>
			<point x="231" y="167" type="line"/>
			<point x="369" y="167" type="line"/>
			<point x="369" y="433" type="line"/>
			<point x="231" y="433" type="line"/>
		</contour>
		<contour>
			<point x="231" y="-233" type="line"/>
			<point x="369" y="-233" type="line"/>
			<point x="369" y="33" type="line"/>
			<point x="231" y="33" type="line"/>
		</contour>
	</outline>
</glyph>
<glyph name="heavyquaddashhorzbxd" format="1">
	<unicode hex="2509"/>
	<advance width="600"/>
	<outline>
		<contour>
			<point x="469" y="163" type="line"/>
			<point x="581" y="163" type="line"/>
			<point x="581" y="437" type="line"/>
			<point x="469" y="437" type="line"/>
		</contour>
		<contour>
			<point x="319" y="163" type="line"/>
			<point x="431" y="163" type="line"/>
			<point x="431" y="437" type="line"/>
			<point x="319" y="437" type="line"/>
		</contour>
		<contour>
			<point x="169" y="163" type="line"/>
			<point x="281" y="163" type="line"/>
			<point x="281" y="437" type="line"/>
			<point x="169" y="437" type="line"/>
		</contour>
		<contour>
			<point x="19" y="163" type="line"/>
			<point x="131" y="163" type="line"/>
			<point x="131" y="437" type="line"/>
			<point x="19" y="437" type="line"/>
		</contour>
	</outline>
</glyph>
<glyph name="heavyquaddashvertbxd" format="1">
	<unicode hex="250B"/>
	<advance width="600"/>
	<outline>
		<contour>
			<point x="163" y="638" type="line"/>
			<point x="437" y="638" type="line"/>
			<point x="437" y="863" type="line"/>
			<point x="163" y="863" type="line"/>
		</contour>
		<contour>
			<point x="163" y="338" type="line"/>
			<point x="437" y="338" type="line"/>
			<point x="437" y="563" type="line"/>
			<point x="163" y="563" type="line"/>
		</contour>
		<contour>
			<point x="163" y="38" type="line"/>
			<point x="437" y="38" type="line"/>
			<point x="437" y="263" type="line"/>
			<point x="163" y="263" type="line"/>
		</contour>
		<contour>
			<point x="163" y="-263" type="line"/>
			<point x="437" y="-263" type="line"/>
			<point x="437" y="-38" type="line"/>
			<point x="163" y="-38" type="line"/>
		</contour>
	</outline>
</glyph>
<glyph name="lightupleftbxd" format="1">
	<unicode hex="2518"/>
	<advance width="600"/>
	<outline>
		<contour>
			<point x="369" y="231" type="line"/>
			<point x="369" y="1000" type="line"/>
			<point x="231" y="1000" type="line"/>
			<point x="231" y="369" type="line"/>
			<point x="-69" y="369" type="line"/>
			<point x="-69" y="231" type="line"/>
		</contour>
	</outline>
</glyph>
<glyph name="lightuphorzbxd" format="1">
	<unicode hex="2534"/>
	<advance width="600"/>
	<outline>
		<contour>
			<point x="669" y="231" type="line"/>
			<point x="669" y="369" type="line"/>
			<point x="369" y="369" type="line"/>
			<point x="369" y="1000" type="line"/>
			<point x="231" y="1000" type="line"/>
			<point x="231" y="369" type="line"/>
			<point x="-69" y="369" type="line"/>
			<point x="-69" y="231" type="line"/>
		</contour>
	</outline>
</glyph>
